M48
; DRILL file {KiCad 8.0.4} date 2024-09-17T15:58:45+0930
; FORMAT={-:-/ absolute / metric / decimal}
; #@! TF.CreationDate,2024-09-17T15:58:45+09:30
; #@! TF.GenerationSoftware,Kicad,Pcbnew,8.0.4
; #@! TF.FileFunction,Plated,1,2,PTH
FMAT,2
METRIC
; #@! TA.AperFunction,Plated,PTH,ComponentDrill
T1C0.800
; #@! TA.AperFunction,Plated,PTH,ComponentDrill
T2C1.000
%
G90
G05
T1
X84.307Y-97.527
X84.307Y-105.147
T2
X85.339Y-50.056
X85.339Y-52.596
X85.339Y-55.136
X85.339Y-57.676
X85.339Y-60.216
X85.339Y-62.756
X85.339Y-65.296
X85.339Y-67.836
X85.339Y-70.376
X85.339Y-72.916
X85.339Y-75.456
X85.339Y-77.996
X85.339Y-80.536
X85.339Y-83.076
X87.821Y-112.829
X87.821Y-117.329
X94.321Y-112.829
X94.321Y-117.329
X96.301Y-104.349
X96.301Y-108.849
X96.301Y-121.309
X96.301Y-125.809
X96.301Y-136.309
X96.301Y-140.809
X102.801Y-104.349
X102.801Y-108.849
X102.801Y-121.309
X102.801Y-125.809
X102.801Y-136.309
X102.801Y-140.809
X104.781Y-112.829
X104.781Y-117.329
X108.301Y-136.309
X108.301Y-140.809
X111.281Y-112.829
X111.281Y-117.329
X114.801Y-136.309
X114.801Y-140.809
X119.88Y-98.32
X119.88Y-100.86
X119.88Y-103.4
X119.88Y-105.94
X119.88Y-108.48
X119.88Y-111.02
X119.88Y-113.56
X119.88Y-116.1
X119.88Y-118.64
X119.88Y-121.18
X119.88Y-123.72
X119.88Y-126.26
X119.88Y-128.8
X119.88Y-131.34
X122.42Y-98.32
X124.96Y-98.32
X127.5Y-71.111
X127.5Y-91.431
X127.5Y-98.32
X130.04Y-98.32
X132.58Y-98.32
X135.12Y-98.32
X135.12Y-100.86
X135.12Y-103.4
X135.12Y-105.94
X135.12Y-108.48
X135.12Y-111.02
X135.12Y-113.56
X135.12Y-116.1
X135.12Y-118.64
X135.12Y-121.18
X135.12Y-123.72
X135.12Y-126.26
X135.12Y-128.8
X135.12Y-131.34
X140.199Y-136.309
X140.199Y-140.809
X140.771Y-98.32
X143.311Y-98.32
X143.719Y-112.829
X143.719Y-117.329
X145.851Y-98.32
X146.699Y-136.309
X146.699Y-140.809
X148.391Y-98.32
X150.219Y-112.829
X150.219Y-117.329
X150.931Y-98.32
X152.199Y-104.349
X152.199Y-108.849
X152.199Y-121.309
X152.199Y-125.809
X152.199Y-136.309
X152.199Y-140.809
X153.471Y-98.32
X156.011Y-98.32
X158.551Y-98.32
X158.699Y-104.349
X158.699Y-108.849
X158.699Y-121.309
X158.699Y-125.809
X158.699Y-136.309
X158.699Y-140.809
X160.679Y-112.829
X160.679Y-117.329
X161.091Y-98.32
X163.631Y-98.32
X166.171Y-98.32
X167.179Y-112.829
X167.179Y-117.329
X168.711Y-98.32
X169.139Y-62.666
X169.139Y-65.206
X169.139Y-67.746
X169.139Y-70.286
M30
