G04 #@! TF.GenerationSoftware,KiCad,Pcbnew,8.0.4*
G04 #@! TF.CreationDate,2024-09-17T15:57:22+09:30*
G04 #@! TF.ProjectId,handheld game console,68616e64-6865-46c6-9420-67616d652063,0*
G04 #@! TF.SameCoordinates,Original*
G04 #@! TF.FileFunction,Soldermask,Bot*
G04 #@! TF.FilePolarity,Negative*
%FSLAX46Y46*%
G04 Gerber Fmt 4.6, Leading zero omitted, Abs format (unit mm)*
G04 Created by KiCad (PCBNEW 8.0.4) date 2024-09-17 15:57:22*
%MOMM*%
%LPD*%
G01*
G04 APERTURE LIST*
%ADD10O,1.700000X1.700000*%
%ADD11C,2.000000*%
%ADD12R,1.700000X1.700000*%
%ADD13C,1.600000*%
%ADD14O,1.600000X1.600000*%
%ADD15C,2.200000*%
G04 APERTURE END LIST*
D10*
X135120000Y-128800000D03*
X135120000Y-126260000D03*
X135120000Y-123720000D03*
X135120000Y-121180000D03*
X135120000Y-118640000D03*
X135120000Y-116100000D03*
X135120000Y-113560000D03*
X135120000Y-111020000D03*
X135120000Y-108480000D03*
X135120000Y-105940000D03*
X135120000Y-103400000D03*
X135120000Y-100860000D03*
X135120000Y-98320000D03*
X119880000Y-98320000D03*
X119880000Y-100860000D03*
X119880000Y-103400000D03*
X119880000Y-105940000D03*
X119880000Y-108480000D03*
X119880000Y-111020000D03*
X119880000Y-113560000D03*
X119880000Y-116100000D03*
X119880000Y-118640000D03*
X119880000Y-121180000D03*
X119880000Y-123720000D03*
X119880000Y-126260000D03*
X130040000Y-98320000D03*
X135120000Y-131340000D03*
X119880000Y-128800000D03*
X127500000Y-98320000D03*
X119880000Y-131340000D03*
X132580000Y-98320000D03*
X124960000Y-98320000D03*
X122420000Y-98320000D03*
D11*
X96300800Y-104348600D03*
X102800800Y-104348600D03*
X96300800Y-108848600D03*
X102800800Y-108848600D03*
X152199200Y-121308600D03*
X158699200Y-121308600D03*
X152199200Y-125808600D03*
X158699200Y-125808600D03*
X96300800Y-136308600D03*
X102800800Y-136308600D03*
X96300800Y-140808600D03*
X102800800Y-140808600D03*
X104780800Y-112828600D03*
X111280800Y-112828600D03*
X104780800Y-117328600D03*
X111280800Y-117328600D03*
X143719200Y-112828600D03*
X150219200Y-112828600D03*
X143719200Y-117328600D03*
X150219200Y-117328600D03*
X96300800Y-121308600D03*
X102800800Y-121308600D03*
X96300800Y-125808600D03*
X102800800Y-125808600D03*
X152199200Y-136308600D03*
X158699200Y-136308600D03*
X152199200Y-140808600D03*
X158699200Y-140808600D03*
X152199200Y-104348600D03*
X158699200Y-104348600D03*
X152199200Y-108848600D03*
X158699200Y-108848600D03*
X87820800Y-112828600D03*
X94320800Y-112828600D03*
X87820800Y-117328600D03*
X94320800Y-117328600D03*
X108300800Y-136308600D03*
X114800800Y-136308600D03*
X108300800Y-140808600D03*
X114800800Y-140808600D03*
X160679200Y-112828600D03*
X167179200Y-112828600D03*
X160679200Y-117328600D03*
X167179200Y-117328600D03*
X140199200Y-136308600D03*
X146699200Y-136308600D03*
X140199200Y-140808600D03*
X146699200Y-140808600D03*
D12*
X85338800Y-50056200D03*
D10*
X85338800Y-52596200D03*
X85338800Y-55136200D03*
X85338800Y-57676200D03*
X85338800Y-60216200D03*
X85338800Y-62756200D03*
X85338800Y-65296200D03*
X85338800Y-67836200D03*
X85338800Y-70376200D03*
X85338800Y-72916200D03*
X85338800Y-75456200D03*
X85338800Y-77996200D03*
X85338800Y-80536200D03*
X85338800Y-83076200D03*
D12*
X169138800Y-62666200D03*
D10*
X169138800Y-65206200D03*
X169138800Y-67746200D03*
X169138800Y-70286200D03*
D13*
X84307200Y-97527200D03*
D14*
X84307200Y-105147200D03*
D15*
X80000000Y-47500000D03*
X80000000Y-142500000D03*
D12*
X168711400Y-98320200D03*
D10*
X166171400Y-98320200D03*
X163631400Y-98320200D03*
X161091400Y-98320200D03*
X158551400Y-98320200D03*
X156011400Y-98320200D03*
X153471400Y-98320200D03*
X150931400Y-98320200D03*
X148391400Y-98320200D03*
X145851400Y-98320200D03*
X143311400Y-98320200D03*
X140771400Y-98320200D03*
D15*
X175000000Y-47500000D03*
X175000000Y-142500000D03*
D12*
X127500000Y-91431200D03*
D10*
X127500000Y-71111200D03*
M02*
