G04 #@! TF.GenerationSoftware,KiCad,Pcbnew,8.0.4*
G04 #@! TF.CreationDate,2024-09-17T15:57:22+09:30*
G04 #@! TF.ProjectId,handheld game console,68616e64-6865-46c6-9420-67616d652063,0*
G04 #@! TF.SameCoordinates,Original*
G04 #@! TF.FileFunction,Legend,Top*
G04 #@! TF.FilePolarity,Positive*
%FSLAX46Y46*%
G04 Gerber Fmt 4.6, Leading zero omitted, Abs format (unit mm)*
G04 Created by KiCad (PCBNEW 8.0.4) date 2024-09-17 15:57:22*
%MOMM*%
%LPD*%
G01*
G04 APERTURE LIST*
%ADD10C,0.100000*%
%ADD11C,0.150000*%
%ADD12C,0.120000*%
%ADD13O,1.700000X1.700000*%
%ADD14C,2.000000*%
%ADD15R,1.700000X1.700000*%
%ADD16C,1.600000*%
%ADD17O,1.600000X1.600000*%
%ADD18C,2.200000*%
G04 APERTURE END LIST*
D10*
X116347419Y-130371904D02*
X117156942Y-130371904D01*
X117156942Y-130371904D02*
X117252180Y-130324285D01*
X117252180Y-130324285D02*
X117299800Y-130276666D01*
X117299800Y-130276666D02*
X117347419Y-130181428D01*
X117347419Y-130181428D02*
X117347419Y-129990952D01*
X117347419Y-129990952D02*
X117299800Y-129895714D01*
X117299800Y-129895714D02*
X117252180Y-129848095D01*
X117252180Y-129848095D02*
X117156942Y-129800476D01*
X117156942Y-129800476D02*
X116347419Y-129800476D01*
X117347419Y-128800476D02*
X117347419Y-129371904D01*
X117347419Y-129086190D02*
X116347419Y-129086190D01*
X116347419Y-129086190D02*
X116490276Y-129181428D01*
X116490276Y-129181428D02*
X116585514Y-129276666D01*
X116585514Y-129276666D02*
X116633133Y-129371904D01*
X96901161Y-102040009D02*
X97044018Y-102087628D01*
X97044018Y-102087628D02*
X97091637Y-102135247D01*
X97091637Y-102135247D02*
X97139256Y-102230485D01*
X97139256Y-102230485D02*
X97139256Y-102373342D01*
X97139256Y-102373342D02*
X97091637Y-102468580D01*
X97091637Y-102468580D02*
X97044018Y-102516200D01*
X97044018Y-102516200D02*
X96948780Y-102563819D01*
X96948780Y-102563819D02*
X96567828Y-102563819D01*
X96567828Y-102563819D02*
X96567828Y-101563819D01*
X96567828Y-101563819D02*
X96901161Y-101563819D01*
X96901161Y-101563819D02*
X96996399Y-101611438D01*
X96996399Y-101611438D02*
X97044018Y-101659057D01*
X97044018Y-101659057D02*
X97091637Y-101754295D01*
X97091637Y-101754295D02*
X97091637Y-101849533D01*
X97091637Y-101849533D02*
X97044018Y-101944771D01*
X97044018Y-101944771D02*
X96996399Y-101992390D01*
X96996399Y-101992390D02*
X96901161Y-102040009D01*
X96901161Y-102040009D02*
X96567828Y-102040009D01*
X97424971Y-101563819D02*
X97996399Y-101563819D01*
X97710685Y-102563819D02*
X97710685Y-101563819D01*
X98329733Y-102563819D02*
X98329733Y-101563819D01*
X98329733Y-101563819D02*
X98901161Y-102563819D01*
X98901161Y-102563819D02*
X98901161Y-101563819D01*
X99139257Y-102659057D02*
X99901161Y-102659057D01*
X100139257Y-102563819D02*
X100139257Y-101563819D01*
X100139257Y-101563819D02*
X100710685Y-102563819D01*
X100710685Y-102563819D02*
X100710685Y-101563819D01*
X100948781Y-102659057D02*
X101710685Y-102659057D01*
X102472590Y-102563819D02*
X101901162Y-102563819D01*
X102186876Y-102563819D02*
X102186876Y-101563819D01*
X102186876Y-101563819D02*
X102091638Y-101706676D01*
X102091638Y-101706676D02*
X101996400Y-101801914D01*
X101996400Y-101801914D02*
X101901162Y-101849533D01*
X152847180Y-119000009D02*
X152990037Y-119047628D01*
X152990037Y-119047628D02*
X153037656Y-119095247D01*
X153037656Y-119095247D02*
X153085275Y-119190485D01*
X153085275Y-119190485D02*
X153085275Y-119333342D01*
X153085275Y-119333342D02*
X153037656Y-119428580D01*
X153037656Y-119428580D02*
X152990037Y-119476200D01*
X152990037Y-119476200D02*
X152894799Y-119523819D01*
X152894799Y-119523819D02*
X152513847Y-119523819D01*
X152513847Y-119523819D02*
X152513847Y-118523819D01*
X152513847Y-118523819D02*
X152847180Y-118523819D01*
X152847180Y-118523819D02*
X152942418Y-118571438D01*
X152942418Y-118571438D02*
X152990037Y-118619057D01*
X152990037Y-118619057D02*
X153037656Y-118714295D01*
X153037656Y-118714295D02*
X153037656Y-118809533D01*
X153037656Y-118809533D02*
X152990037Y-118904771D01*
X152990037Y-118904771D02*
X152942418Y-118952390D01*
X152942418Y-118952390D02*
X152847180Y-119000009D01*
X152847180Y-119000009D02*
X152513847Y-119000009D01*
X153370990Y-118523819D02*
X153942418Y-118523819D01*
X153656704Y-119523819D02*
X153656704Y-118523819D01*
X154275752Y-119523819D02*
X154275752Y-118523819D01*
X154275752Y-118523819D02*
X154847180Y-119523819D01*
X154847180Y-119523819D02*
X154847180Y-118523819D01*
X155085276Y-119619057D02*
X155847180Y-119619057D01*
X156037657Y-119476200D02*
X156180514Y-119523819D01*
X156180514Y-119523819D02*
X156418609Y-119523819D01*
X156418609Y-119523819D02*
X156513847Y-119476200D01*
X156513847Y-119476200D02*
X156561466Y-119428580D01*
X156561466Y-119428580D02*
X156609085Y-119333342D01*
X156609085Y-119333342D02*
X156609085Y-119238104D01*
X156609085Y-119238104D02*
X156561466Y-119142866D01*
X156561466Y-119142866D02*
X156513847Y-119095247D01*
X156513847Y-119095247D02*
X156418609Y-119047628D01*
X156418609Y-119047628D02*
X156228133Y-119000009D01*
X156228133Y-119000009D02*
X156132895Y-118952390D01*
X156132895Y-118952390D02*
X156085276Y-118904771D01*
X156085276Y-118904771D02*
X156037657Y-118809533D01*
X156037657Y-118809533D02*
X156037657Y-118714295D01*
X156037657Y-118714295D02*
X156085276Y-118619057D01*
X156085276Y-118619057D02*
X156132895Y-118571438D01*
X156132895Y-118571438D02*
X156228133Y-118523819D01*
X156228133Y-118523819D02*
X156466228Y-118523819D01*
X156466228Y-118523819D02*
X156609085Y-118571438D01*
X156799562Y-119619057D02*
X157561466Y-119619057D01*
X157751943Y-118619057D02*
X157799562Y-118571438D01*
X157799562Y-118571438D02*
X157894800Y-118523819D01*
X157894800Y-118523819D02*
X158132895Y-118523819D01*
X158132895Y-118523819D02*
X158228133Y-118571438D01*
X158228133Y-118571438D02*
X158275752Y-118619057D01*
X158275752Y-118619057D02*
X158323371Y-118714295D01*
X158323371Y-118714295D02*
X158323371Y-118809533D01*
X158323371Y-118809533D02*
X158275752Y-118952390D01*
X158275752Y-118952390D02*
X157704324Y-119523819D01*
X157704324Y-119523819D02*
X158323371Y-119523819D01*
X94955561Y-133992209D02*
X95098418Y-134039828D01*
X95098418Y-134039828D02*
X95146037Y-134087447D01*
X95146037Y-134087447D02*
X95193656Y-134182685D01*
X95193656Y-134182685D02*
X95193656Y-134325542D01*
X95193656Y-134325542D02*
X95146037Y-134420780D01*
X95146037Y-134420780D02*
X95098418Y-134468400D01*
X95098418Y-134468400D02*
X95003180Y-134516019D01*
X95003180Y-134516019D02*
X94622228Y-134516019D01*
X94622228Y-134516019D02*
X94622228Y-133516019D01*
X94622228Y-133516019D02*
X94955561Y-133516019D01*
X94955561Y-133516019D02*
X95050799Y-133563638D01*
X95050799Y-133563638D02*
X95098418Y-133611257D01*
X95098418Y-133611257D02*
X95146037Y-133706495D01*
X95146037Y-133706495D02*
X95146037Y-133801733D01*
X95146037Y-133801733D02*
X95098418Y-133896971D01*
X95098418Y-133896971D02*
X95050799Y-133944590D01*
X95050799Y-133944590D02*
X94955561Y-133992209D01*
X94955561Y-133992209D02*
X94622228Y-133992209D01*
X95479371Y-133516019D02*
X96050799Y-133516019D01*
X95765085Y-134516019D02*
X95765085Y-133516019D01*
X96384133Y-134516019D02*
X96384133Y-133516019D01*
X96384133Y-133516019D02*
X96955561Y-134516019D01*
X96955561Y-134516019D02*
X96955561Y-133516019D01*
X97193657Y-134611257D02*
X97955561Y-134611257D01*
X98193657Y-134516019D02*
X98193657Y-133516019D01*
X98193657Y-133516019D02*
X98765085Y-134516019D01*
X98765085Y-134516019D02*
X98765085Y-133516019D01*
X99003181Y-134611257D02*
X99765085Y-134611257D01*
X99907943Y-133516019D02*
X100526990Y-133516019D01*
X100526990Y-133516019D02*
X100193657Y-133896971D01*
X100193657Y-133896971D02*
X100336514Y-133896971D01*
X100336514Y-133896971D02*
X100431752Y-133944590D01*
X100431752Y-133944590D02*
X100479371Y-133992209D01*
X100479371Y-133992209D02*
X100526990Y-134087447D01*
X100526990Y-134087447D02*
X100526990Y-134325542D01*
X100526990Y-134325542D02*
X100479371Y-134420780D01*
X100479371Y-134420780D02*
X100431752Y-134468400D01*
X100431752Y-134468400D02*
X100336514Y-134516019D01*
X100336514Y-134516019D02*
X100050800Y-134516019D01*
X100050800Y-134516019D02*
X99955562Y-134468400D01*
X99955562Y-134468400D02*
X99907943Y-134420780D01*
X105452590Y-110520009D02*
X105595447Y-110567628D01*
X105595447Y-110567628D02*
X105643066Y-110615247D01*
X105643066Y-110615247D02*
X105690685Y-110710485D01*
X105690685Y-110710485D02*
X105690685Y-110853342D01*
X105690685Y-110853342D02*
X105643066Y-110948580D01*
X105643066Y-110948580D02*
X105595447Y-110996200D01*
X105595447Y-110996200D02*
X105500209Y-111043819D01*
X105500209Y-111043819D02*
X105119257Y-111043819D01*
X105119257Y-111043819D02*
X105119257Y-110043819D01*
X105119257Y-110043819D02*
X105452590Y-110043819D01*
X105452590Y-110043819D02*
X105547828Y-110091438D01*
X105547828Y-110091438D02*
X105595447Y-110139057D01*
X105595447Y-110139057D02*
X105643066Y-110234295D01*
X105643066Y-110234295D02*
X105643066Y-110329533D01*
X105643066Y-110329533D02*
X105595447Y-110424771D01*
X105595447Y-110424771D02*
X105547828Y-110472390D01*
X105547828Y-110472390D02*
X105452590Y-110520009D01*
X105452590Y-110520009D02*
X105119257Y-110520009D01*
X105976400Y-110043819D02*
X106547828Y-110043819D01*
X106262114Y-111043819D02*
X106262114Y-110043819D01*
X106881162Y-111043819D02*
X106881162Y-110043819D01*
X106881162Y-110043819D02*
X107452590Y-111043819D01*
X107452590Y-111043819D02*
X107452590Y-110043819D01*
X107690686Y-111139057D02*
X108452590Y-111139057D01*
X108690686Y-110520009D02*
X109024019Y-110520009D01*
X109166876Y-111043819D02*
X108690686Y-111043819D01*
X108690686Y-111043819D02*
X108690686Y-110043819D01*
X108690686Y-110043819D02*
X109166876Y-110043819D01*
X109357353Y-111139057D02*
X110119257Y-111139057D01*
X110881162Y-111043819D02*
X110309734Y-111043819D01*
X110595448Y-111043819D02*
X110595448Y-110043819D01*
X110595448Y-110043819D02*
X110500210Y-110186676D01*
X110500210Y-110186676D02*
X110404972Y-110281914D01*
X110404972Y-110281914D02*
X110309734Y-110329533D01*
X144271942Y-110520009D02*
X144414799Y-110567628D01*
X144414799Y-110567628D02*
X144462418Y-110615247D01*
X144462418Y-110615247D02*
X144510037Y-110710485D01*
X144510037Y-110710485D02*
X144510037Y-110853342D01*
X144510037Y-110853342D02*
X144462418Y-110948580D01*
X144462418Y-110948580D02*
X144414799Y-110996200D01*
X144414799Y-110996200D02*
X144319561Y-111043819D01*
X144319561Y-111043819D02*
X143938609Y-111043819D01*
X143938609Y-111043819D02*
X143938609Y-110043819D01*
X143938609Y-110043819D02*
X144271942Y-110043819D01*
X144271942Y-110043819D02*
X144367180Y-110091438D01*
X144367180Y-110091438D02*
X144414799Y-110139057D01*
X144414799Y-110139057D02*
X144462418Y-110234295D01*
X144462418Y-110234295D02*
X144462418Y-110329533D01*
X144462418Y-110329533D02*
X144414799Y-110424771D01*
X144414799Y-110424771D02*
X144367180Y-110472390D01*
X144367180Y-110472390D02*
X144271942Y-110520009D01*
X144271942Y-110520009D02*
X143938609Y-110520009D01*
X144795752Y-110043819D02*
X145367180Y-110043819D01*
X145081466Y-111043819D02*
X145081466Y-110043819D01*
X145700514Y-111043819D02*
X145700514Y-110043819D01*
X145700514Y-110043819D02*
X146271942Y-111043819D01*
X146271942Y-111043819D02*
X146271942Y-110043819D01*
X146510038Y-111139057D02*
X147271942Y-111139057D01*
X147414800Y-110043819D02*
X147652895Y-111043819D01*
X147652895Y-111043819D02*
X147843371Y-110329533D01*
X147843371Y-110329533D02*
X148033847Y-111043819D01*
X148033847Y-111043819D02*
X148271943Y-110043819D01*
X148414800Y-111139057D02*
X149176704Y-111139057D01*
X149367181Y-110139057D02*
X149414800Y-110091438D01*
X149414800Y-110091438D02*
X149510038Y-110043819D01*
X149510038Y-110043819D02*
X149748133Y-110043819D01*
X149748133Y-110043819D02*
X149843371Y-110091438D01*
X149843371Y-110091438D02*
X149890990Y-110139057D01*
X149890990Y-110139057D02*
X149938609Y-110234295D01*
X149938609Y-110234295D02*
X149938609Y-110329533D01*
X149938609Y-110329533D02*
X149890990Y-110472390D01*
X149890990Y-110472390D02*
X149319562Y-111043819D01*
X149319562Y-111043819D02*
X149938609Y-111043819D01*
X96948780Y-119000009D02*
X97091637Y-119047628D01*
X97091637Y-119047628D02*
X97139256Y-119095247D01*
X97139256Y-119095247D02*
X97186875Y-119190485D01*
X97186875Y-119190485D02*
X97186875Y-119333342D01*
X97186875Y-119333342D02*
X97139256Y-119428580D01*
X97139256Y-119428580D02*
X97091637Y-119476200D01*
X97091637Y-119476200D02*
X96996399Y-119523819D01*
X96996399Y-119523819D02*
X96615447Y-119523819D01*
X96615447Y-119523819D02*
X96615447Y-118523819D01*
X96615447Y-118523819D02*
X96948780Y-118523819D01*
X96948780Y-118523819D02*
X97044018Y-118571438D01*
X97044018Y-118571438D02*
X97091637Y-118619057D01*
X97091637Y-118619057D02*
X97139256Y-118714295D01*
X97139256Y-118714295D02*
X97139256Y-118809533D01*
X97139256Y-118809533D02*
X97091637Y-118904771D01*
X97091637Y-118904771D02*
X97044018Y-118952390D01*
X97044018Y-118952390D02*
X96948780Y-119000009D01*
X96948780Y-119000009D02*
X96615447Y-119000009D01*
X97472590Y-118523819D02*
X98044018Y-118523819D01*
X97758304Y-119523819D02*
X97758304Y-118523819D01*
X98377352Y-119523819D02*
X98377352Y-118523819D01*
X98377352Y-118523819D02*
X98948780Y-119523819D01*
X98948780Y-119523819D02*
X98948780Y-118523819D01*
X99186876Y-119619057D02*
X99948780Y-119619057D01*
X100139257Y-119476200D02*
X100282114Y-119523819D01*
X100282114Y-119523819D02*
X100520209Y-119523819D01*
X100520209Y-119523819D02*
X100615447Y-119476200D01*
X100615447Y-119476200D02*
X100663066Y-119428580D01*
X100663066Y-119428580D02*
X100710685Y-119333342D01*
X100710685Y-119333342D02*
X100710685Y-119238104D01*
X100710685Y-119238104D02*
X100663066Y-119142866D01*
X100663066Y-119142866D02*
X100615447Y-119095247D01*
X100615447Y-119095247D02*
X100520209Y-119047628D01*
X100520209Y-119047628D02*
X100329733Y-119000009D01*
X100329733Y-119000009D02*
X100234495Y-118952390D01*
X100234495Y-118952390D02*
X100186876Y-118904771D01*
X100186876Y-118904771D02*
X100139257Y-118809533D01*
X100139257Y-118809533D02*
X100139257Y-118714295D01*
X100139257Y-118714295D02*
X100186876Y-118619057D01*
X100186876Y-118619057D02*
X100234495Y-118571438D01*
X100234495Y-118571438D02*
X100329733Y-118523819D01*
X100329733Y-118523819D02*
X100567828Y-118523819D01*
X100567828Y-118523819D02*
X100710685Y-118571438D01*
X100901162Y-119619057D02*
X101663066Y-119619057D01*
X102424971Y-119523819D02*
X101853543Y-119523819D01*
X102139257Y-119523819D02*
X102139257Y-118523819D01*
X102139257Y-118523819D02*
X102044019Y-118666676D01*
X102044019Y-118666676D02*
X101948781Y-118761914D01*
X101948781Y-118761914D02*
X101853543Y-118809533D01*
X150925390Y-133992209D02*
X151068247Y-134039828D01*
X151068247Y-134039828D02*
X151115866Y-134087447D01*
X151115866Y-134087447D02*
X151163485Y-134182685D01*
X151163485Y-134182685D02*
X151163485Y-134325542D01*
X151163485Y-134325542D02*
X151115866Y-134420780D01*
X151115866Y-134420780D02*
X151068247Y-134468400D01*
X151068247Y-134468400D02*
X150973009Y-134516019D01*
X150973009Y-134516019D02*
X150592057Y-134516019D01*
X150592057Y-134516019D02*
X150592057Y-133516019D01*
X150592057Y-133516019D02*
X150925390Y-133516019D01*
X150925390Y-133516019D02*
X151020628Y-133563638D01*
X151020628Y-133563638D02*
X151068247Y-133611257D01*
X151068247Y-133611257D02*
X151115866Y-133706495D01*
X151115866Y-133706495D02*
X151115866Y-133801733D01*
X151115866Y-133801733D02*
X151068247Y-133896971D01*
X151068247Y-133896971D02*
X151020628Y-133944590D01*
X151020628Y-133944590D02*
X150925390Y-133992209D01*
X150925390Y-133992209D02*
X150592057Y-133992209D01*
X151449200Y-133516019D02*
X152020628Y-133516019D01*
X151734914Y-134516019D02*
X151734914Y-133516019D01*
X152353962Y-134516019D02*
X152353962Y-133516019D01*
X152353962Y-133516019D02*
X152925390Y-134516019D01*
X152925390Y-134516019D02*
X152925390Y-133516019D01*
X153163486Y-134611257D02*
X153925390Y-134611257D01*
X154163486Y-133992209D02*
X154496819Y-133992209D01*
X154639676Y-134516019D02*
X154163486Y-134516019D01*
X154163486Y-134516019D02*
X154163486Y-133516019D01*
X154163486Y-133516019D02*
X154639676Y-133516019D01*
X154830153Y-134611257D02*
X155592057Y-134611257D01*
X155734915Y-133516019D02*
X156353962Y-133516019D01*
X156353962Y-133516019D02*
X156020629Y-133896971D01*
X156020629Y-133896971D02*
X156163486Y-133896971D01*
X156163486Y-133896971D02*
X156258724Y-133944590D01*
X156258724Y-133944590D02*
X156306343Y-133992209D01*
X156306343Y-133992209D02*
X156353962Y-134087447D01*
X156353962Y-134087447D02*
X156353962Y-134325542D01*
X156353962Y-134325542D02*
X156306343Y-134420780D01*
X156306343Y-134420780D02*
X156258724Y-134468400D01*
X156258724Y-134468400D02*
X156163486Y-134516019D01*
X156163486Y-134516019D02*
X155877772Y-134516019D01*
X155877772Y-134516019D02*
X155782534Y-134468400D01*
X155782534Y-134468400D02*
X155734915Y-134420780D01*
X152799561Y-102040009D02*
X152942418Y-102087628D01*
X152942418Y-102087628D02*
X152990037Y-102135247D01*
X152990037Y-102135247D02*
X153037656Y-102230485D01*
X153037656Y-102230485D02*
X153037656Y-102373342D01*
X153037656Y-102373342D02*
X152990037Y-102468580D01*
X152990037Y-102468580D02*
X152942418Y-102516200D01*
X152942418Y-102516200D02*
X152847180Y-102563819D01*
X152847180Y-102563819D02*
X152466228Y-102563819D01*
X152466228Y-102563819D02*
X152466228Y-101563819D01*
X152466228Y-101563819D02*
X152799561Y-101563819D01*
X152799561Y-101563819D02*
X152894799Y-101611438D01*
X152894799Y-101611438D02*
X152942418Y-101659057D01*
X152942418Y-101659057D02*
X152990037Y-101754295D01*
X152990037Y-101754295D02*
X152990037Y-101849533D01*
X152990037Y-101849533D02*
X152942418Y-101944771D01*
X152942418Y-101944771D02*
X152894799Y-101992390D01*
X152894799Y-101992390D02*
X152799561Y-102040009D01*
X152799561Y-102040009D02*
X152466228Y-102040009D01*
X153323371Y-101563819D02*
X153894799Y-101563819D01*
X153609085Y-102563819D02*
X153609085Y-101563819D01*
X154228133Y-102563819D02*
X154228133Y-101563819D01*
X154228133Y-101563819D02*
X154799561Y-102563819D01*
X154799561Y-102563819D02*
X154799561Y-101563819D01*
X155037657Y-102659057D02*
X155799561Y-102659057D01*
X156037657Y-102563819D02*
X156037657Y-101563819D01*
X156037657Y-101563819D02*
X156609085Y-102563819D01*
X156609085Y-102563819D02*
X156609085Y-101563819D01*
X156847181Y-102659057D02*
X157609085Y-102659057D01*
X157799562Y-101659057D02*
X157847181Y-101611438D01*
X157847181Y-101611438D02*
X157942419Y-101563819D01*
X157942419Y-101563819D02*
X158180514Y-101563819D01*
X158180514Y-101563819D02*
X158275752Y-101611438D01*
X158275752Y-101611438D02*
X158323371Y-101659057D01*
X158323371Y-101659057D02*
X158370990Y-101754295D01*
X158370990Y-101754295D02*
X158370990Y-101849533D01*
X158370990Y-101849533D02*
X158323371Y-101992390D01*
X158323371Y-101992390D02*
X157751943Y-102563819D01*
X157751943Y-102563819D02*
X158370990Y-102563819D01*
X88373542Y-110520009D02*
X88516399Y-110567628D01*
X88516399Y-110567628D02*
X88564018Y-110615247D01*
X88564018Y-110615247D02*
X88611637Y-110710485D01*
X88611637Y-110710485D02*
X88611637Y-110853342D01*
X88611637Y-110853342D02*
X88564018Y-110948580D01*
X88564018Y-110948580D02*
X88516399Y-110996200D01*
X88516399Y-110996200D02*
X88421161Y-111043819D01*
X88421161Y-111043819D02*
X88040209Y-111043819D01*
X88040209Y-111043819D02*
X88040209Y-110043819D01*
X88040209Y-110043819D02*
X88373542Y-110043819D01*
X88373542Y-110043819D02*
X88468780Y-110091438D01*
X88468780Y-110091438D02*
X88516399Y-110139057D01*
X88516399Y-110139057D02*
X88564018Y-110234295D01*
X88564018Y-110234295D02*
X88564018Y-110329533D01*
X88564018Y-110329533D02*
X88516399Y-110424771D01*
X88516399Y-110424771D02*
X88468780Y-110472390D01*
X88468780Y-110472390D02*
X88373542Y-110520009D01*
X88373542Y-110520009D02*
X88040209Y-110520009D01*
X88897352Y-110043819D02*
X89468780Y-110043819D01*
X89183066Y-111043819D02*
X89183066Y-110043819D01*
X89802114Y-111043819D02*
X89802114Y-110043819D01*
X89802114Y-110043819D02*
X90373542Y-111043819D01*
X90373542Y-111043819D02*
X90373542Y-110043819D01*
X90611638Y-111139057D02*
X91373542Y-111139057D01*
X91516400Y-110043819D02*
X91754495Y-111043819D01*
X91754495Y-111043819D02*
X91944971Y-110329533D01*
X91944971Y-110329533D02*
X92135447Y-111043819D01*
X92135447Y-111043819D02*
X92373543Y-110043819D01*
X92516400Y-111139057D02*
X93278304Y-111139057D01*
X94040209Y-111043819D02*
X93468781Y-111043819D01*
X93754495Y-111043819D02*
X93754495Y-110043819D01*
X93754495Y-110043819D02*
X93659257Y-110186676D01*
X93659257Y-110186676D02*
X93564019Y-110281914D01*
X93564019Y-110281914D02*
X93468781Y-110329533D01*
X107003180Y-133992209D02*
X107146037Y-134039828D01*
X107146037Y-134039828D02*
X107193656Y-134087447D01*
X107193656Y-134087447D02*
X107241275Y-134182685D01*
X107241275Y-134182685D02*
X107241275Y-134325542D01*
X107241275Y-134325542D02*
X107193656Y-134420780D01*
X107193656Y-134420780D02*
X107146037Y-134468400D01*
X107146037Y-134468400D02*
X107050799Y-134516019D01*
X107050799Y-134516019D02*
X106669847Y-134516019D01*
X106669847Y-134516019D02*
X106669847Y-133516019D01*
X106669847Y-133516019D02*
X107003180Y-133516019D01*
X107003180Y-133516019D02*
X107098418Y-133563638D01*
X107098418Y-133563638D02*
X107146037Y-133611257D01*
X107146037Y-133611257D02*
X107193656Y-133706495D01*
X107193656Y-133706495D02*
X107193656Y-133801733D01*
X107193656Y-133801733D02*
X107146037Y-133896971D01*
X107146037Y-133896971D02*
X107098418Y-133944590D01*
X107098418Y-133944590D02*
X107003180Y-133992209D01*
X107003180Y-133992209D02*
X106669847Y-133992209D01*
X107526990Y-133516019D02*
X108098418Y-133516019D01*
X107812704Y-134516019D02*
X107812704Y-133516019D01*
X108431752Y-134516019D02*
X108431752Y-133516019D01*
X108431752Y-133516019D02*
X109003180Y-134516019D01*
X109003180Y-134516019D02*
X109003180Y-133516019D01*
X109241276Y-134611257D02*
X110003180Y-134611257D01*
X110193657Y-134468400D02*
X110336514Y-134516019D01*
X110336514Y-134516019D02*
X110574609Y-134516019D01*
X110574609Y-134516019D02*
X110669847Y-134468400D01*
X110669847Y-134468400D02*
X110717466Y-134420780D01*
X110717466Y-134420780D02*
X110765085Y-134325542D01*
X110765085Y-134325542D02*
X110765085Y-134230304D01*
X110765085Y-134230304D02*
X110717466Y-134135066D01*
X110717466Y-134135066D02*
X110669847Y-134087447D01*
X110669847Y-134087447D02*
X110574609Y-134039828D01*
X110574609Y-134039828D02*
X110384133Y-133992209D01*
X110384133Y-133992209D02*
X110288895Y-133944590D01*
X110288895Y-133944590D02*
X110241276Y-133896971D01*
X110241276Y-133896971D02*
X110193657Y-133801733D01*
X110193657Y-133801733D02*
X110193657Y-133706495D01*
X110193657Y-133706495D02*
X110241276Y-133611257D01*
X110241276Y-133611257D02*
X110288895Y-133563638D01*
X110288895Y-133563638D02*
X110384133Y-133516019D01*
X110384133Y-133516019D02*
X110622228Y-133516019D01*
X110622228Y-133516019D02*
X110765085Y-133563638D01*
X110955562Y-134611257D02*
X111717466Y-134611257D01*
X111860324Y-133516019D02*
X112479371Y-133516019D01*
X112479371Y-133516019D02*
X112146038Y-133896971D01*
X112146038Y-133896971D02*
X112288895Y-133896971D01*
X112288895Y-133896971D02*
X112384133Y-133944590D01*
X112384133Y-133944590D02*
X112431752Y-133992209D01*
X112431752Y-133992209D02*
X112479371Y-134087447D01*
X112479371Y-134087447D02*
X112479371Y-134325542D01*
X112479371Y-134325542D02*
X112431752Y-134420780D01*
X112431752Y-134420780D02*
X112384133Y-134468400D01*
X112384133Y-134468400D02*
X112288895Y-134516019D01*
X112288895Y-134516019D02*
X112003181Y-134516019D01*
X112003181Y-134516019D02*
X111907943Y-134468400D01*
X111907943Y-134468400D02*
X111860324Y-134420780D01*
X161350990Y-110520009D02*
X161493847Y-110567628D01*
X161493847Y-110567628D02*
X161541466Y-110615247D01*
X161541466Y-110615247D02*
X161589085Y-110710485D01*
X161589085Y-110710485D02*
X161589085Y-110853342D01*
X161589085Y-110853342D02*
X161541466Y-110948580D01*
X161541466Y-110948580D02*
X161493847Y-110996200D01*
X161493847Y-110996200D02*
X161398609Y-111043819D01*
X161398609Y-111043819D02*
X161017657Y-111043819D01*
X161017657Y-111043819D02*
X161017657Y-110043819D01*
X161017657Y-110043819D02*
X161350990Y-110043819D01*
X161350990Y-110043819D02*
X161446228Y-110091438D01*
X161446228Y-110091438D02*
X161493847Y-110139057D01*
X161493847Y-110139057D02*
X161541466Y-110234295D01*
X161541466Y-110234295D02*
X161541466Y-110329533D01*
X161541466Y-110329533D02*
X161493847Y-110424771D01*
X161493847Y-110424771D02*
X161446228Y-110472390D01*
X161446228Y-110472390D02*
X161350990Y-110520009D01*
X161350990Y-110520009D02*
X161017657Y-110520009D01*
X161874800Y-110043819D02*
X162446228Y-110043819D01*
X162160514Y-111043819D02*
X162160514Y-110043819D01*
X162779562Y-111043819D02*
X162779562Y-110043819D01*
X162779562Y-110043819D02*
X163350990Y-111043819D01*
X163350990Y-111043819D02*
X163350990Y-110043819D01*
X163589086Y-111139057D02*
X164350990Y-111139057D01*
X164589086Y-110520009D02*
X164922419Y-110520009D01*
X165065276Y-111043819D02*
X164589086Y-111043819D01*
X164589086Y-111043819D02*
X164589086Y-110043819D01*
X164589086Y-110043819D02*
X165065276Y-110043819D01*
X165255753Y-111139057D02*
X166017657Y-111139057D01*
X166208134Y-110139057D02*
X166255753Y-110091438D01*
X166255753Y-110091438D02*
X166350991Y-110043819D01*
X166350991Y-110043819D02*
X166589086Y-110043819D01*
X166589086Y-110043819D02*
X166684324Y-110091438D01*
X166684324Y-110091438D02*
X166731943Y-110139057D01*
X166731943Y-110139057D02*
X166779562Y-110234295D01*
X166779562Y-110234295D02*
X166779562Y-110329533D01*
X166779562Y-110329533D02*
X166731943Y-110472390D01*
X166731943Y-110472390D02*
X166160515Y-111043819D01*
X166160515Y-111043819D02*
X166779562Y-111043819D01*
X138806342Y-133992209D02*
X138949199Y-134039828D01*
X138949199Y-134039828D02*
X138996818Y-134087447D01*
X138996818Y-134087447D02*
X139044437Y-134182685D01*
X139044437Y-134182685D02*
X139044437Y-134325542D01*
X139044437Y-134325542D02*
X138996818Y-134420780D01*
X138996818Y-134420780D02*
X138949199Y-134468400D01*
X138949199Y-134468400D02*
X138853961Y-134516019D01*
X138853961Y-134516019D02*
X138473009Y-134516019D01*
X138473009Y-134516019D02*
X138473009Y-133516019D01*
X138473009Y-133516019D02*
X138806342Y-133516019D01*
X138806342Y-133516019D02*
X138901580Y-133563638D01*
X138901580Y-133563638D02*
X138949199Y-133611257D01*
X138949199Y-133611257D02*
X138996818Y-133706495D01*
X138996818Y-133706495D02*
X138996818Y-133801733D01*
X138996818Y-133801733D02*
X138949199Y-133896971D01*
X138949199Y-133896971D02*
X138901580Y-133944590D01*
X138901580Y-133944590D02*
X138806342Y-133992209D01*
X138806342Y-133992209D02*
X138473009Y-133992209D01*
X139330152Y-133516019D02*
X139901580Y-133516019D01*
X139615866Y-134516019D02*
X139615866Y-133516019D01*
X140234914Y-134516019D02*
X140234914Y-133516019D01*
X140234914Y-133516019D02*
X140806342Y-134516019D01*
X140806342Y-134516019D02*
X140806342Y-133516019D01*
X141044438Y-134611257D02*
X141806342Y-134611257D01*
X141949200Y-133516019D02*
X142187295Y-134516019D01*
X142187295Y-134516019D02*
X142377771Y-133801733D01*
X142377771Y-133801733D02*
X142568247Y-134516019D01*
X142568247Y-134516019D02*
X142806343Y-133516019D01*
X142949200Y-134611257D02*
X143711104Y-134611257D01*
X143853962Y-133516019D02*
X144473009Y-133516019D01*
X144473009Y-133516019D02*
X144139676Y-133896971D01*
X144139676Y-133896971D02*
X144282533Y-133896971D01*
X144282533Y-133896971D02*
X144377771Y-133944590D01*
X144377771Y-133944590D02*
X144425390Y-133992209D01*
X144425390Y-133992209D02*
X144473009Y-134087447D01*
X144473009Y-134087447D02*
X144473009Y-134325542D01*
X144473009Y-134325542D02*
X144425390Y-134420780D01*
X144425390Y-134420780D02*
X144377771Y-134468400D01*
X144377771Y-134468400D02*
X144282533Y-134516019D01*
X144282533Y-134516019D02*
X143996819Y-134516019D01*
X143996819Y-134516019D02*
X143901581Y-134468400D01*
X143901581Y-134468400D02*
X143853962Y-134420780D01*
X142507780Y-69184371D02*
X142507780Y-69755799D01*
X141507780Y-69470085D02*
X142507780Y-69470085D01*
X142031590Y-70422466D02*
X142031590Y-70089133D01*
X141507780Y-70089133D02*
X142507780Y-70089133D01*
X142507780Y-70089133D02*
X142507780Y-70565323D01*
X142507780Y-70803419D02*
X142507780Y-71374847D01*
X141507780Y-71089133D02*
X142507780Y-71089133D01*
X141507780Y-72231990D02*
X141507780Y-71660562D01*
X141507780Y-71946276D02*
X142507780Y-71946276D01*
X142507780Y-71946276D02*
X142364923Y-71851038D01*
X142364923Y-71851038D02*
X142269685Y-71755800D01*
X142269685Y-71755800D02*
X142222066Y-71660562D01*
D11*
X87132019Y-101503866D02*
X86655828Y-101837199D01*
X87132019Y-102075294D02*
X86132019Y-102075294D01*
X86132019Y-102075294D02*
X86132019Y-101694342D01*
X86132019Y-101694342D02*
X86179638Y-101599104D01*
X86179638Y-101599104D02*
X86227257Y-101551485D01*
X86227257Y-101551485D02*
X86322495Y-101503866D01*
X86322495Y-101503866D02*
X86465352Y-101503866D01*
X86465352Y-101503866D02*
X86560590Y-101551485D01*
X86560590Y-101551485D02*
X86608209Y-101599104D01*
X86608209Y-101599104D02*
X86655828Y-101694342D01*
X86655828Y-101694342D02*
X86655828Y-102075294D01*
X87132019Y-100551485D02*
X87132019Y-101122913D01*
X87132019Y-100837199D02*
X86132019Y-100837199D01*
X86132019Y-100837199D02*
X86274876Y-100932437D01*
X86274876Y-100932437D02*
X86370114Y-101027675D01*
X86370114Y-101027675D02*
X86417733Y-101122913D01*
X79238095Y-44754819D02*
X79238095Y-43754819D01*
X79238095Y-44231009D02*
X79809523Y-44231009D01*
X79809523Y-44754819D02*
X79809523Y-43754819D01*
X80809523Y-44754819D02*
X80238095Y-44754819D01*
X80523809Y-44754819D02*
X80523809Y-43754819D01*
X80523809Y-43754819D02*
X80428571Y-43897676D01*
X80428571Y-43897676D02*
X80333333Y-43992914D01*
X80333333Y-43992914D02*
X80238095Y-44040533D01*
X79238095Y-139754819D02*
X79238095Y-138754819D01*
X79238095Y-139231009D02*
X79809523Y-139231009D01*
X79809523Y-139754819D02*
X79809523Y-138754819D01*
X80714285Y-139088152D02*
X80714285Y-139754819D01*
X80476190Y-138707200D02*
X80238095Y-139421485D01*
X80238095Y-139421485D02*
X80857142Y-139421485D01*
X168454266Y-100696019D02*
X168454266Y-101410304D01*
X168454266Y-101410304D02*
X168406647Y-101553161D01*
X168406647Y-101553161D02*
X168311409Y-101648400D01*
X168311409Y-101648400D02*
X168168552Y-101696019D01*
X168168552Y-101696019D02*
X168073314Y-101696019D01*
X169454266Y-101696019D02*
X168882838Y-101696019D01*
X169168552Y-101696019D02*
X169168552Y-100696019D01*
X169168552Y-100696019D02*
X169073314Y-100838876D01*
X169073314Y-100838876D02*
X168978076Y-100934114D01*
X168978076Y-100934114D02*
X168882838Y-100981733D01*
X174238095Y-44754819D02*
X174238095Y-43754819D01*
X174238095Y-44231009D02*
X174809523Y-44231009D01*
X174809523Y-44754819D02*
X174809523Y-43754819D01*
X175238095Y-43850057D02*
X175285714Y-43802438D01*
X175285714Y-43802438D02*
X175380952Y-43754819D01*
X175380952Y-43754819D02*
X175619047Y-43754819D01*
X175619047Y-43754819D02*
X175714285Y-43802438D01*
X175714285Y-43802438D02*
X175761904Y-43850057D01*
X175761904Y-43850057D02*
X175809523Y-43945295D01*
X175809523Y-43945295D02*
X175809523Y-44040533D01*
X175809523Y-44040533D02*
X175761904Y-44183390D01*
X175761904Y-44183390D02*
X175190476Y-44754819D01*
X175190476Y-44754819D02*
X175809523Y-44754819D01*
X174238095Y-139754819D02*
X174238095Y-138754819D01*
X174238095Y-139231009D02*
X174809523Y-139231009D01*
X174809523Y-139754819D02*
X174809523Y-138754819D01*
X175190476Y-138754819D02*
X175809523Y-138754819D01*
X175809523Y-138754819D02*
X175476190Y-139135771D01*
X175476190Y-139135771D02*
X175619047Y-139135771D01*
X175619047Y-139135771D02*
X175714285Y-139183390D01*
X175714285Y-139183390D02*
X175761904Y-139231009D01*
X175761904Y-139231009D02*
X175809523Y-139326247D01*
X175809523Y-139326247D02*
X175809523Y-139564342D01*
X175809523Y-139564342D02*
X175761904Y-139659580D01*
X175761904Y-139659580D02*
X175714285Y-139707200D01*
X175714285Y-139707200D02*
X175619047Y-139754819D01*
X175619047Y-139754819D02*
X175333333Y-139754819D01*
X175333333Y-139754819D02*
X175238095Y-139707200D01*
X175238095Y-139707200D02*
X175190476Y-139659580D01*
D10*
X118610000Y-132610000D02*
X136390000Y-132610000D01*
X136390000Y-97050000D01*
X118610000Y-97050000D01*
X118610000Y-132610000D01*
X97300800Y-106598600D02*
X101800800Y-106598600D01*
X99550800Y-104348600D02*
X99550800Y-108848600D01*
X101800800Y-106598600D02*
G75*
G02*
X97300800Y-106598600I-2250000J0D01*
G01*
X97300800Y-106598600D02*
G75*
G02*
X101800800Y-106598600I2250000J0D01*
G01*
X153199200Y-123558600D02*
X157699200Y-123558600D01*
X155449200Y-121308600D02*
X155449200Y-125808600D01*
X157699200Y-123558600D02*
G75*
G02*
X153199200Y-123558600I-2250000J0D01*
G01*
X153199200Y-123558600D02*
G75*
G02*
X157699200Y-123558600I2250000J0D01*
G01*
X97300800Y-138558600D02*
X101800800Y-138558600D01*
X99550800Y-136308600D02*
X99550800Y-140808600D01*
X101800800Y-138558600D02*
G75*
G02*
X97300800Y-138558600I-2250000J0D01*
G01*
X97300800Y-138558600D02*
G75*
G02*
X101800800Y-138558600I2250000J0D01*
G01*
X105780800Y-115078600D02*
X110280800Y-115078600D01*
X108030800Y-112828600D02*
X108030800Y-117328600D01*
X110280800Y-115078600D02*
G75*
G02*
X105780800Y-115078600I-2250000J0D01*
G01*
X105780800Y-115078600D02*
G75*
G02*
X110280800Y-115078600I2250000J0D01*
G01*
X144719200Y-115078600D02*
X149219200Y-115078600D01*
X146969200Y-112828600D02*
X146969200Y-117328600D01*
X149219200Y-115078600D02*
G75*
G02*
X144719200Y-115078600I-2250000J0D01*
G01*
X144719200Y-115078600D02*
G75*
G02*
X149219200Y-115078600I2250000J0D01*
G01*
X97300800Y-123558600D02*
X101800800Y-123558600D01*
X99550800Y-121308600D02*
X99550800Y-125808600D01*
X101800800Y-123558600D02*
G75*
G02*
X97300800Y-123558600I-2250000J0D01*
G01*
X97300800Y-123558600D02*
G75*
G02*
X101800800Y-123558600I2250000J0D01*
G01*
X153199200Y-138558600D02*
X157699200Y-138558600D01*
X155449200Y-136308600D02*
X155449200Y-140808600D01*
X157699200Y-138558600D02*
G75*
G02*
X153199200Y-138558600I-2250000J0D01*
G01*
X153199200Y-138558600D02*
G75*
G02*
X157699200Y-138558600I2250000J0D01*
G01*
X153199200Y-106598600D02*
X157699200Y-106598600D01*
X155449200Y-104348600D02*
X155449200Y-108848600D01*
X157699200Y-106598600D02*
G75*
G02*
X153199200Y-106598600I-2250000J0D01*
G01*
X153199200Y-106598600D02*
G75*
G02*
X157699200Y-106598600I2250000J0D01*
G01*
X88820800Y-115078600D02*
X93320800Y-115078600D01*
X91070800Y-112828600D02*
X91070800Y-117328600D01*
X93320800Y-115078600D02*
G75*
G02*
X88820800Y-115078600I-2250000J0D01*
G01*
X88820800Y-115078600D02*
G75*
G02*
X93320800Y-115078600I2250000J0D01*
G01*
X109300800Y-138558600D02*
X113800800Y-138558600D01*
X111550800Y-136308600D02*
X111550800Y-140808600D01*
X113800800Y-138558600D02*
G75*
G02*
X109300800Y-138558600I-2250000J0D01*
G01*
X109300800Y-138558600D02*
G75*
G02*
X113800800Y-138558600I2250000J0D01*
G01*
X161679200Y-115078600D02*
X166179200Y-115078600D01*
X163929200Y-112828600D02*
X163929200Y-117328600D01*
X166179200Y-115078600D02*
G75*
G02*
X161679200Y-115078600I-2250000J0D01*
G01*
X161679200Y-115078600D02*
G75*
G02*
X166179200Y-115078600I2250000J0D01*
G01*
X141199200Y-138558600D02*
X145699200Y-138558600D01*
X143449200Y-136308600D02*
X143449200Y-140808600D01*
X145699200Y-138558600D02*
G75*
G02*
X141199200Y-138558600I-2250000J0D01*
G01*
X141199200Y-138558600D02*
G75*
G02*
X145699200Y-138558600I2250000J0D01*
G01*
D12*
X84108800Y-48791200D02*
X85438800Y-48791200D01*
X84108800Y-50121200D02*
X84108800Y-48791200D01*
X86768800Y-51391200D02*
X86768800Y-84956200D01*
X84108800Y-51391200D02*
X86768800Y-51391200D01*
X84108800Y-51391200D02*
X84108800Y-84956200D01*
X167808800Y-61356200D02*
X169138800Y-61356200D01*
X167808800Y-62686200D02*
X167808800Y-61356200D01*
X170468800Y-63956200D02*
X170468800Y-71636200D01*
X167808800Y-63956200D02*
X170468800Y-63956200D01*
X167808800Y-63956200D02*
X167808800Y-71636200D01*
X167808800Y-71636200D02*
X170468800Y-71636200D01*
X84108800Y-84956200D02*
X86768800Y-84956200D01*
X82937200Y-98067200D02*
X82937200Y-104607200D01*
X82937200Y-104607200D02*
X83267200Y-104607200D01*
X83267200Y-98067200D02*
X82937200Y-98067200D01*
X85347200Y-98067200D02*
X85677200Y-98067200D01*
X85677200Y-98067200D02*
X85677200Y-104607200D01*
X85677200Y-104607200D02*
X85347200Y-104607200D01*
X139441400Y-96990200D02*
X139441400Y-99650200D01*
X167441400Y-96990200D02*
X139441400Y-96990200D01*
X167441400Y-96990200D02*
X167441400Y-99650200D01*
X167441400Y-99650200D02*
X139441400Y-99650200D01*
X168711400Y-96990200D02*
X170041400Y-96990200D01*
X170041400Y-96990200D02*
X170041400Y-98320200D01*
%LPC*%
D13*
X135120000Y-128800000D03*
X135120000Y-126260000D03*
X135120000Y-123720000D03*
X135120000Y-121180000D03*
X135120000Y-118640000D03*
X135120000Y-116100000D03*
X135120000Y-113560000D03*
X135120000Y-111020000D03*
X135120000Y-108480000D03*
X135120000Y-105940000D03*
X135120000Y-103400000D03*
X135120000Y-100860000D03*
X135120000Y-98320000D03*
X119880000Y-98320000D03*
X119880000Y-100860000D03*
X119880000Y-103400000D03*
X119880000Y-105940000D03*
X119880000Y-108480000D03*
X119880000Y-111020000D03*
X119880000Y-113560000D03*
X119880000Y-116100000D03*
X119880000Y-118640000D03*
X119880000Y-121180000D03*
X119880000Y-123720000D03*
X119880000Y-126260000D03*
X130040000Y-98320000D03*
X135120000Y-131340000D03*
X119880000Y-128800000D03*
X127500000Y-98320000D03*
X119880000Y-131340000D03*
X132580000Y-98320000D03*
X124960000Y-98320000D03*
X122420000Y-98320000D03*
D14*
X96300800Y-104348600D03*
X102800800Y-104348600D03*
X96300800Y-108848600D03*
X102800800Y-108848600D03*
X152199200Y-121308600D03*
X158699200Y-121308600D03*
X152199200Y-125808600D03*
X158699200Y-125808600D03*
X96300800Y-136308600D03*
X102800800Y-136308600D03*
X96300800Y-140808600D03*
X102800800Y-140808600D03*
X104780800Y-112828600D03*
X111280800Y-112828600D03*
X104780800Y-117328600D03*
X111280800Y-117328600D03*
X143719200Y-112828600D03*
X150219200Y-112828600D03*
X143719200Y-117328600D03*
X150219200Y-117328600D03*
X96300800Y-121308600D03*
X102800800Y-121308600D03*
X96300800Y-125808600D03*
X102800800Y-125808600D03*
X152199200Y-136308600D03*
X158699200Y-136308600D03*
X152199200Y-140808600D03*
X158699200Y-140808600D03*
X152199200Y-104348600D03*
X158699200Y-104348600D03*
X152199200Y-108848600D03*
X158699200Y-108848600D03*
X87820800Y-112828600D03*
X94320800Y-112828600D03*
X87820800Y-117328600D03*
X94320800Y-117328600D03*
X108300800Y-136308600D03*
X114800800Y-136308600D03*
X108300800Y-140808600D03*
X114800800Y-140808600D03*
X160679200Y-112828600D03*
X167179200Y-112828600D03*
X160679200Y-117328600D03*
X167179200Y-117328600D03*
X140199200Y-136308600D03*
X146699200Y-136308600D03*
X140199200Y-140808600D03*
X146699200Y-140808600D03*
D15*
X85338800Y-50056200D03*
D13*
X85338800Y-52596200D03*
X85338800Y-55136200D03*
X85338800Y-57676200D03*
X85338800Y-60216200D03*
X85338800Y-62756200D03*
X85338800Y-65296200D03*
X85338800Y-67836200D03*
X85338800Y-70376200D03*
X85338800Y-72916200D03*
X85338800Y-75456200D03*
X85338800Y-77996200D03*
X85338800Y-80536200D03*
X85338800Y-83076200D03*
D15*
X169138800Y-62666200D03*
D13*
X169138800Y-65206200D03*
X169138800Y-67746200D03*
X169138800Y-70286200D03*
D16*
X84307200Y-97527200D03*
D17*
X84307200Y-105147200D03*
D18*
X80000000Y-47500000D03*
X80000000Y-142500000D03*
D15*
X168711400Y-98320200D03*
D13*
X166171400Y-98320200D03*
X163631400Y-98320200D03*
X161091400Y-98320200D03*
X158551400Y-98320200D03*
X156011400Y-98320200D03*
X153471400Y-98320200D03*
X150931400Y-98320200D03*
X148391400Y-98320200D03*
X145851400Y-98320200D03*
X143311400Y-98320200D03*
X140771400Y-98320200D03*
D18*
X175000000Y-47500000D03*
X175000000Y-142500000D03*
D15*
X127500000Y-91431200D03*
D13*
X127500000Y-71111200D03*
%LPD*%
M02*
