G04 #@! TF.GenerationSoftware,KiCad,Pcbnew,8.0.4*
G04 #@! TF.CreationDate,2024-09-17T15:57:22+09:30*
G04 #@! TF.ProjectId,handheld game console,68616e64-6865-46c6-9420-67616d652063,0*
G04 #@! TF.SameCoordinates,Original*
G04 #@! TF.FileFunction,Legend,Bot*
G04 #@! TF.FilePolarity,Positive*
%FSLAX46Y46*%
G04 Gerber Fmt 4.6, Leading zero omitted, Abs format (unit mm)*
G04 Created by KiCad (PCBNEW 8.0.4) date 2024-09-17 15:57:22*
%MOMM*%
%LPD*%
G01*
G04 APERTURE LIST*
%ADD10C,0.100000*%
%ADD11C,0.150000*%
%ADD12C,0.000000*%
%ADD13O,1.700000X1.700000*%
%ADD14C,2.000000*%
%ADD15R,1.700000X1.700000*%
%ADD16C,1.600000*%
%ADD17O,1.600000X1.600000*%
%ADD18C,2.200000*%
G04 APERTURE END LIST*
D10*
X125224914Y-91212609D02*
X125082057Y-91260228D01*
X125082057Y-91260228D02*
X125034438Y-91307847D01*
X125034438Y-91307847D02*
X124986819Y-91403085D01*
X124986819Y-91403085D02*
X124986819Y-91545942D01*
X124986819Y-91545942D02*
X125034438Y-91641180D01*
X125034438Y-91641180D02*
X125082057Y-91688800D01*
X125082057Y-91688800D02*
X125177295Y-91736419D01*
X125177295Y-91736419D02*
X125558247Y-91736419D01*
X125558247Y-91736419D02*
X125558247Y-90736419D01*
X125558247Y-90736419D02*
X125224914Y-90736419D01*
X125224914Y-90736419D02*
X125129676Y-90784038D01*
X125129676Y-90784038D02*
X125082057Y-90831657D01*
X125082057Y-90831657D02*
X125034438Y-90926895D01*
X125034438Y-90926895D02*
X125034438Y-91022133D01*
X125034438Y-91022133D02*
X125082057Y-91117371D01*
X125082057Y-91117371D02*
X125129676Y-91164990D01*
X125129676Y-91164990D02*
X125224914Y-91212609D01*
X125224914Y-91212609D02*
X125558247Y-91212609D01*
X124701104Y-90736419D02*
X124129676Y-90736419D01*
X124415390Y-91736419D02*
X124415390Y-90736419D01*
X123272533Y-91736419D02*
X123843961Y-91736419D01*
X123558247Y-91736419D02*
X123558247Y-90736419D01*
X123558247Y-90736419D02*
X123653485Y-90879276D01*
X123653485Y-90879276D02*
X123748723Y-90974514D01*
X123748723Y-90974514D02*
X123843961Y-91022133D01*
D11*
X129573866Y-91050248D02*
X129573866Y-91812153D01*
X129954819Y-91431200D02*
X129192914Y-91431200D01*
D12*
G36*
X106066615Y-84658679D02*
G01*
X106069156Y-84868805D01*
X106070789Y-85075476D01*
X106069956Y-85225118D01*
X106065899Y-85326928D01*
X106057861Y-85390103D01*
X106045085Y-85423840D01*
X106026813Y-85437338D01*
X106002288Y-85439794D01*
X105980161Y-85438364D01*
X105951925Y-85422543D01*
X105936241Y-85377201D01*
X105929487Y-85287680D01*
X105928040Y-85139320D01*
X105928040Y-84838845D01*
X105841337Y-84920299D01*
X105809873Y-84947473D01*
X105654633Y-85029323D01*
X105487525Y-85049254D01*
X105325283Y-85010566D01*
X105184637Y-84916561D01*
X105082319Y-84770540D01*
X105068487Y-84736947D01*
X105027280Y-84589404D01*
X105010697Y-84447319D01*
X105012046Y-84412400D01*
X105015770Y-84389771D01*
X105161448Y-84389771D01*
X105166254Y-84561233D01*
X105208141Y-84721228D01*
X105212766Y-84731813D01*
X105270220Y-84825372D01*
X105334379Y-84885460D01*
X105343469Y-84890069D01*
X105474235Y-84922076D01*
X105619375Y-84913151D01*
X105739953Y-84865236D01*
X105742900Y-84863145D01*
X105841105Y-84753298D01*
X105901923Y-84604910D01*
X105924846Y-84438034D01*
X105909367Y-84272724D01*
X105854978Y-84129036D01*
X105761171Y-84027024D01*
X105735804Y-84012707D01*
X105605459Y-83976320D01*
X105458506Y-83974593D01*
X105334379Y-84009178D01*
X105333506Y-84009648D01*
X105248674Y-84093672D01*
X105190121Y-84227149D01*
X105161448Y-84389771D01*
X105015770Y-84389771D01*
X105036618Y-84263092D01*
X105082319Y-84124098D01*
X105125256Y-84043057D01*
X105203907Y-83957671D01*
X105325965Y-83890195D01*
X105335135Y-83886160D01*
X105449125Y-83843563D01*
X105537007Y-83834415D01*
X105633513Y-83854705D01*
X105646206Y-83858744D01*
X105756010Y-83909720D01*
X105839033Y-83972653D01*
X105909028Y-84049997D01*
X105929381Y-83963781D01*
X105954703Y-83908830D01*
X106003214Y-83877565D01*
X106014021Y-83880623D01*
X106029804Y-83904555D01*
X106041860Y-83959432D01*
X106050877Y-84053769D01*
X106057548Y-84196080D01*
X106062564Y-84394878D01*
X106063227Y-84438034D01*
X106066615Y-84658679D01*
G37*
G36*
X108224221Y-83432141D02*
G01*
X108379874Y-83490114D01*
X108474763Y-83565494D01*
X108564027Y-83696769D01*
X108598578Y-83842148D01*
X108575373Y-83984779D01*
X108491370Y-84107806D01*
X108461024Y-84129286D01*
X108360496Y-84178270D01*
X108220005Y-84231946D01*
X108060023Y-84282046D01*
X107970125Y-84308471D01*
X107823003Y-84357507D01*
X107708721Y-84402954D01*
X107646492Y-84437585D01*
X107628782Y-84455616D01*
X107582509Y-84557360D01*
X107593327Y-84673028D01*
X107655982Y-84783501D01*
X107765221Y-84869659D01*
X107775731Y-84874921D01*
X107931273Y-84920162D01*
X108094112Y-84918155D01*
X108248381Y-84875406D01*
X108378216Y-84798425D01*
X108467752Y-84693718D01*
X108501123Y-84567794D01*
X108515155Y-84507812D01*
X108574639Y-84484077D01*
X108612711Y-84494782D01*
X108646299Y-84554279D01*
X108640915Y-84652359D01*
X108595442Y-84773457D01*
X108579821Y-84802298D01*
X108505266Y-84901374D01*
X108403329Y-84968942D01*
X108250953Y-85021613D01*
X108105316Y-85047842D01*
X107910241Y-85044962D01*
X107731364Y-85002835D01*
X107586312Y-84926157D01*
X107492710Y-84819623D01*
X107492536Y-84819285D01*
X107451988Y-84701582D01*
X107435131Y-84574971D01*
X107438863Y-84519240D01*
X107480960Y-84402873D01*
X107575478Y-84307649D01*
X107729410Y-84227900D01*
X107949748Y-84157961D01*
X108001437Y-84144179D01*
X108150219Y-84101680D01*
X108272520Y-84062784D01*
X108345892Y-84034487D01*
X108368285Y-84021831D01*
X108441011Y-83940697D01*
X108457678Y-83838531D01*
X108422740Y-83731375D01*
X108340652Y-83635268D01*
X108215868Y-83566253D01*
X108099853Y-83539497D01*
X107928611Y-83551631D01*
X107782367Y-83625991D01*
X107674061Y-83758001D01*
X107667766Y-83769303D01*
X107607687Y-83846499D01*
X107543630Y-83892099D01*
X107492671Y-83897864D01*
X107471890Y-83855551D01*
X107478242Y-83809770D01*
X107530162Y-83695104D01*
X107619057Y-83582343D01*
X107726345Y-83497623D01*
X107851832Y-83446596D01*
X108038557Y-83417746D01*
X108224221Y-83432141D01*
G37*
G36*
X107268720Y-84480375D02*
G01*
X107238227Y-84661323D01*
X107165353Y-84823878D01*
X107051558Y-84953192D01*
X106898301Y-85034419D01*
X106862189Y-85043649D01*
X106695495Y-85049347D01*
X106533826Y-85004041D01*
X106398569Y-84916443D01*
X106311107Y-84795262D01*
X106279900Y-84718504D01*
X106263522Y-84658188D01*
X106280253Y-84634939D01*
X106332382Y-84631111D01*
X106375257Y-84640581D01*
X106405898Y-84681236D01*
X106406772Y-84688829D01*
X106438852Y-84751770D01*
X106502807Y-84828269D01*
X106579108Y-84886762D01*
X106719352Y-84929106D01*
X106864297Y-84905973D01*
X106996859Y-84817730D01*
X107019119Y-84794276D01*
X107079904Y-84714501D01*
X107104307Y-84655324D01*
X107106345Y-84627124D01*
X107126618Y-84542221D01*
X107128978Y-84534934D01*
X107124740Y-84512577D01*
X107091150Y-84497831D01*
X107017171Y-84489178D01*
X106891766Y-84485099D01*
X106703898Y-84484077D01*
X106258865Y-84484077D01*
X106258922Y-84364613D01*
X106258923Y-84363975D01*
X106275204Y-84279079D01*
X106405898Y-84279079D01*
X106405898Y-84373802D01*
X106770916Y-84373802D01*
X107135933Y-84373802D01*
X107102388Y-84254338D01*
X107099734Y-84245237D01*
X107025585Y-84102750D01*
X106914003Y-84009894D01*
X106780857Y-83971448D01*
X106642015Y-83992193D01*
X106513346Y-84076908D01*
X106507517Y-84082850D01*
X106434192Y-84184120D01*
X106405898Y-84279079D01*
X106275204Y-84279079D01*
X106290162Y-84201085D01*
X106371892Y-84042109D01*
X106487197Y-83919999D01*
X106568066Y-83878478D01*
X106719276Y-83848943D01*
X106877408Y-83858778D01*
X107009001Y-83908709D01*
X107091308Y-83975626D01*
X107196720Y-84122680D01*
X107255371Y-84295878D01*
X107261009Y-84373802D01*
X107268720Y-84480375D01*
G37*
G36*
X102356129Y-84360755D02*
G01*
X102320955Y-84609267D01*
X102243885Y-84807496D01*
X102126939Y-84950808D01*
X101972135Y-85034566D01*
X101843698Y-85054921D01*
X101670322Y-85024094D01*
X101514886Y-84929253D01*
X101389754Y-84775890D01*
X101363135Y-84718467D01*
X101322893Y-84560670D01*
X101301513Y-84366807D01*
X101300429Y-84239121D01*
X101443525Y-84239121D01*
X101443593Y-84264398D01*
X101452110Y-84472194D01*
X101477974Y-84626407D01*
X101525603Y-84744134D01*
X101599414Y-84842471D01*
X101627199Y-84868377D01*
X101745305Y-84923762D01*
X101876634Y-84922385D01*
X102003911Y-84870342D01*
X102109864Y-84773725D01*
X102177220Y-84638628D01*
X102187104Y-84596890D01*
X102208235Y-84428027D01*
X102213412Y-84230898D01*
X102202684Y-84038635D01*
X102176100Y-83884368D01*
X102165006Y-83848484D01*
X102084629Y-83698137D01*
X101971223Y-83604996D01*
X101834546Y-83574464D01*
X101684353Y-83611948D01*
X101661995Y-83623408D01*
X101560822Y-83706258D01*
X101493171Y-83830021D01*
X101455315Y-84004405D01*
X101443525Y-84239121D01*
X101300429Y-84239121D01*
X101299762Y-84160493D01*
X101318408Y-83965342D01*
X101358217Y-83804967D01*
X101401046Y-83711680D01*
X101519711Y-83563686D01*
X101672680Y-83477942D01*
X101851835Y-83457947D01*
X102049052Y-83507201D01*
X102140183Y-83563111D01*
X102247174Y-83699657D01*
X102318964Y-83898111D01*
X102354565Y-84156376D01*
X102355135Y-84230898D01*
X102356129Y-84360755D01*
G37*
G36*
X104644931Y-83528387D02*
G01*
X104689518Y-83540845D01*
X104710054Y-83588897D01*
X104715016Y-83691332D01*
X104715353Y-83733880D01*
X104723860Y-83815162D01*
X104753293Y-83852012D01*
X104816101Y-83865934D01*
X104884287Y-83886549D01*
X104917186Y-83932702D01*
X104893776Y-83972588D01*
X104816101Y-83999471D01*
X104715016Y-84011102D01*
X104715016Y-84466055D01*
X104714671Y-84607305D01*
X104711944Y-84754605D01*
X104704625Y-84851683D01*
X104690534Y-84912202D01*
X104667493Y-84949829D01*
X104633320Y-84978230D01*
X104546828Y-85021577D01*
X104450295Y-85036766D01*
X104376709Y-85016480D01*
X104347432Y-84961935D01*
X104348570Y-84942958D01*
X104376990Y-84899972D01*
X104457707Y-84888419D01*
X104567982Y-84888419D01*
X104567982Y-84447319D01*
X104567982Y-84006219D01*
X104457707Y-84006219D01*
X104429241Y-84005461D01*
X104364762Y-83986514D01*
X104347432Y-83932702D01*
X104348570Y-83913725D01*
X104376990Y-83870739D01*
X104457707Y-83859186D01*
X104499310Y-83858251D01*
X104546328Y-83843663D01*
X104564786Y-83795488D01*
X104567982Y-83693773D01*
X104568010Y-83681890D01*
X104573832Y-83584124D01*
X104595557Y-83539184D01*
X104641499Y-83528361D01*
X104644931Y-83528387D01*
G37*
G36*
X103206454Y-83477650D02*
G01*
X103311222Y-83527120D01*
X103315492Y-83529846D01*
X103403890Y-83608372D01*
X103473807Y-83708696D01*
X103520072Y-83814730D01*
X103537512Y-83910388D01*
X103520956Y-83979580D01*
X103465233Y-84006219D01*
X103451328Y-84005636D01*
X103404510Y-83979376D01*
X103391716Y-83900901D01*
X103364699Y-83774317D01*
X103283352Y-83665633D01*
X103164235Y-83597294D01*
X103024171Y-83578580D01*
X102879986Y-83618764D01*
X102780293Y-83696357D01*
X102713821Y-83824460D01*
X102712978Y-83975340D01*
X102744582Y-84044500D01*
X102844787Y-84164359D01*
X103010555Y-84314199D01*
X103241268Y-84493412D01*
X103245627Y-84496632D01*
X103407812Y-84635382D01*
X103509552Y-84770821D01*
X103561513Y-84917056D01*
X103585125Y-85037589D01*
X103075346Y-85027331D01*
X102943869Y-85024371D01*
X102777681Y-85018531D01*
X102666870Y-85010157D01*
X102600109Y-84997656D01*
X102566077Y-84979433D01*
X102553447Y-84953897D01*
X102552105Y-84942486D01*
X102561487Y-84919106D01*
X102598541Y-84903135D01*
X102674730Y-84892642D01*
X102801514Y-84885700D01*
X102990353Y-84880380D01*
X103439378Y-84870040D01*
X103334122Y-84745059D01*
X103279844Y-84688437D01*
X103164115Y-84588684D01*
X103039316Y-84498826D01*
X102925414Y-84421406D01*
X102737992Y-84261210D01*
X102620448Y-84102284D01*
X102570520Y-83941005D01*
X102585940Y-83773750D01*
X102595746Y-83741919D01*
X102678584Y-83597391D01*
X102811339Y-83505666D01*
X102996281Y-83465035D01*
X103087111Y-83461628D01*
X103206454Y-83477650D01*
G37*
G36*
X100736782Y-83480252D02*
G01*
X100897438Y-83555720D01*
X101009212Y-83682264D01*
X101065128Y-83853429D01*
X101068262Y-83877545D01*
X101073593Y-83962243D01*
X101055762Y-83998528D01*
X101007265Y-84006219D01*
X100987381Y-84005238D01*
X100941075Y-83978636D01*
X100928909Y-83900901D01*
X100928338Y-83884655D01*
X100888623Y-83757028D01*
X100801182Y-83648438D01*
X100686860Y-83586000D01*
X100610240Y-83578616D01*
X100485696Y-83598849D01*
X100373380Y-83646892D01*
X100303735Y-83712680D01*
X100298185Y-83723756D01*
X100268385Y-83857979D01*
X100284683Y-84005692D01*
X100343563Y-84130068D01*
X100381382Y-84171548D01*
X100479082Y-84258513D01*
X100591681Y-84342525D01*
X100805321Y-84501907D01*
X100974018Y-84666319D01*
X101077512Y-84820627D01*
X101112700Y-84961147D01*
X101112617Y-84969007D01*
X101107431Y-84997041D01*
X101085900Y-85015752D01*
X101036593Y-85026635D01*
X100948083Y-85031190D01*
X100808938Y-85030912D01*
X100607730Y-85027300D01*
X100472875Y-85024240D01*
X100309357Y-85018405D01*
X100200788Y-85009987D01*
X100135732Y-84997336D01*
X100102754Y-84978805D01*
X100090418Y-84952746D01*
X100088864Y-84939486D01*
X100098088Y-84916487D01*
X100134395Y-84901612D01*
X100209391Y-84893129D01*
X100334681Y-84889308D01*
X100521872Y-84888419D01*
X100528625Y-84888417D01*
X100698588Y-84886782D01*
X100837524Y-84882541D01*
X100931271Y-84876320D01*
X100965667Y-84868746D01*
X100950885Y-84822556D01*
X100882511Y-84734167D01*
X100769061Y-84630939D01*
X100622234Y-84524596D01*
X100490584Y-84435247D01*
X100328892Y-84307004D01*
X100220770Y-84188197D01*
X100157105Y-84067948D01*
X100128789Y-83935379D01*
X100129998Y-83804060D01*
X100181879Y-83646754D01*
X100288451Y-83534403D01*
X100444383Y-83471882D01*
X100644344Y-83464064D01*
X100736782Y-83480252D01*
G37*
G36*
X99919309Y-84525716D02*
G01*
X99932963Y-84558601D01*
X99936434Y-84580934D01*
X99936316Y-84583449D01*
X99916762Y-84606512D01*
X99856200Y-84621161D01*
X99743829Y-84628869D01*
X99568851Y-84631111D01*
X99201267Y-84631111D01*
X99201267Y-84835977D01*
X99200660Y-84899575D01*
X99193477Y-84987717D01*
X99173978Y-85025516D01*
X99136940Y-85028614D01*
X99099457Y-85007280D01*
X99074450Y-84944076D01*
X99061503Y-84823747D01*
X99054356Y-84726015D01*
X99038981Y-84660965D01*
X99005363Y-84635493D01*
X98942038Y-84631111D01*
X98866468Y-84619802D01*
X98833684Y-84575973D01*
X98856146Y-84537401D01*
X98942950Y-84520836D01*
X99052216Y-84520836D01*
X99062414Y-83997489D01*
X99063615Y-83940393D01*
X99201070Y-83940393D01*
X99201267Y-84108617D01*
X99201267Y-84520836D01*
X99498076Y-84520836D01*
X99794884Y-84520836D01*
X99547947Y-84162442D01*
X99494992Y-84085434D01*
X99379917Y-83919027D01*
X99299532Y-83810795D01*
X99247646Y-83759776D01*
X99218068Y-83765011D01*
X99204607Y-83825537D01*
X99201070Y-83940393D01*
X99063615Y-83940393D01*
X99063966Y-83923679D01*
X99071659Y-83707475D01*
X99086252Y-83561418D01*
X99112351Y-83482883D01*
X99154562Y-83469247D01*
X99217490Y-83517883D01*
X99305740Y-83626169D01*
X99423918Y-83791478D01*
X99528194Y-83941000D01*
X99665664Y-84138938D01*
X99768651Y-84288892D01*
X99842014Y-84398348D01*
X99890613Y-84474794D01*
X99916559Y-84520836D01*
X99919309Y-84525716D01*
G37*
G36*
X153688390Y-61516483D02*
G01*
X153671312Y-61860050D01*
X153644827Y-62171756D01*
X153609243Y-62432069D01*
X153480167Y-63045163D01*
X153270459Y-63758795D01*
X152999893Y-64445424D01*
X152665946Y-65109977D01*
X152266092Y-65757380D01*
X151797808Y-66392561D01*
X151258570Y-67020447D01*
X151205465Y-67077592D01*
X150830275Y-67454184D01*
X150405223Y-67840720D01*
X149945477Y-68225386D01*
X149466203Y-68596371D01*
X148982570Y-68941865D01*
X148509743Y-69250055D01*
X148062890Y-69509129D01*
X148021589Y-69531557D01*
X147906918Y-69596460D01*
X147826790Y-69645856D01*
X147796512Y-69670474D01*
X147797282Y-69672282D01*
X147837515Y-69697449D01*
X147926724Y-69740144D01*
X148048087Y-69792227D01*
X148120158Y-69823712D01*
X148285915Y-69904173D01*
X148470364Y-70001338D01*
X148645290Y-70100633D01*
X148648986Y-70102831D01*
X149170368Y-70449907D01*
X149634288Y-70835603D01*
X150038400Y-71257169D01*
X150380361Y-71711854D01*
X150657827Y-72196907D01*
X150868453Y-72709577D01*
X150965702Y-73044044D01*
X151068625Y-73601017D01*
X151109784Y-74188844D01*
X151089440Y-74802412D01*
X151007854Y-75436611D01*
X150865287Y-76086328D01*
X150662001Y-76746451D01*
X150497443Y-77159881D01*
X150208063Y-77730141D01*
X149850887Y-78292497D01*
X149429237Y-78843056D01*
X148946430Y-79377923D01*
X148405788Y-79893203D01*
X147810631Y-80385001D01*
X147164278Y-80849424D01*
X147150902Y-80858374D01*
X146321870Y-81368316D01*
X145447280Y-81820940D01*
X144527904Y-82216006D01*
X143564513Y-82553270D01*
X142557877Y-82832492D01*
X141508769Y-83053429D01*
X140417958Y-83215840D01*
X139286217Y-83319483D01*
X139164509Y-83325208D01*
X138960316Y-83330643D01*
X138705078Y-83334511D01*
X138411073Y-83336859D01*
X138090583Y-83337737D01*
X137755888Y-83337194D01*
X137419268Y-83335280D01*
X137093004Y-83332044D01*
X136789376Y-83327535D01*
X136520665Y-83321802D01*
X136299151Y-83314894D01*
X136137115Y-83306861D01*
X136016110Y-83298511D01*
X134763714Y-83182642D01*
X133516838Y-83014467D01*
X132279957Y-82795754D01*
X131057543Y-82528269D01*
X129854070Y-82213780D01*
X128674013Y-81854052D01*
X127521845Y-81450853D01*
X126402039Y-81005950D01*
X125319069Y-80521110D01*
X124277408Y-79998100D01*
X123281531Y-79438686D01*
X122335911Y-78844636D01*
X121445022Y-78217715D01*
X120613337Y-77559692D01*
X119845330Y-76872334D01*
X119455102Y-76499761D01*
X119454845Y-76935552D01*
X119448629Y-77161342D01*
X119394045Y-77609539D01*
X119280247Y-78024323D01*
X119103665Y-78414438D01*
X118860726Y-78788627D01*
X118547859Y-79155631D01*
X118357082Y-79342097D01*
X117943007Y-79673558D01*
X117475525Y-79964554D01*
X116960544Y-80214070D01*
X116403976Y-80421088D01*
X115811730Y-80584592D01*
X115189717Y-80703567D01*
X114543846Y-80776996D01*
X113880028Y-80803862D01*
X113204172Y-80783150D01*
X112522190Y-80713843D01*
X111839990Y-80594926D01*
X111163484Y-80425381D01*
X111156157Y-80423248D01*
X110396310Y-80166337D01*
X109676865Y-79851072D01*
X109000319Y-79479312D01*
X108369165Y-79052916D01*
X107785901Y-78573743D01*
X107253019Y-78043652D01*
X106773017Y-77464503D01*
X106348390Y-76838153D01*
X106149769Y-76490470D01*
X105842762Y-75844777D01*
X105584705Y-75148741D01*
X105377030Y-74406451D01*
X105221171Y-73621993D01*
X105198480Y-73474584D01*
X105178719Y-73324737D01*
X105163723Y-73175404D01*
X105152858Y-73014246D01*
X105145490Y-72828927D01*
X105140985Y-72607109D01*
X105138709Y-72336454D01*
X105138027Y-72004627D01*
X105138070Y-71909807D01*
X105139894Y-71550554D01*
X105144765Y-71248953D01*
X105153209Y-70992209D01*
X105165747Y-70767522D01*
X105182905Y-70562096D01*
X105205205Y-70363134D01*
X105272674Y-69824390D01*
X105044546Y-69554451D01*
X104921647Y-69407038D01*
X104460207Y-68819947D01*
X103990822Y-68172348D01*
X103518912Y-67473287D01*
X103049902Y-66731809D01*
X102589214Y-65956961D01*
X102142272Y-65157787D01*
X101714498Y-64343334D01*
X101311314Y-63522647D01*
X100938145Y-62704772D01*
X100784114Y-62347513D01*
X100449885Y-61526992D01*
X100156528Y-60738687D01*
X99904565Y-59985105D01*
X99694516Y-59268752D01*
X99526902Y-58592135D01*
X99402246Y-57957760D01*
X99321067Y-57368133D01*
X99283888Y-56825761D01*
X99287819Y-56561930D01*
X99698273Y-56561930D01*
X99709780Y-57018521D01*
X99759336Y-57521082D01*
X99846455Y-58066822D01*
X99970651Y-58652952D01*
X100131436Y-59276684D01*
X100328326Y-59935226D01*
X100560833Y-60625790D01*
X100828472Y-61345587D01*
X101130757Y-62091827D01*
X101467200Y-62861719D01*
X101552725Y-63048951D01*
X101930882Y-63839673D01*
X102334461Y-64628197D01*
X102758176Y-65405852D01*
X103196744Y-66163969D01*
X103644878Y-66893877D01*
X104097294Y-67586906D01*
X104548706Y-68234388D01*
X104993829Y-68827652D01*
X105427379Y-69358028D01*
X105711491Y-69688853D01*
X105690694Y-69872645D01*
X105690496Y-69874387D01*
X105677512Y-69984086D01*
X105657809Y-70144865D01*
X105634028Y-70335382D01*
X105608812Y-70534294D01*
X105601418Y-70595444D01*
X105573067Y-70913520D01*
X105554047Y-71278470D01*
X105544238Y-71673165D01*
X105543522Y-72080477D01*
X105551782Y-72483279D01*
X105568899Y-72864442D01*
X105594755Y-73206838D01*
X105629232Y-73493339D01*
X105749808Y-74151516D01*
X105928964Y-74852167D01*
X106155501Y-75506873D01*
X106432589Y-76123511D01*
X106763400Y-76709960D01*
X107151107Y-77274101D01*
X107229886Y-77376877D01*
X107685620Y-77901115D01*
X108196071Y-78381663D01*
X108755921Y-78816247D01*
X109359851Y-79202590D01*
X110002542Y-79538417D01*
X110678678Y-79821452D01*
X111382939Y-80049419D01*
X112110006Y-80220043D01*
X112854563Y-80331049D01*
X113611290Y-80380160D01*
X114374869Y-80365100D01*
X114886245Y-80318562D01*
X115510145Y-80219274D01*
X116094926Y-80077327D01*
X116637245Y-79894702D01*
X117133762Y-79673382D01*
X117581132Y-79415348D01*
X117976015Y-79122583D01*
X118315067Y-78797068D01*
X118594947Y-78440786D01*
X118812311Y-78055718D01*
X118963819Y-77643847D01*
X118969407Y-77622920D01*
X119014574Y-77362992D01*
X119032003Y-77059450D01*
X119023054Y-76734130D01*
X118989092Y-76408869D01*
X118931480Y-76105504D01*
X118851580Y-75845872D01*
X118849557Y-75823555D01*
X118890886Y-75766955D01*
X118998588Y-75695543D01*
X119167267Y-75600351D01*
X119816612Y-76250763D01*
X119897182Y-76330909D01*
X120113952Y-76542011D01*
X120337902Y-76754520D01*
X120554454Y-76954879D01*
X120749032Y-77129529D01*
X120907056Y-77264912D01*
X121464941Y-77707622D01*
X122410153Y-78387378D01*
X123411679Y-79026597D01*
X124465447Y-79623737D01*
X125567389Y-80177254D01*
X126713434Y-80685602D01*
X127899512Y-81147240D01*
X129121553Y-81560621D01*
X130375488Y-81924204D01*
X131657247Y-82236443D01*
X132962759Y-82495794D01*
X134287955Y-82700715D01*
X135628764Y-82849660D01*
X135694194Y-82855033D01*
X135912591Y-82868905D01*
X136184768Y-82881907D01*
X136498003Y-82893781D01*
X136839575Y-82904268D01*
X137196761Y-82913111D01*
X137556842Y-82920051D01*
X137907094Y-82924830D01*
X138234796Y-82927190D01*
X138527228Y-82926873D01*
X138771667Y-82923620D01*
X138955392Y-82917174D01*
X139517227Y-82879832D01*
X140602884Y-82766650D01*
X141639323Y-82601503D01*
X142629188Y-82383585D01*
X143575124Y-82112092D01*
X144479775Y-81786217D01*
X145345786Y-81405153D01*
X146175801Y-80968097D01*
X146972465Y-80474241D01*
X147124940Y-80370097D01*
X147651854Y-79977217D01*
X148155096Y-79551433D01*
X148625018Y-79102380D01*
X149051972Y-78639694D01*
X149426311Y-78173010D01*
X149738384Y-77711964D01*
X149832947Y-77550781D01*
X150101306Y-77012967D01*
X150324355Y-76436873D01*
X150498277Y-75837250D01*
X150619256Y-75228848D01*
X150683477Y-74626419D01*
X150687123Y-74044714D01*
X150642978Y-73572304D01*
X150537770Y-73054672D01*
X150372366Y-72573843D01*
X150143932Y-72123312D01*
X149849638Y-71696571D01*
X149486651Y-71287117D01*
X149126383Y-70952019D01*
X148733980Y-70651094D01*
X148312861Y-70392791D01*
X147852506Y-70171411D01*
X147342397Y-69981257D01*
X146772014Y-69816630D01*
X146723691Y-69803195D01*
X146650957Y-69776341D01*
X146630617Y-69757381D01*
X146632421Y-69755968D01*
X146679787Y-69730491D01*
X146778907Y-69681885D01*
X146916565Y-69616527D01*
X147079544Y-69540794D01*
X147657548Y-69251663D01*
X148280664Y-68891778D01*
X148898761Y-68487836D01*
X149498189Y-68049843D01*
X150065296Y-67587808D01*
X150586433Y-67111737D01*
X151047947Y-66631637D01*
X151090251Y-66583969D01*
X151601630Y-65961384D01*
X152042339Y-65330917D01*
X152414977Y-64687620D01*
X152722146Y-64026543D01*
X152966447Y-63342738D01*
X153150482Y-62631255D01*
X153162218Y-62575810D01*
X153190599Y-62435504D01*
X153212285Y-62310901D01*
X153228162Y-62189256D01*
X153239118Y-62057823D01*
X153246037Y-61903856D01*
X153249806Y-61714610D01*
X153251312Y-61477341D01*
X153251441Y-61179302D01*
X153251418Y-61153343D01*
X153250630Y-60857162D01*
X153248309Y-60620321D01*
X153243572Y-60429668D01*
X153235536Y-60272053D01*
X153223318Y-60134326D01*
X153206037Y-60003337D01*
X153182808Y-59865934D01*
X153152750Y-59708969D01*
X152996909Y-59041331D01*
X152779304Y-58323856D01*
X152514257Y-57612198D01*
X152208384Y-56922517D01*
X151868301Y-56270975D01*
X151500627Y-55673733D01*
X151316578Y-55411404D01*
X150838815Y-54817546D01*
X150294807Y-54249487D01*
X149686728Y-53708208D01*
X149016752Y-53194690D01*
X148287051Y-52709917D01*
X147499801Y-52254869D01*
X146657174Y-51830528D01*
X145761345Y-51437876D01*
X144814487Y-51077894D01*
X143818775Y-50751566D01*
X142776381Y-50459871D01*
X141689479Y-50203793D01*
X140560244Y-49984312D01*
X139390849Y-49802411D01*
X138183467Y-49659072D01*
X138083508Y-49649034D01*
X137762017Y-49617753D01*
X137469573Y-49591415D01*
X137195921Y-49569606D01*
X136930805Y-49551913D01*
X136663970Y-49537922D01*
X136385158Y-49527218D01*
X136084114Y-49519389D01*
X135750582Y-49514019D01*
X135374306Y-49510696D01*
X134945030Y-49509006D01*
X134452498Y-49508535D01*
X134156205Y-49508678D01*
X133700879Y-49509778D01*
X133302052Y-49512351D01*
X132948981Y-49516853D01*
X132630925Y-49523739D01*
X132337140Y-49533466D01*
X132056886Y-49546488D01*
X131779420Y-49563262D01*
X131494000Y-49584244D01*
X131189885Y-49609889D01*
X130856331Y-49640654D01*
X130482599Y-49676993D01*
X129275280Y-49814413D01*
X127689946Y-50050133D01*
X126122167Y-50346024D01*
X124576589Y-50700699D01*
X123057859Y-51112775D01*
X121570622Y-51580866D01*
X120119526Y-52103586D01*
X118709217Y-52679551D01*
X117344341Y-53307375D01*
X116029545Y-53985674D01*
X115585835Y-54232010D01*
X114407262Y-54930309D01*
X113288631Y-55660863D01*
X112223349Y-56428572D01*
X111204825Y-57238339D01*
X110226465Y-58095067D01*
X109281679Y-59003657D01*
X108500006Y-59790337D01*
X108251882Y-59556672D01*
X108159677Y-59471321D01*
X108013699Y-59338854D01*
X107839065Y-59182302D01*
X107650176Y-59014565D01*
X107461432Y-58848545D01*
X107211598Y-58631341D01*
X106449597Y-57986803D01*
X105724138Y-57401182D01*
X105035695Y-56874798D01*
X104384740Y-56407970D01*
X103771749Y-56001015D01*
X103197193Y-55654253D01*
X102661547Y-55368002D01*
X102165285Y-55142580D01*
X101708879Y-54978307D01*
X101663633Y-54964693D01*
X101501464Y-54922071D01*
X101349686Y-54895933D01*
X101180389Y-54882513D01*
X100965667Y-54878046D01*
X100894868Y-54878076D01*
X100676177Y-54886617D01*
X100507591Y-54912883D01*
X100371281Y-54962789D01*
X100249416Y-55042249D01*
X100124166Y-55157178D01*
X100042461Y-55251048D01*
X99896910Y-55495867D01*
X99791352Y-55797814D01*
X99725302Y-56154098D01*
X99698273Y-56561930D01*
X99287819Y-56561930D01*
X99291228Y-56333149D01*
X99343610Y-55892805D01*
X99441555Y-55507235D01*
X99496422Y-55362313D01*
X99656998Y-55063034D01*
X99860863Y-54822097D01*
X100106778Y-54639677D01*
X100393502Y-54515951D01*
X100719795Y-54451095D01*
X101084418Y-54445285D01*
X101486130Y-54498696D01*
X101923691Y-54611507D01*
X102395860Y-54783891D01*
X102901398Y-55016025D01*
X103217548Y-55182215D01*
X103761940Y-55498779D01*
X104343869Y-55872151D01*
X104960453Y-56300232D01*
X105608809Y-56780926D01*
X106286053Y-57312137D01*
X106989304Y-57891767D01*
X107715677Y-58517720D01*
X107716806Y-58518714D01*
X107892844Y-58673362D01*
X108058096Y-58818108D01*
X108201476Y-58943272D01*
X108311893Y-59039173D01*
X108378259Y-59096131D01*
X108501579Y-59200081D01*
X108864045Y-58820444D01*
X108993668Y-58686452D01*
X109419635Y-58266133D01*
X109894094Y-57824177D01*
X110405144Y-57370975D01*
X110940885Y-56916922D01*
X111489416Y-56472410D01*
X112038837Y-56047831D01*
X112474905Y-55725866D01*
X113658395Y-54912648D01*
X114894766Y-54147235D01*
X116180951Y-53430729D01*
X117513881Y-52764233D01*
X118890488Y-52148849D01*
X120307703Y-51585678D01*
X121762458Y-51075824D01*
X123251685Y-50620388D01*
X124772314Y-50220472D01*
X126321278Y-49877180D01*
X127895507Y-49591612D01*
X129491934Y-49364873D01*
X131107490Y-49198062D01*
X132365787Y-49111806D01*
X133695671Y-49063247D01*
X135008532Y-49058953D01*
X136301152Y-49098224D01*
X137570313Y-49180363D01*
X138812797Y-49304670D01*
X140025386Y-49470448D01*
X141204863Y-49676998D01*
X142348008Y-49923620D01*
X143451604Y-50209618D01*
X144512434Y-50534291D01*
X145527278Y-50896942D01*
X146492920Y-51296872D01*
X147406141Y-51733383D01*
X148263722Y-52205776D01*
X149062447Y-52713352D01*
X149799097Y-53255414D01*
X150048395Y-53463106D01*
X150333726Y-53719448D01*
X150625253Y-53997676D01*
X150906502Y-54281596D01*
X151160996Y-54555013D01*
X151372260Y-54801733D01*
X151582178Y-55072935D01*
X152004398Y-55692841D01*
X152391760Y-56364884D01*
X152739686Y-57078336D01*
X153043603Y-57822470D01*
X153298934Y-58586558D01*
X153501105Y-59359874D01*
X153645539Y-60131689D01*
X153656468Y-60214224D01*
X153680100Y-60489926D01*
X153693092Y-60811890D01*
X153695753Y-61160587D01*
X153695366Y-61179302D01*
X153688390Y-61516483D01*
G37*
G36*
X132153801Y-63398148D02*
G01*
X132367425Y-63445729D01*
X132545429Y-63518268D01*
X132753269Y-63659985D01*
X132929261Y-63842708D01*
X133053093Y-64048581D01*
X133053709Y-64050016D01*
X133110677Y-64209838D01*
X133169849Y-64421957D01*
X133226428Y-64665727D01*
X133275617Y-64920502D01*
X133312619Y-65165635D01*
X133321123Y-65247967D01*
X133316892Y-65530727D01*
X133255735Y-65768600D01*
X133138288Y-65960438D01*
X132965191Y-66105095D01*
X132737080Y-66201423D01*
X132632983Y-66222983D01*
X132416165Y-66235118D01*
X132194884Y-66213853D01*
X132005052Y-66161162D01*
X131943428Y-66132959D01*
X131725271Y-65984968D01*
X131542376Y-65775793D01*
X131394054Y-65504246D01*
X131279615Y-65169137D01*
X131198370Y-64769277D01*
X131172349Y-64595754D01*
X131698659Y-64605979D01*
X132224969Y-64616205D01*
X132270475Y-64855134D01*
X132286448Y-64938623D01*
X132308021Y-65064536D01*
X132309425Y-65138399D01*
X132285070Y-65174039D01*
X132229366Y-65185283D01*
X132136723Y-65185959D01*
X132016771Y-65194134D01*
X131959369Y-65226526D01*
X131959234Y-65294635D01*
X132009854Y-65409959D01*
X132089803Y-65519110D01*
X132209798Y-65607429D01*
X132343392Y-65652626D01*
X132472196Y-65648863D01*
X132577823Y-65590300D01*
X132587105Y-65580085D01*
X132635580Y-65468967D01*
X132650561Y-65294377D01*
X132632044Y-65058053D01*
X132580023Y-64761729D01*
X132552216Y-64635964D01*
X132491993Y-64408713D01*
X132429704Y-64240995D01*
X132361390Y-64123265D01*
X132283091Y-64045977D01*
X132161705Y-63988801D01*
X132031900Y-63979770D01*
X131917837Y-64017932D01*
X131836757Y-64097295D01*
X131805898Y-64211863D01*
X131805806Y-64227670D01*
X131800335Y-64264697D01*
X131776376Y-64287206D01*
X131720170Y-64298811D01*
X131617962Y-64303124D01*
X131455994Y-64303759D01*
X131106090Y-64303759D01*
X131127243Y-64202674D01*
X131186133Y-63971868D01*
X131269285Y-63770016D01*
X131377463Y-63621356D01*
X131518510Y-63515476D01*
X131700270Y-63441964D01*
X131781608Y-63419723D01*
X131969496Y-63389541D01*
X132153801Y-63398148D01*
G37*
G36*
X126302240Y-65159956D02*
G01*
X126328909Y-65453209D01*
X126327479Y-65507378D01*
X126283406Y-65743292D01*
X126181383Y-65941467D01*
X126026369Y-66094624D01*
X125823322Y-66195485D01*
X125689746Y-66225731D01*
X125444325Y-66233760D01*
X125187739Y-66193539D01*
X124943128Y-66109513D01*
X124733634Y-65986128D01*
X124717221Y-65972992D01*
X124693422Y-65942201D01*
X124698871Y-65901742D01*
X124738866Y-65835496D01*
X124818707Y-65727346D01*
X124973585Y-65522212D01*
X125105001Y-65611393D01*
X125230962Y-65674912D01*
X125405890Y-65700012D01*
X125478626Y-65698391D01*
X125581835Y-65682919D01*
X125647296Y-65642116D01*
X125698514Y-65565148D01*
X125708121Y-65546776D01*
X125737884Y-65482303D01*
X125744492Y-65435755D01*
X125719551Y-65404212D01*
X125654668Y-65384758D01*
X125541449Y-65374475D01*
X125371502Y-65370445D01*
X125136432Y-65369750D01*
X125097508Y-65369702D01*
X124853990Y-65366619D01*
X124671882Y-65358910D01*
X124555186Y-65346826D01*
X124507902Y-65330614D01*
X124506366Y-65327967D01*
X124485099Y-65251222D01*
X124470447Y-65125335D01*
X124462977Y-64973015D01*
X124463246Y-64821001D01*
X125042367Y-64821001D01*
X125042367Y-64928650D01*
X125336434Y-64928650D01*
X125377997Y-64928448D01*
X125506679Y-64924895D01*
X125596646Y-64917829D01*
X125630500Y-64908446D01*
X125617744Y-64861164D01*
X125570349Y-64774057D01*
X125507138Y-64688571D01*
X125448745Y-64635673D01*
X125428568Y-64626052D01*
X125309974Y-64599992D01*
X125189145Y-64610486D01*
X125100130Y-64655589D01*
X125061490Y-64722034D01*
X125042367Y-64821001D01*
X124463246Y-64821001D01*
X124463253Y-64816969D01*
X124471843Y-64679908D01*
X124489312Y-64584539D01*
X124536331Y-64473873D01*
X124663025Y-64303336D01*
X124831315Y-64179055D01*
X125029457Y-64103193D01*
X125245710Y-64077915D01*
X125468330Y-64105385D01*
X125685574Y-64187766D01*
X125885699Y-64327222D01*
X125958437Y-64400636D01*
X126109976Y-64615815D01*
X126226920Y-64874874D01*
X126235790Y-64908446D01*
X126302240Y-65159956D01*
G37*
G36*
X131291282Y-65655849D02*
G01*
X131284519Y-65727638D01*
X131231200Y-65889033D01*
X131138592Y-66037543D01*
X131023301Y-66142980D01*
X130889883Y-66195267D01*
X130711446Y-66216175D01*
X130531348Y-66198431D01*
X130381513Y-66142078D01*
X130346348Y-66120741D01*
X130287146Y-66089511D01*
X130265231Y-66096662D01*
X130262049Y-66142215D01*
X130261221Y-66159300D01*
X130247337Y-66189401D01*
X130204658Y-66206239D01*
X130118286Y-66213581D01*
X129973321Y-66215192D01*
X129684593Y-66215192D01*
X129530539Y-65444253D01*
X129527238Y-65427304D01*
X130151774Y-65427304D01*
X130157692Y-65476739D01*
X130218509Y-65591431D01*
X130334830Y-65681815D01*
X130454604Y-65726798D01*
X130566394Y-65726456D01*
X130639924Y-65672240D01*
X130666390Y-65567195D01*
X130663195Y-65526393D01*
X130617888Y-65437477D01*
X130515439Y-65386209D01*
X130351319Y-65369750D01*
X130343058Y-65369762D01*
X130226867Y-65375018D01*
X130168067Y-65392768D01*
X130151774Y-65427304D01*
X129527238Y-65427304D01*
X129475765Y-65163040D01*
X129435274Y-64930550D01*
X129412014Y-64750095D01*
X129406274Y-64611688D01*
X129418344Y-64505341D01*
X129448513Y-64421069D01*
X129497071Y-64348883D01*
X129564307Y-64278797D01*
X129641341Y-64214803D01*
X129779771Y-64141036D01*
X129950511Y-64100122D01*
X130172671Y-64086005D01*
X130319332Y-64090882D01*
X130545902Y-64124339D01*
X130740116Y-64185044D01*
X130882417Y-64267982D01*
X130969789Y-64341479D01*
X130872469Y-64478842D01*
X130810720Y-64566322D01*
X130740530Y-64662450D01*
X130692834Y-64713114D01*
X130654235Y-64726408D01*
X130611341Y-64710428D01*
X130550755Y-64673268D01*
X130538067Y-64665911D01*
X130417995Y-64620208D01*
X130284796Y-64599781D01*
X130165118Y-64606425D01*
X130085609Y-64641935D01*
X130084624Y-64642951D01*
X130054133Y-64709944D01*
X130041499Y-64807348D01*
X130041499Y-64928650D01*
X130328894Y-64928650D01*
X130554385Y-64940547D01*
X130817470Y-64995834D01*
X131023526Y-65095631D01*
X131171730Y-65239314D01*
X131261257Y-65426261D01*
X131279688Y-65567195D01*
X131291282Y-65655849D01*
G37*
G36*
X127160854Y-64096046D02*
G01*
X127373575Y-64171768D01*
X127548502Y-64260327D01*
X127679001Y-64171768D01*
X127746649Y-64133951D01*
X127927511Y-64086248D01*
X128124707Y-64093917D01*
X128315322Y-64157473D01*
X128460891Y-64231736D01*
X128460891Y-64157473D01*
X128461301Y-64144193D01*
X128472943Y-64111276D01*
X128512133Y-64092911D01*
X128594184Y-64084942D01*
X128734409Y-64083209D01*
X128754697Y-64083305D01*
X128886511Y-64088874D01*
X128984808Y-64101324D01*
X129029602Y-64118279D01*
X129036214Y-64140371D01*
X129056277Y-64225683D01*
X129086710Y-64364025D01*
X129125203Y-64544131D01*
X129169448Y-64754736D01*
X129217134Y-64984575D01*
X129265954Y-65222383D01*
X129313598Y-65456894D01*
X129357757Y-65676845D01*
X129396122Y-65870969D01*
X129426385Y-66028001D01*
X129446236Y-66136677D01*
X129453366Y-66185731D01*
X129448730Y-66190827D01*
X129392508Y-66203276D01*
X129285926Y-66211941D01*
X129145999Y-66215192D01*
X128838632Y-66215192D01*
X128698146Y-65508360D01*
X128681253Y-65424062D01*
X128626511Y-65165528D01*
X128578067Y-64969211D01*
X128532190Y-64826931D01*
X128485153Y-64730509D01*
X128433224Y-64671764D01*
X128372674Y-64642515D01*
X128299775Y-64634584D01*
X128206223Y-64657200D01*
X128125634Y-64723219D01*
X128093958Y-64811811D01*
X128099270Y-64854893D01*
X128117062Y-64961202D01*
X128145097Y-65115566D01*
X128181020Y-65305066D01*
X128222476Y-65516783D01*
X128259190Y-65702618D01*
X128295637Y-65889700D01*
X128324538Y-66040950D01*
X128343588Y-66144285D01*
X128350481Y-66187623D01*
X128345689Y-66192473D01*
X128289099Y-66204084D01*
X128182208Y-66212162D01*
X128041984Y-66215192D01*
X127733351Y-66215192D01*
X127614172Y-65581111D01*
X127612639Y-65572958D01*
X127559696Y-65299057D01*
X127514957Y-65088461D01*
X127475375Y-64932075D01*
X127437899Y-64820806D01*
X127399481Y-64745560D01*
X127357073Y-64697242D01*
X127307625Y-64666759D01*
X127268108Y-64652238D01*
X127154467Y-64644101D01*
X127059927Y-64680561D01*
X127008364Y-64754608D01*
X127007850Y-64801720D01*
X127019794Y-64913136D01*
X127043507Y-65071783D01*
X127076948Y-65264234D01*
X127118080Y-65477059D01*
X127154447Y-65658445D01*
X127191753Y-65849230D01*
X127221343Y-66005878D01*
X127240839Y-66115768D01*
X127247867Y-66166278D01*
X127242258Y-66181501D01*
X127198441Y-66201342D01*
X127102325Y-66212010D01*
X126943414Y-66215192D01*
X126638961Y-66215192D01*
X126500890Y-65507594D01*
X126487486Y-65438547D01*
X126434185Y-65152381D01*
X126397209Y-64925959D01*
X126376036Y-64749550D01*
X126370148Y-64613419D01*
X126379023Y-64507834D01*
X126402143Y-64423063D01*
X126438985Y-64349371D01*
X126446602Y-64337268D01*
X126576323Y-64200733D01*
X126748055Y-64113222D01*
X126947623Y-64077428D01*
X127160854Y-64096046D01*
G37*
D10*
X138500000Y-78931200D02*
G75*
G02*
X116500000Y-78931200I-11000000J0D01*
G01*
X116500000Y-78931200D02*
G75*
G02*
X138500000Y-78931200I11000000J0D01*
G01*
%LPC*%
D13*
X135120000Y-128800000D03*
X135120000Y-126260000D03*
X135120000Y-123720000D03*
X135120000Y-121180000D03*
X135120000Y-118640000D03*
X135120000Y-116100000D03*
X135120000Y-113560000D03*
X135120000Y-111020000D03*
X135120000Y-108480000D03*
X135120000Y-105940000D03*
X135120000Y-103400000D03*
X135120000Y-100860000D03*
X135120000Y-98320000D03*
X119880000Y-98320000D03*
X119880000Y-100860000D03*
X119880000Y-103400000D03*
X119880000Y-105940000D03*
X119880000Y-108480000D03*
X119880000Y-111020000D03*
X119880000Y-113560000D03*
X119880000Y-116100000D03*
X119880000Y-118640000D03*
X119880000Y-121180000D03*
X119880000Y-123720000D03*
X119880000Y-126260000D03*
X130040000Y-98320000D03*
X135120000Y-131340000D03*
X119880000Y-128800000D03*
X127500000Y-98320000D03*
X119880000Y-131340000D03*
X132580000Y-98320000D03*
X124960000Y-98320000D03*
X122420000Y-98320000D03*
D14*
X96300800Y-104348600D03*
X102800800Y-104348600D03*
X96300800Y-108848600D03*
X102800800Y-108848600D03*
X152199200Y-121308600D03*
X158699200Y-121308600D03*
X152199200Y-125808600D03*
X158699200Y-125808600D03*
X96300800Y-136308600D03*
X102800800Y-136308600D03*
X96300800Y-140808600D03*
X102800800Y-140808600D03*
X104780800Y-112828600D03*
X111280800Y-112828600D03*
X104780800Y-117328600D03*
X111280800Y-117328600D03*
X143719200Y-112828600D03*
X150219200Y-112828600D03*
X143719200Y-117328600D03*
X150219200Y-117328600D03*
X96300800Y-121308600D03*
X102800800Y-121308600D03*
X96300800Y-125808600D03*
X102800800Y-125808600D03*
X152199200Y-136308600D03*
X158699200Y-136308600D03*
X152199200Y-140808600D03*
X158699200Y-140808600D03*
X152199200Y-104348600D03*
X158699200Y-104348600D03*
X152199200Y-108848600D03*
X158699200Y-108848600D03*
X87820800Y-112828600D03*
X94320800Y-112828600D03*
X87820800Y-117328600D03*
X94320800Y-117328600D03*
X108300800Y-136308600D03*
X114800800Y-136308600D03*
X108300800Y-140808600D03*
X114800800Y-140808600D03*
X160679200Y-112828600D03*
X167179200Y-112828600D03*
X160679200Y-117328600D03*
X167179200Y-117328600D03*
X140199200Y-136308600D03*
X146699200Y-136308600D03*
X140199200Y-140808600D03*
X146699200Y-140808600D03*
D15*
X85338800Y-50056200D03*
D13*
X85338800Y-52596200D03*
X85338800Y-55136200D03*
X85338800Y-57676200D03*
X85338800Y-60216200D03*
X85338800Y-62756200D03*
X85338800Y-65296200D03*
X85338800Y-67836200D03*
X85338800Y-70376200D03*
X85338800Y-72916200D03*
X85338800Y-75456200D03*
X85338800Y-77996200D03*
X85338800Y-80536200D03*
X85338800Y-83076200D03*
D15*
X169138800Y-62666200D03*
D13*
X169138800Y-65206200D03*
X169138800Y-67746200D03*
X169138800Y-70286200D03*
D16*
X84307200Y-97527200D03*
D17*
X84307200Y-105147200D03*
D18*
X80000000Y-47500000D03*
X80000000Y-142500000D03*
D15*
X168711400Y-98320200D03*
D13*
X166171400Y-98320200D03*
X163631400Y-98320200D03*
X161091400Y-98320200D03*
X158551400Y-98320200D03*
X156011400Y-98320200D03*
X153471400Y-98320200D03*
X150931400Y-98320200D03*
X148391400Y-98320200D03*
X145851400Y-98320200D03*
X143311400Y-98320200D03*
X140771400Y-98320200D03*
D18*
X175000000Y-47500000D03*
X175000000Y-142500000D03*
D15*
X127500000Y-91431200D03*
D13*
X127500000Y-71111200D03*
%LPD*%
M02*
