G04 #@! TF.GenerationSoftware,KiCad,Pcbnew,8.0.4*
G04 #@! TF.CreationDate,2024-09-17T15:57:22+09:30*
G04 #@! TF.ProjectId,handheld game console,68616e64-6865-46c6-9420-67616d652063,0*
G04 #@! TF.SameCoordinates,Original*
G04 #@! TF.FileFunction,Copper,L2,Bot*
G04 #@! TF.FilePolarity,Positive*
%FSLAX46Y46*%
G04 Gerber Fmt 4.6, Leading zero omitted, Abs format (unit mm)*
G04 Created by KiCad (PCBNEW 8.0.4) date 2024-09-17 15:57:22*
%MOMM*%
%LPD*%
G01*
G04 APERTURE LIST*
G04 #@! TA.AperFunction,ComponentPad*
%ADD10O,1.700000X1.700000*%
G04 #@! TD*
G04 #@! TA.AperFunction,ComponentPad*
%ADD11C,2.000000*%
G04 #@! TD*
G04 #@! TA.AperFunction,ComponentPad*
%ADD12R,1.700000X1.700000*%
G04 #@! TD*
G04 #@! TA.AperFunction,ComponentPad*
%ADD13C,1.600000*%
G04 #@! TD*
G04 #@! TA.AperFunction,ComponentPad*
%ADD14O,1.600000X1.600000*%
G04 #@! TD*
G04 #@! TA.AperFunction,Conductor*
%ADD15C,0.200000*%
G04 #@! TD*
G04 APERTURE END LIST*
D10*
X135120000Y-128800000D03*
X135120000Y-126260000D03*
X135120000Y-123720000D03*
X135120000Y-121180000D03*
X135120000Y-118640000D03*
X135120000Y-116100000D03*
X135120000Y-113560000D03*
X135120000Y-111020000D03*
X135120000Y-108480000D03*
X135120000Y-105940000D03*
X135120000Y-103400000D03*
X135120000Y-100860000D03*
X135120000Y-98320000D03*
X119880000Y-98320000D03*
X119880000Y-100860000D03*
X119880000Y-103400000D03*
X119880000Y-105940000D03*
X119880000Y-108480000D03*
X119880000Y-111020000D03*
X119880000Y-113560000D03*
X119880000Y-116100000D03*
X119880000Y-118640000D03*
X119880000Y-121180000D03*
X119880000Y-123720000D03*
X119880000Y-126260000D03*
X130040000Y-98320000D03*
X135120000Y-131340000D03*
X119880000Y-128800000D03*
X127500000Y-98320000D03*
X119880000Y-131340000D03*
X132580000Y-98320000D03*
X124960000Y-98320000D03*
X122420000Y-98320000D03*
D11*
X96300800Y-104348600D03*
X102800800Y-104348600D03*
X96300800Y-108848600D03*
X102800800Y-108848600D03*
X152199200Y-121308600D03*
X158699200Y-121308600D03*
X152199200Y-125808600D03*
X158699200Y-125808600D03*
X96300800Y-136308600D03*
X102800800Y-136308600D03*
X96300800Y-140808600D03*
X102800800Y-140808600D03*
X104780800Y-112828600D03*
X111280800Y-112828600D03*
X104780800Y-117328600D03*
X111280800Y-117328600D03*
X143719200Y-112828600D03*
X150219200Y-112828600D03*
X143719200Y-117328600D03*
X150219200Y-117328600D03*
X96300800Y-121308600D03*
X102800800Y-121308600D03*
X96300800Y-125808600D03*
X102800800Y-125808600D03*
X152199200Y-136308600D03*
X158699200Y-136308600D03*
X152199200Y-140808600D03*
X158699200Y-140808600D03*
X152199200Y-104348600D03*
X158699200Y-104348600D03*
X152199200Y-108848600D03*
X158699200Y-108848600D03*
X87820800Y-112828600D03*
X94320800Y-112828600D03*
X87820800Y-117328600D03*
X94320800Y-117328600D03*
X108300800Y-136308600D03*
X114800800Y-136308600D03*
X108300800Y-140808600D03*
X114800800Y-140808600D03*
X160679200Y-112828600D03*
X167179200Y-112828600D03*
X160679200Y-117328600D03*
X167179200Y-117328600D03*
X140199200Y-136308600D03*
X146699200Y-136308600D03*
X140199200Y-140808600D03*
X146699200Y-140808600D03*
D12*
X85338800Y-50056200D03*
D10*
X85338800Y-52596200D03*
X85338800Y-55136200D03*
X85338800Y-57676200D03*
X85338800Y-60216200D03*
X85338800Y-62756200D03*
X85338800Y-65296200D03*
X85338800Y-67836200D03*
X85338800Y-70376200D03*
X85338800Y-72916200D03*
X85338800Y-75456200D03*
X85338800Y-77996200D03*
X85338800Y-80536200D03*
X85338800Y-83076200D03*
D12*
X169138800Y-62666200D03*
D10*
X169138800Y-65206200D03*
X169138800Y-67746200D03*
X169138800Y-70286200D03*
D13*
X84307200Y-97527200D03*
D14*
X84307200Y-105147200D03*
D12*
X168711400Y-98320200D03*
D10*
X166171400Y-98320200D03*
X163631400Y-98320200D03*
X161091400Y-98320200D03*
X158551400Y-98320200D03*
X156011400Y-98320200D03*
X153471400Y-98320200D03*
X150931400Y-98320200D03*
X148391400Y-98320200D03*
X145851400Y-98320200D03*
X143311400Y-98320200D03*
X140771400Y-98320200D03*
D12*
X127500000Y-91431200D03*
D10*
X127500000Y-71111200D03*
D15*
X82173600Y-65921400D02*
X82173600Y-74831000D01*
X82173600Y-74831000D02*
X85338800Y-77996200D01*
X85338800Y-62756200D02*
X82173600Y-65921400D01*
X86618600Y-78756400D02*
X85338800Y-80536200D01*
X86618600Y-72156000D02*
X86618600Y-78756400D01*
X85338800Y-70376200D02*
X86618600Y-72156000D01*
X82910200Y-67224800D02*
X82910200Y-70487600D01*
X82910200Y-70487600D02*
X85338800Y-72916200D01*
X85338800Y-65296200D02*
X82910200Y-67224800D01*
X130040000Y-95025200D02*
X132465400Y-92599800D01*
X137037800Y-92599800D02*
X139501400Y-95063400D01*
X132465400Y-92599800D02*
X137037800Y-92599800D01*
X163631400Y-96587600D02*
X163631400Y-98340200D01*
X162107200Y-95063400D02*
X163631400Y-96587600D01*
X130040000Y-98320000D02*
X130040000Y-95025200D01*
X139501400Y-95063400D02*
X162107200Y-95063400D01*
X96346800Y-113072000D02*
X96346800Y-108894600D01*
X92765400Y-116653400D02*
X96346800Y-113072000D01*
X96300800Y-140808600D02*
X92765400Y-137273200D01*
X92765400Y-137273200D02*
X92765400Y-116653400D01*
X96346800Y-108894600D02*
X96300800Y-108848600D01*
X101045800Y-136795600D02*
X105058800Y-140808600D01*
X102800800Y-125808600D02*
X101045800Y-127563600D01*
X105058800Y-140808600D02*
X108300800Y-140808600D01*
X101045800Y-127563600D02*
X101045800Y-136795600D01*
G04 #@! TA.AperFunction,Conductor*
G36*
X174690614Y-46020185D02*
G01*
X174736369Y-46072989D01*
X174746313Y-46142147D01*
X174717288Y-46205703D01*
X174661894Y-46242431D01*
X174500776Y-46294781D01*
X174318386Y-46387715D01*
X174152786Y-46508028D01*
X174008028Y-46652786D01*
X173887715Y-46818386D01*
X173794781Y-47000776D01*
X173731522Y-47195465D01*
X173699500Y-47397648D01*
X173699500Y-47602351D01*
X173731522Y-47804534D01*
X173794781Y-47999223D01*
X173887715Y-48181613D01*
X174008028Y-48347213D01*
X174152786Y-48491971D01*
X174307749Y-48604556D01*
X174318390Y-48612287D01*
X174434607Y-48671503D01*
X174500776Y-48705218D01*
X174500778Y-48705218D01*
X174500781Y-48705220D01*
X174605137Y-48739127D01*
X174695465Y-48768477D01*
X174796557Y-48784488D01*
X174897648Y-48800500D01*
X174897649Y-48800500D01*
X175102351Y-48800500D01*
X175102352Y-48800500D01*
X175304534Y-48768477D01*
X175499219Y-48705220D01*
X175681610Y-48612287D01*
X175774590Y-48544732D01*
X175847213Y-48491971D01*
X175847215Y-48491968D01*
X175847219Y-48491966D01*
X175991966Y-48347219D01*
X175991968Y-48347215D01*
X175991971Y-48347213D01*
X176044732Y-48274590D01*
X176112287Y-48181610D01*
X176205220Y-47999219D01*
X176257569Y-47838106D01*
X176297007Y-47780430D01*
X176361365Y-47753232D01*
X176430212Y-47765147D01*
X176481687Y-47812391D01*
X176499500Y-47876424D01*
X176499500Y-142123575D01*
X176479815Y-142190614D01*
X176427011Y-142236369D01*
X176357853Y-142246313D01*
X176294297Y-142217288D01*
X176257569Y-142161894D01*
X176205218Y-142000776D01*
X176162194Y-141916338D01*
X176112287Y-141818390D01*
X176050526Y-141733382D01*
X175991971Y-141652786D01*
X175847213Y-141508028D01*
X175681613Y-141387715D01*
X175681612Y-141387714D01*
X175681610Y-141387713D01*
X175624653Y-141358691D01*
X175499223Y-141294781D01*
X175304534Y-141231522D01*
X175129995Y-141203878D01*
X175102352Y-141199500D01*
X174897648Y-141199500D01*
X174873329Y-141203351D01*
X174695465Y-141231522D01*
X174500776Y-141294781D01*
X174318386Y-141387715D01*
X174152786Y-141508028D01*
X174008028Y-141652786D01*
X173887715Y-141818386D01*
X173794781Y-142000776D01*
X173731522Y-142195465D01*
X173699500Y-142397648D01*
X173699500Y-142602351D01*
X173731522Y-142804534D01*
X173794781Y-142999223D01*
X173887715Y-143181613D01*
X174008028Y-143347213D01*
X174152786Y-143491971D01*
X174307749Y-143604556D01*
X174318390Y-143612287D01*
X174434607Y-143671503D01*
X174500776Y-143705218D01*
X174500778Y-143705218D01*
X174500781Y-143705220D01*
X174604881Y-143739044D01*
X174661894Y-143757569D01*
X174719569Y-143797007D01*
X174746767Y-143861366D01*
X174734852Y-143930212D01*
X174687608Y-143981688D01*
X174623575Y-143999500D01*
X80376425Y-143999500D01*
X80309386Y-143979815D01*
X80263631Y-143927011D01*
X80253687Y-143857853D01*
X80282712Y-143794297D01*
X80338106Y-143757569D01*
X80374669Y-143745688D01*
X80499219Y-143705220D01*
X80681610Y-143612287D01*
X80774590Y-143544732D01*
X80847213Y-143491971D01*
X80847215Y-143491968D01*
X80847219Y-143491966D01*
X80991966Y-143347219D01*
X80991968Y-143347215D01*
X80991971Y-143347213D01*
X81044732Y-143274590D01*
X81112287Y-143181610D01*
X81205220Y-142999219D01*
X81268477Y-142804534D01*
X81300500Y-142602352D01*
X81300500Y-142397648D01*
X81279992Y-142268170D01*
X81268477Y-142195465D01*
X81205218Y-142000776D01*
X81162194Y-141916338D01*
X81112287Y-141818390D01*
X81050526Y-141733382D01*
X80991971Y-141652786D01*
X80847213Y-141508028D01*
X80681613Y-141387715D01*
X80681612Y-141387714D01*
X80681610Y-141387713D01*
X80624653Y-141358691D01*
X80499223Y-141294781D01*
X80304534Y-141231522D01*
X80129995Y-141203878D01*
X80102352Y-141199500D01*
X79897648Y-141199500D01*
X79873329Y-141203351D01*
X79695465Y-141231522D01*
X79500776Y-141294781D01*
X79318386Y-141387715D01*
X79152786Y-141508028D01*
X79008028Y-141652786D01*
X78887715Y-141818386D01*
X78794781Y-142000776D01*
X78742431Y-142161894D01*
X78702993Y-142219569D01*
X78638634Y-142246767D01*
X78569788Y-142234852D01*
X78518312Y-142187608D01*
X78500500Y-142123575D01*
X78500500Y-137352254D01*
X92164898Y-137352254D01*
X92205823Y-137504985D01*
X92234758Y-137555100D01*
X92234759Y-137555104D01*
X92234760Y-137555104D01*
X92284879Y-137641914D01*
X92284881Y-137641917D01*
X92403749Y-137760785D01*
X92403755Y-137760790D01*
X94844282Y-140201318D01*
X94877767Y-140262641D01*
X94876807Y-140319439D01*
X94815692Y-140560774D01*
X94815690Y-140560787D01*
X94795157Y-140808594D01*
X94795157Y-140808605D01*
X94815690Y-141056412D01*
X94815692Y-141056424D01*
X94876736Y-141297481D01*
X94976626Y-141525206D01*
X95112633Y-141733382D01*
X95112636Y-141733385D01*
X95281056Y-141916338D01*
X95477291Y-142069074D01*
X95695990Y-142187428D01*
X95931186Y-142268171D01*
X96176465Y-142309100D01*
X96425135Y-142309100D01*
X96670414Y-142268171D01*
X96905610Y-142187428D01*
X97124309Y-142069074D01*
X97320544Y-141916338D01*
X97488964Y-141733385D01*
X97624973Y-141525207D01*
X97724863Y-141297481D01*
X97785908Y-141056421D01*
X97806443Y-140808600D01*
X97785908Y-140560779D01*
X97724863Y-140319719D01*
X97724740Y-140319439D01*
X97624973Y-140091993D01*
X97488966Y-139883817D01*
X97467357Y-139860344D01*
X97320544Y-139700862D01*
X97124309Y-139548126D01*
X97124307Y-139548125D01*
X97124306Y-139548124D01*
X96905611Y-139429772D01*
X96905602Y-139429769D01*
X96670416Y-139349029D01*
X96425135Y-139308100D01*
X96176465Y-139308100D01*
X95931186Y-139349028D01*
X95825192Y-139385415D01*
X95755393Y-139388564D01*
X95697250Y-139355814D01*
X93402219Y-137060783D01*
X93368734Y-136999460D01*
X93365900Y-136973102D01*
X93365900Y-136308594D01*
X94795157Y-136308594D01*
X94795157Y-136308605D01*
X94815690Y-136556412D01*
X94815692Y-136556424D01*
X94876736Y-136797481D01*
X94976626Y-137025206D01*
X95112633Y-137233382D01*
X95112636Y-137233385D01*
X95281056Y-137416338D01*
X95477291Y-137569074D01*
X95477293Y-137569075D01*
X95611887Y-137641914D01*
X95695990Y-137687428D01*
X95931186Y-137768171D01*
X96176465Y-137809100D01*
X96425135Y-137809100D01*
X96670414Y-137768171D01*
X96905610Y-137687428D01*
X97124309Y-137569074D01*
X97320544Y-137416338D01*
X97488964Y-137233385D01*
X97624973Y-137025207D01*
X97691012Y-136874654D01*
X100445298Y-136874654D01*
X100486223Y-137027385D01*
X100515158Y-137077500D01*
X100515159Y-137077504D01*
X100515160Y-137077504D01*
X100565279Y-137164314D01*
X100565281Y-137164317D01*
X100684149Y-137283185D01*
X100684155Y-137283190D01*
X102534062Y-139133097D01*
X102567547Y-139194420D01*
X102562563Y-139264112D01*
X102520691Y-139320045D01*
X102466792Y-139343087D01*
X102431181Y-139349029D01*
X102195997Y-139429769D01*
X102195988Y-139429772D01*
X101977293Y-139548124D01*
X101781057Y-139700861D01*
X101612633Y-139883817D01*
X101476626Y-140091993D01*
X101376736Y-140319718D01*
X101315692Y-140560775D01*
X101315690Y-140560787D01*
X101295157Y-140808594D01*
X101295157Y-140808605D01*
X101315690Y-141056412D01*
X101315692Y-141056424D01*
X101376736Y-141297481D01*
X101476626Y-141525206D01*
X101612633Y-141733382D01*
X101612636Y-141733385D01*
X101781056Y-141916338D01*
X101977291Y-142069074D01*
X102195990Y-142187428D01*
X102431186Y-142268171D01*
X102676465Y-142309100D01*
X102925135Y-142309100D01*
X103170414Y-142268171D01*
X103405610Y-142187428D01*
X103624309Y-142069074D01*
X103820544Y-141916338D01*
X103988964Y-141733385D01*
X104124973Y-141525207D01*
X104224863Y-141297481D01*
X104266985Y-141131144D01*
X104302524Y-141070991D01*
X104364944Y-141039599D01*
X104434427Y-141046937D01*
X104474871Y-141073906D01*
X104573939Y-141172974D01*
X104573949Y-141172985D01*
X104578279Y-141177315D01*
X104578280Y-141177316D01*
X104690084Y-141289120D01*
X104776895Y-141339239D01*
X104776897Y-141339241D01*
X104814951Y-141361211D01*
X104827015Y-141368177D01*
X104979743Y-141409101D01*
X104979746Y-141409101D01*
X105145453Y-141409101D01*
X105145469Y-141409100D01*
X106844684Y-141409100D01*
X106911723Y-141428785D01*
X106957478Y-141481589D01*
X106958240Y-141483289D01*
X106976627Y-141525208D01*
X107112633Y-141733382D01*
X107112636Y-141733385D01*
X107281056Y-141916338D01*
X107477291Y-142069074D01*
X107695990Y-142187428D01*
X107931186Y-142268171D01*
X108176465Y-142309100D01*
X108425135Y-142309100D01*
X108670414Y-142268171D01*
X108905610Y-142187428D01*
X109124309Y-142069074D01*
X109320544Y-141916338D01*
X109488964Y-141733385D01*
X109624973Y-141525207D01*
X109724863Y-141297481D01*
X109785908Y-141056421D01*
X109806443Y-140808600D01*
X109806443Y-140808594D01*
X113295157Y-140808594D01*
X113295157Y-140808605D01*
X113315690Y-141056412D01*
X113315692Y-141056424D01*
X113376736Y-141297481D01*
X113476626Y-141525206D01*
X113612633Y-141733382D01*
X113612636Y-141733385D01*
X113781056Y-141916338D01*
X113977291Y-142069074D01*
X114195990Y-142187428D01*
X114431186Y-142268171D01*
X114676465Y-142309100D01*
X114925135Y-142309100D01*
X115170414Y-142268171D01*
X115405610Y-142187428D01*
X115624309Y-142069074D01*
X115820544Y-141916338D01*
X115988964Y-141733385D01*
X116124973Y-141525207D01*
X116224863Y-141297481D01*
X116285908Y-141056421D01*
X116306443Y-140808600D01*
X116306443Y-140808594D01*
X138693557Y-140808594D01*
X138693557Y-140808605D01*
X138714090Y-141056412D01*
X138714092Y-141056424D01*
X138775136Y-141297481D01*
X138875026Y-141525206D01*
X139011033Y-141733382D01*
X139011036Y-141733385D01*
X139179456Y-141916338D01*
X139375691Y-142069074D01*
X139594390Y-142187428D01*
X139829586Y-142268171D01*
X140074865Y-142309100D01*
X140323535Y-142309100D01*
X140568814Y-142268171D01*
X140804010Y-142187428D01*
X141022709Y-142069074D01*
X141218944Y-141916338D01*
X141387364Y-141733385D01*
X141523373Y-141525207D01*
X141623263Y-141297481D01*
X141684308Y-141056421D01*
X141704843Y-140808600D01*
X141704843Y-140808594D01*
X145193557Y-140808594D01*
X145193557Y-140808605D01*
X145214090Y-141056412D01*
X145214092Y-141056424D01*
X145275136Y-141297481D01*
X145375026Y-141525206D01*
X145511033Y-141733382D01*
X145511036Y-141733385D01*
X145679456Y-141916338D01*
X145875691Y-142069074D01*
X146094390Y-142187428D01*
X146329586Y-142268171D01*
X146574865Y-142309100D01*
X146823535Y-142309100D01*
X147068814Y-142268171D01*
X147304010Y-142187428D01*
X147522709Y-142069074D01*
X147718944Y-141916338D01*
X147887364Y-141733385D01*
X148023373Y-141525207D01*
X148123263Y-141297481D01*
X148184308Y-141056421D01*
X148204843Y-140808600D01*
X148204843Y-140808594D01*
X150693557Y-140808594D01*
X150693557Y-140808605D01*
X150714090Y-141056412D01*
X150714092Y-141056424D01*
X150775136Y-141297481D01*
X150875026Y-141525206D01*
X151011033Y-141733382D01*
X151011036Y-141733385D01*
X151179456Y-141916338D01*
X151375691Y-142069074D01*
X151594390Y-142187428D01*
X151829586Y-142268171D01*
X152074865Y-142309100D01*
X152323535Y-142309100D01*
X152568814Y-142268171D01*
X152804010Y-142187428D01*
X153022709Y-142069074D01*
X153218944Y-141916338D01*
X153387364Y-141733385D01*
X153523373Y-141525207D01*
X153623263Y-141297481D01*
X153684308Y-141056421D01*
X153704843Y-140808600D01*
X153704843Y-140808594D01*
X157193557Y-140808594D01*
X157193557Y-140808605D01*
X157214090Y-141056412D01*
X157214092Y-141056424D01*
X157275136Y-141297481D01*
X157375026Y-141525206D01*
X157511033Y-141733382D01*
X157511036Y-141733385D01*
X157679456Y-141916338D01*
X157875691Y-142069074D01*
X158094390Y-142187428D01*
X158329586Y-142268171D01*
X158574865Y-142309100D01*
X158823535Y-142309100D01*
X159068814Y-142268171D01*
X159304010Y-142187428D01*
X159522709Y-142069074D01*
X159718944Y-141916338D01*
X159887364Y-141733385D01*
X160023373Y-141525207D01*
X160123263Y-141297481D01*
X160184308Y-141056421D01*
X160204843Y-140808600D01*
X160184308Y-140560779D01*
X160123263Y-140319719D01*
X160123140Y-140319439D01*
X160023373Y-140091993D01*
X159887366Y-139883817D01*
X159865757Y-139860344D01*
X159718944Y-139700862D01*
X159522709Y-139548126D01*
X159522707Y-139548125D01*
X159522706Y-139548124D01*
X159304011Y-139429772D01*
X159304002Y-139429769D01*
X159068816Y-139349029D01*
X158823535Y-139308100D01*
X158574865Y-139308100D01*
X158329583Y-139349029D01*
X158094397Y-139429769D01*
X158094388Y-139429772D01*
X157875693Y-139548124D01*
X157679457Y-139700861D01*
X157511033Y-139883817D01*
X157375026Y-140091993D01*
X157275136Y-140319718D01*
X157214092Y-140560775D01*
X157214090Y-140560787D01*
X157193557Y-140808594D01*
X153704843Y-140808594D01*
X153684308Y-140560779D01*
X153623263Y-140319719D01*
X153623140Y-140319439D01*
X153523373Y-140091993D01*
X153387366Y-139883817D01*
X153365757Y-139860344D01*
X153218944Y-139700862D01*
X153022709Y-139548126D01*
X153022707Y-139548125D01*
X153022706Y-139548124D01*
X152804011Y-139429772D01*
X152804002Y-139429769D01*
X152568816Y-139349029D01*
X152323535Y-139308100D01*
X152074865Y-139308100D01*
X151829583Y-139349029D01*
X151594397Y-139429769D01*
X151594388Y-139429772D01*
X151375693Y-139548124D01*
X151179457Y-139700861D01*
X151011033Y-139883817D01*
X150875026Y-140091993D01*
X150775136Y-140319718D01*
X150714092Y-140560775D01*
X150714090Y-140560787D01*
X150693557Y-140808594D01*
X148204843Y-140808594D01*
X148184308Y-140560779D01*
X148123263Y-140319719D01*
X148123140Y-140319439D01*
X148023373Y-140091993D01*
X147887366Y-139883817D01*
X147865757Y-139860344D01*
X147718944Y-139700862D01*
X147522709Y-139548126D01*
X147522707Y-139548125D01*
X147522706Y-139548124D01*
X147304011Y-139429772D01*
X147304002Y-139429769D01*
X147068816Y-139349029D01*
X146823535Y-139308100D01*
X146574865Y-139308100D01*
X146329583Y-139349029D01*
X146094397Y-139429769D01*
X146094388Y-139429772D01*
X145875693Y-139548124D01*
X145679457Y-139700861D01*
X145511033Y-139883817D01*
X145375026Y-140091993D01*
X145275136Y-140319718D01*
X145214092Y-140560775D01*
X145214090Y-140560787D01*
X145193557Y-140808594D01*
X141704843Y-140808594D01*
X141684308Y-140560779D01*
X141623263Y-140319719D01*
X141623140Y-140319439D01*
X141523373Y-140091993D01*
X141387366Y-139883817D01*
X141365757Y-139860344D01*
X141218944Y-139700862D01*
X141022709Y-139548126D01*
X141022707Y-139548125D01*
X141022706Y-139548124D01*
X140804011Y-139429772D01*
X140804002Y-139429769D01*
X140568816Y-139349029D01*
X140323535Y-139308100D01*
X140074865Y-139308100D01*
X139829583Y-139349029D01*
X139594397Y-139429769D01*
X139594388Y-139429772D01*
X139375693Y-139548124D01*
X139179457Y-139700861D01*
X139011033Y-139883817D01*
X138875026Y-140091993D01*
X138775136Y-140319718D01*
X138714092Y-140560775D01*
X138714090Y-140560787D01*
X138693557Y-140808594D01*
X116306443Y-140808594D01*
X116285908Y-140560779D01*
X116224863Y-140319719D01*
X116224740Y-140319439D01*
X116124973Y-140091993D01*
X115988966Y-139883817D01*
X115967357Y-139860344D01*
X115820544Y-139700862D01*
X115624309Y-139548126D01*
X115624307Y-139548125D01*
X115624306Y-139548124D01*
X115405611Y-139429772D01*
X115405602Y-139429769D01*
X115170416Y-139349029D01*
X114925135Y-139308100D01*
X114676465Y-139308100D01*
X114431183Y-139349029D01*
X114195997Y-139429769D01*
X114195988Y-139429772D01*
X113977293Y-139548124D01*
X113781057Y-139700861D01*
X113612633Y-139883817D01*
X113476626Y-140091993D01*
X113376736Y-140319718D01*
X113315692Y-140560775D01*
X113315690Y-140560787D01*
X113295157Y-140808594D01*
X109806443Y-140808594D01*
X109785908Y-140560779D01*
X109724863Y-140319719D01*
X109724740Y-140319439D01*
X109624973Y-140091993D01*
X109488966Y-139883817D01*
X109467357Y-139860344D01*
X109320544Y-139700862D01*
X109124309Y-139548126D01*
X109124307Y-139548125D01*
X109124306Y-139548124D01*
X108905611Y-139429772D01*
X108905602Y-139429769D01*
X108670416Y-139349029D01*
X108425135Y-139308100D01*
X108176465Y-139308100D01*
X107931183Y-139349029D01*
X107695997Y-139429769D01*
X107695988Y-139429772D01*
X107477293Y-139548124D01*
X107281057Y-139700861D01*
X107112633Y-139883817D01*
X106976627Y-140091991D01*
X106958240Y-140133911D01*
X106913283Y-140187396D01*
X106846547Y-140208086D01*
X106844684Y-140208100D01*
X105358897Y-140208100D01*
X105291858Y-140188415D01*
X105271216Y-140171781D01*
X103081249Y-137981814D01*
X103047764Y-137920491D01*
X103052748Y-137850799D01*
X103094620Y-137794866D01*
X103148522Y-137771824D01*
X103170414Y-137768171D01*
X103405610Y-137687428D01*
X103624309Y-137569074D01*
X103820544Y-137416338D01*
X103988964Y-137233385D01*
X104124973Y-137025207D01*
X104224863Y-136797481D01*
X104285908Y-136556421D01*
X104306443Y-136308600D01*
X104306443Y-136308594D01*
X106795157Y-136308594D01*
X106795157Y-136308605D01*
X106815690Y-136556412D01*
X106815692Y-136556424D01*
X106876736Y-136797481D01*
X106976626Y-137025206D01*
X107112633Y-137233382D01*
X107112636Y-137233385D01*
X107281056Y-137416338D01*
X107477291Y-137569074D01*
X107477293Y-137569075D01*
X107611887Y-137641914D01*
X107695990Y-137687428D01*
X107931186Y-137768171D01*
X108176465Y-137809100D01*
X108425135Y-137809100D01*
X108670414Y-137768171D01*
X108905610Y-137687428D01*
X109124309Y-137569074D01*
X109320544Y-137416338D01*
X109488964Y-137233385D01*
X109624973Y-137025207D01*
X109724863Y-136797481D01*
X109785908Y-136556421D01*
X109806443Y-136308600D01*
X109806443Y-136308594D01*
X113295157Y-136308594D01*
X113295157Y-136308605D01*
X113315690Y-136556412D01*
X113315692Y-136556424D01*
X113376736Y-136797481D01*
X113476626Y-137025206D01*
X113612633Y-137233382D01*
X113612636Y-137233385D01*
X113781056Y-137416338D01*
X113977291Y-137569074D01*
X113977293Y-137569075D01*
X114111887Y-137641914D01*
X114195990Y-137687428D01*
X114431186Y-137768171D01*
X114676465Y-137809100D01*
X114925135Y-137809100D01*
X115170414Y-137768171D01*
X115405610Y-137687428D01*
X115624309Y-137569074D01*
X115820544Y-137416338D01*
X115988964Y-137233385D01*
X116124973Y-137025207D01*
X116224863Y-136797481D01*
X116285908Y-136556421D01*
X116306443Y-136308600D01*
X116306443Y-136308594D01*
X138693557Y-136308594D01*
X138693557Y-136308605D01*
X138714090Y-136556412D01*
X138714092Y-136556424D01*
X138775136Y-136797481D01*
X138875026Y-137025206D01*
X139011033Y-137233382D01*
X139011036Y-137233385D01*
X139179456Y-137416338D01*
X139375691Y-137569074D01*
X139375693Y-137569075D01*
X139510287Y-137641914D01*
X139594390Y-137687428D01*
X139829586Y-137768171D01*
X140074865Y-137809100D01*
X140323535Y-137809100D01*
X140568814Y-137768171D01*
X140804010Y-137687428D01*
X141022709Y-137569074D01*
X141218944Y-137416338D01*
X141387364Y-137233385D01*
X141523373Y-137025207D01*
X141623263Y-136797481D01*
X141684308Y-136556421D01*
X141704843Y-136308600D01*
X141704843Y-136308594D01*
X145193557Y-136308594D01*
X145193557Y-136308605D01*
X145214090Y-136556412D01*
X145214092Y-136556424D01*
X145275136Y-136797481D01*
X145375026Y-137025206D01*
X145511033Y-137233382D01*
X145511036Y-137233385D01*
X145679456Y-137416338D01*
X145875691Y-137569074D01*
X145875693Y-137569075D01*
X146010287Y-137641914D01*
X146094390Y-137687428D01*
X146329586Y-137768171D01*
X146574865Y-137809100D01*
X146823535Y-137809100D01*
X147068814Y-137768171D01*
X147304010Y-137687428D01*
X147522709Y-137569074D01*
X147718944Y-137416338D01*
X147887364Y-137233385D01*
X148023373Y-137025207D01*
X148123263Y-136797481D01*
X148184308Y-136556421D01*
X148204843Y-136308600D01*
X148204843Y-136308594D01*
X150693557Y-136308594D01*
X150693557Y-136308605D01*
X150714090Y-136556412D01*
X150714092Y-136556424D01*
X150775136Y-136797481D01*
X150875026Y-137025206D01*
X151011033Y-137233382D01*
X151011036Y-137233385D01*
X151179456Y-137416338D01*
X151375691Y-137569074D01*
X151375693Y-137569075D01*
X151510287Y-137641914D01*
X151594390Y-137687428D01*
X151829586Y-137768171D01*
X152074865Y-137809100D01*
X152323535Y-137809100D01*
X152568814Y-137768171D01*
X152804010Y-137687428D01*
X153022709Y-137569074D01*
X153218944Y-137416338D01*
X153387364Y-137233385D01*
X153523373Y-137025207D01*
X153623263Y-136797481D01*
X153684308Y-136556421D01*
X153704843Y-136308600D01*
X153704843Y-136308594D01*
X157193557Y-136308594D01*
X157193557Y-136308605D01*
X157214090Y-136556412D01*
X157214092Y-136556424D01*
X157275136Y-136797481D01*
X157375026Y-137025206D01*
X157511033Y-137233382D01*
X157511036Y-137233385D01*
X157679456Y-137416338D01*
X157875691Y-137569074D01*
X157875693Y-137569075D01*
X158010287Y-137641914D01*
X158094390Y-137687428D01*
X158329586Y-137768171D01*
X158574865Y-137809100D01*
X158823535Y-137809100D01*
X159068814Y-137768171D01*
X159304010Y-137687428D01*
X159522709Y-137569074D01*
X159718944Y-137416338D01*
X159887364Y-137233385D01*
X160023373Y-137025207D01*
X160123263Y-136797481D01*
X160184308Y-136556421D01*
X160204843Y-136308600D01*
X160184308Y-136060779D01*
X160123263Y-135819719D01*
X160023373Y-135591993D01*
X159887366Y-135383817D01*
X159853700Y-135347246D01*
X159718944Y-135200862D01*
X159522709Y-135048126D01*
X159522707Y-135048125D01*
X159522706Y-135048124D01*
X159304011Y-134929772D01*
X159304002Y-134929769D01*
X159068816Y-134849029D01*
X158823535Y-134808100D01*
X158574865Y-134808100D01*
X158329583Y-134849029D01*
X158094397Y-134929769D01*
X158094388Y-134929772D01*
X157875693Y-135048124D01*
X157679457Y-135200861D01*
X157511033Y-135383817D01*
X157375026Y-135591993D01*
X157275136Y-135819718D01*
X157214092Y-136060775D01*
X157214090Y-136060787D01*
X157193557Y-136308594D01*
X153704843Y-136308594D01*
X153684308Y-136060779D01*
X153623263Y-135819719D01*
X153523373Y-135591993D01*
X153387366Y-135383817D01*
X153353700Y-135347246D01*
X153218944Y-135200862D01*
X153022709Y-135048126D01*
X153022707Y-135048125D01*
X153022706Y-135048124D01*
X152804011Y-134929772D01*
X152804002Y-134929769D01*
X152568816Y-134849029D01*
X152323535Y-134808100D01*
X152074865Y-134808100D01*
X151829583Y-134849029D01*
X151594397Y-134929769D01*
X151594388Y-134929772D01*
X151375693Y-135048124D01*
X151179457Y-135200861D01*
X151011033Y-135383817D01*
X150875026Y-135591993D01*
X150775136Y-135819718D01*
X150714092Y-136060775D01*
X150714090Y-136060787D01*
X150693557Y-136308594D01*
X148204843Y-136308594D01*
X148184308Y-136060779D01*
X148123263Y-135819719D01*
X148023373Y-135591993D01*
X147887366Y-135383817D01*
X147853700Y-135347246D01*
X147718944Y-135200862D01*
X147522709Y-135048126D01*
X147522707Y-135048125D01*
X147522706Y-135048124D01*
X147304011Y-134929772D01*
X147304002Y-134929769D01*
X147068816Y-134849029D01*
X146823535Y-134808100D01*
X146574865Y-134808100D01*
X146329583Y-134849029D01*
X146094397Y-134929769D01*
X146094388Y-134929772D01*
X145875693Y-135048124D01*
X145679457Y-135200861D01*
X145511033Y-135383817D01*
X145375026Y-135591993D01*
X145275136Y-135819718D01*
X145214092Y-136060775D01*
X145214090Y-136060787D01*
X145193557Y-136308594D01*
X141704843Y-136308594D01*
X141684308Y-136060779D01*
X141623263Y-135819719D01*
X141523373Y-135591993D01*
X141387366Y-135383817D01*
X141353700Y-135347246D01*
X141218944Y-135200862D01*
X141022709Y-135048126D01*
X141022707Y-135048125D01*
X141022706Y-135048124D01*
X140804011Y-134929772D01*
X140804002Y-134929769D01*
X140568816Y-134849029D01*
X140323535Y-134808100D01*
X140074865Y-134808100D01*
X139829583Y-134849029D01*
X139594397Y-134929769D01*
X139594388Y-134929772D01*
X139375693Y-135048124D01*
X139179457Y-135200861D01*
X139011033Y-135383817D01*
X138875026Y-135591993D01*
X138775136Y-135819718D01*
X138714092Y-136060775D01*
X138714090Y-136060787D01*
X138693557Y-136308594D01*
X116306443Y-136308594D01*
X116285908Y-136060779D01*
X116224863Y-135819719D01*
X116124973Y-135591993D01*
X115988966Y-135383817D01*
X115955300Y-135347246D01*
X115820544Y-135200862D01*
X115624309Y-135048126D01*
X115624307Y-135048125D01*
X115624306Y-135048124D01*
X115405611Y-134929772D01*
X115405602Y-134929769D01*
X115170416Y-134849029D01*
X114925135Y-134808100D01*
X114676465Y-134808100D01*
X114431183Y-134849029D01*
X114195997Y-134929769D01*
X114195988Y-134929772D01*
X113977293Y-135048124D01*
X113781057Y-135200861D01*
X113612633Y-135383817D01*
X113476626Y-135591993D01*
X113376736Y-135819718D01*
X113315692Y-136060775D01*
X113315690Y-136060787D01*
X113295157Y-136308594D01*
X109806443Y-136308594D01*
X109785908Y-136060779D01*
X109724863Y-135819719D01*
X109624973Y-135591993D01*
X109488966Y-135383817D01*
X109455300Y-135347246D01*
X109320544Y-135200862D01*
X109124309Y-135048126D01*
X109124307Y-135048125D01*
X109124306Y-135048124D01*
X108905611Y-134929772D01*
X108905602Y-134929769D01*
X108670416Y-134849029D01*
X108425135Y-134808100D01*
X108176465Y-134808100D01*
X107931183Y-134849029D01*
X107695997Y-134929769D01*
X107695988Y-134929772D01*
X107477293Y-135048124D01*
X107281057Y-135200861D01*
X107112633Y-135383817D01*
X106976626Y-135591993D01*
X106876736Y-135819718D01*
X106815692Y-136060775D01*
X106815690Y-136060787D01*
X106795157Y-136308594D01*
X104306443Y-136308594D01*
X104285908Y-136060779D01*
X104224863Y-135819719D01*
X104124973Y-135591993D01*
X103988966Y-135383817D01*
X103955300Y-135347246D01*
X103820544Y-135200862D01*
X103624309Y-135048126D01*
X103624307Y-135048125D01*
X103624306Y-135048124D01*
X103405611Y-134929772D01*
X103405602Y-134929769D01*
X103170416Y-134849029D01*
X102925135Y-134808100D01*
X102676465Y-134808100D01*
X102431183Y-134849029D01*
X102195997Y-134929769D01*
X102195988Y-134929772D01*
X101992755Y-135039757D01*
X101977291Y-135048126D01*
X101901995Y-135106731D01*
X101846462Y-135149954D01*
X101781468Y-135175596D01*
X101712928Y-135162029D01*
X101662603Y-135113561D01*
X101646300Y-135052100D01*
X101646300Y-127863696D01*
X101665985Y-127796657D01*
X101682615Y-127776019D01*
X102197252Y-127261381D01*
X102258573Y-127227898D01*
X102325192Y-127231782D01*
X102397150Y-127256486D01*
X102431185Y-127268171D01*
X102676465Y-127309100D01*
X102925135Y-127309100D01*
X103170414Y-127268171D01*
X103405610Y-127187428D01*
X103624309Y-127069074D01*
X103820544Y-126916338D01*
X103988964Y-126733385D01*
X104124973Y-126525207D01*
X104224863Y-126297481D01*
X104285908Y-126056421D01*
X104288545Y-126024596D01*
X104306443Y-125808605D01*
X104306443Y-125808594D01*
X104285909Y-125560787D01*
X104285907Y-125560775D01*
X104224863Y-125319718D01*
X104124973Y-125091993D01*
X103988966Y-124883817D01*
X103967357Y-124860344D01*
X103820544Y-124700862D01*
X103624309Y-124548126D01*
X103624307Y-124548125D01*
X103624306Y-124548124D01*
X103405611Y-124429772D01*
X103405602Y-124429769D01*
X103170416Y-124349029D01*
X102925135Y-124308100D01*
X102676465Y-124308100D01*
X102431183Y-124349029D01*
X102195997Y-124429769D01*
X102195988Y-124429772D01*
X101977293Y-124548124D01*
X101781057Y-124700861D01*
X101612633Y-124883817D01*
X101476626Y-125091993D01*
X101376736Y-125319718D01*
X101315692Y-125560775D01*
X101315690Y-125560787D01*
X101295157Y-125808594D01*
X101295157Y-125808605D01*
X101315690Y-126056412D01*
X101315692Y-126056424D01*
X101376807Y-126297760D01*
X101374182Y-126367580D01*
X101344282Y-126415881D01*
X100677086Y-127083078D01*
X100565281Y-127194882D01*
X100565280Y-127194884D01*
X100527397Y-127260500D01*
X100486223Y-127331815D01*
X100445299Y-127484543D01*
X100445299Y-127484545D01*
X100445299Y-127652646D01*
X100445300Y-127652659D01*
X100445300Y-136708930D01*
X100445299Y-136708948D01*
X100445299Y-136874654D01*
X100445298Y-136874654D01*
X97691012Y-136874654D01*
X97724863Y-136797481D01*
X97785908Y-136556421D01*
X97806443Y-136308600D01*
X97785908Y-136060779D01*
X97724863Y-135819719D01*
X97624973Y-135591993D01*
X97488966Y-135383817D01*
X97455300Y-135347246D01*
X97320544Y-135200862D01*
X97124309Y-135048126D01*
X97124307Y-135048125D01*
X97124306Y-135048124D01*
X96905611Y-134929772D01*
X96905602Y-134929769D01*
X96670416Y-134849029D01*
X96425135Y-134808100D01*
X96176465Y-134808100D01*
X95931183Y-134849029D01*
X95695997Y-134929769D01*
X95695988Y-134929772D01*
X95477293Y-135048124D01*
X95281057Y-135200861D01*
X95112633Y-135383817D01*
X94976626Y-135591993D01*
X94876736Y-135819718D01*
X94815692Y-136060775D01*
X94815690Y-136060787D01*
X94795157Y-136308594D01*
X93365900Y-136308594D01*
X93365900Y-125808594D01*
X94795157Y-125808594D01*
X94795157Y-125808605D01*
X94815690Y-126056412D01*
X94815692Y-126056424D01*
X94876736Y-126297481D01*
X94976626Y-126525206D01*
X95112633Y-126733382D01*
X95112636Y-126733385D01*
X95281056Y-126916338D01*
X95477291Y-127069074D01*
X95695990Y-127187428D01*
X95931186Y-127268171D01*
X96176465Y-127309100D01*
X96425135Y-127309100D01*
X96670414Y-127268171D01*
X96905610Y-127187428D01*
X97124309Y-127069074D01*
X97320544Y-126916338D01*
X97488964Y-126733385D01*
X97624973Y-126525207D01*
X97724863Y-126297481D01*
X97785908Y-126056421D01*
X97788545Y-126024596D01*
X97806443Y-125808605D01*
X97806443Y-125808594D01*
X97785909Y-125560787D01*
X97785907Y-125560775D01*
X97724863Y-125319718D01*
X97624973Y-125091993D01*
X97488966Y-124883817D01*
X97467357Y-124860344D01*
X97320544Y-124700862D01*
X97124309Y-124548126D01*
X97124307Y-124548125D01*
X97124306Y-124548124D01*
X96905611Y-124429772D01*
X96905602Y-124429769D01*
X96670416Y-124349029D01*
X96425135Y-124308100D01*
X96176465Y-124308100D01*
X95931183Y-124349029D01*
X95695997Y-124429769D01*
X95695988Y-124429772D01*
X95477293Y-124548124D01*
X95281057Y-124700861D01*
X95112633Y-124883817D01*
X94976626Y-125091993D01*
X94876736Y-125319718D01*
X94815692Y-125560775D01*
X94815690Y-125560787D01*
X94795157Y-125808594D01*
X93365900Y-125808594D01*
X93365900Y-121308594D01*
X94795157Y-121308594D01*
X94795157Y-121308605D01*
X94815690Y-121556412D01*
X94815692Y-121556424D01*
X94876736Y-121797481D01*
X94976626Y-122025206D01*
X95112633Y-122233382D01*
X95112636Y-122233385D01*
X95281056Y-122416338D01*
X95477291Y-122569074D01*
X95695990Y-122687428D01*
X95931186Y-122768171D01*
X96176465Y-122809100D01*
X96425135Y-122809100D01*
X96670414Y-122768171D01*
X96905610Y-122687428D01*
X97124309Y-122569074D01*
X97320544Y-122416338D01*
X97488964Y-122233385D01*
X97624973Y-122025207D01*
X97724863Y-121797481D01*
X97785908Y-121556421D01*
X97785909Y-121556412D01*
X97806443Y-121308605D01*
X97806443Y-121308594D01*
X101295157Y-121308594D01*
X101295157Y-121308605D01*
X101315690Y-121556412D01*
X101315692Y-121556424D01*
X101376736Y-121797481D01*
X101476626Y-122025206D01*
X101612633Y-122233382D01*
X101612636Y-122233385D01*
X101781056Y-122416338D01*
X101977291Y-122569074D01*
X102195990Y-122687428D01*
X102431186Y-122768171D01*
X102676465Y-122809100D01*
X102925135Y-122809100D01*
X103170414Y-122768171D01*
X103405610Y-122687428D01*
X103624309Y-122569074D01*
X103820544Y-122416338D01*
X103988964Y-122233385D01*
X104124973Y-122025207D01*
X104224863Y-121797481D01*
X104285908Y-121556421D01*
X104285909Y-121556412D01*
X104306443Y-121308605D01*
X104306443Y-121308594D01*
X104285909Y-121060787D01*
X104285907Y-121060775D01*
X104224863Y-120819718D01*
X104124973Y-120591993D01*
X103988966Y-120383817D01*
X103967357Y-120360344D01*
X103820544Y-120200862D01*
X103624309Y-120048126D01*
X103624307Y-120048125D01*
X103624306Y-120048124D01*
X103405611Y-119929772D01*
X103405602Y-119929769D01*
X103170416Y-119849029D01*
X102925135Y-119808100D01*
X102676465Y-119808100D01*
X102431183Y-119849029D01*
X102195997Y-119929769D01*
X102195988Y-119929772D01*
X101977293Y-120048124D01*
X101781057Y-120200861D01*
X101612633Y-120383817D01*
X101476626Y-120591993D01*
X101376736Y-120819718D01*
X101315692Y-121060775D01*
X101315690Y-121060787D01*
X101295157Y-121308594D01*
X97806443Y-121308594D01*
X97785909Y-121060787D01*
X97785907Y-121060775D01*
X97724863Y-120819718D01*
X97624973Y-120591993D01*
X97488966Y-120383817D01*
X97467357Y-120360344D01*
X97320544Y-120200862D01*
X97124309Y-120048126D01*
X97124307Y-120048125D01*
X97124306Y-120048124D01*
X96905611Y-119929772D01*
X96905602Y-119929769D01*
X96670416Y-119849029D01*
X96425135Y-119808100D01*
X96176465Y-119808100D01*
X95931183Y-119849029D01*
X95695997Y-119929769D01*
X95695988Y-119929772D01*
X95477293Y-120048124D01*
X95281057Y-120200861D01*
X95112633Y-120383817D01*
X94976626Y-120591993D01*
X94876736Y-120819718D01*
X94815692Y-121060775D01*
X94815690Y-121060787D01*
X94795157Y-121308594D01*
X93365900Y-121308594D01*
X93365900Y-118726067D01*
X93385585Y-118659028D01*
X93438389Y-118613273D01*
X93507547Y-118603329D01*
X93548918Y-118617013D01*
X93715979Y-118707423D01*
X93715985Y-118707425D01*
X93715990Y-118707428D01*
X93951186Y-118788171D01*
X94196465Y-118829100D01*
X94445135Y-118829100D01*
X94690414Y-118788171D01*
X94925610Y-118707428D01*
X95144309Y-118589074D01*
X95340544Y-118436338D01*
X95508964Y-118253385D01*
X95644973Y-118045207D01*
X95744863Y-117817481D01*
X95805908Y-117576421D01*
X95815061Y-117465965D01*
X95826443Y-117328605D01*
X95826443Y-117328594D01*
X103275157Y-117328594D01*
X103275157Y-117328605D01*
X103295690Y-117576412D01*
X103295692Y-117576424D01*
X103356736Y-117817481D01*
X103456626Y-118045206D01*
X103592633Y-118253382D01*
X103592636Y-118253385D01*
X103761056Y-118436338D01*
X103957291Y-118589074D01*
X104175990Y-118707428D01*
X104411186Y-118788171D01*
X104656465Y-118829100D01*
X104905135Y-118829100D01*
X105150414Y-118788171D01*
X105385610Y-118707428D01*
X105604309Y-118589074D01*
X105800544Y-118436338D01*
X105968964Y-118253385D01*
X106104973Y-118045207D01*
X106204863Y-117817481D01*
X106265908Y-117576421D01*
X106275061Y-117465965D01*
X106286443Y-117328605D01*
X106286443Y-117328594D01*
X109775157Y-117328594D01*
X109775157Y-117328605D01*
X109795690Y-117576412D01*
X109795692Y-117576424D01*
X109856736Y-117817481D01*
X109956626Y-118045206D01*
X110092633Y-118253382D01*
X110092636Y-118253385D01*
X110261056Y-118436338D01*
X110457291Y-118589074D01*
X110675990Y-118707428D01*
X110911186Y-118788171D01*
X111156465Y-118829100D01*
X111405135Y-118829100D01*
X111650414Y-118788171D01*
X111885610Y-118707428D01*
X112104309Y-118589074D01*
X112300544Y-118436338D01*
X112468964Y-118253385D01*
X112604973Y-118045207D01*
X112704863Y-117817481D01*
X112765908Y-117576421D01*
X112775061Y-117465965D01*
X112786443Y-117328605D01*
X112786443Y-117328594D01*
X112765909Y-117080787D01*
X112765907Y-117080775D01*
X112704863Y-116839718D01*
X112604973Y-116611993D01*
X112468966Y-116403817D01*
X112447357Y-116380344D01*
X112300544Y-116220862D01*
X112104309Y-116068126D01*
X112104307Y-116068125D01*
X112104306Y-116068124D01*
X111885611Y-115949772D01*
X111885602Y-115949769D01*
X111650416Y-115869029D01*
X111405135Y-115828100D01*
X111156465Y-115828100D01*
X110911183Y-115869029D01*
X110675997Y-115949769D01*
X110675988Y-115949772D01*
X110457293Y-116068124D01*
X110261057Y-116220861D01*
X110092633Y-116403817D01*
X109956626Y-116611993D01*
X109856736Y-116839718D01*
X109795692Y-117080775D01*
X109795690Y-117080787D01*
X109775157Y-117328594D01*
X106286443Y-117328594D01*
X106265909Y-117080787D01*
X106265907Y-117080775D01*
X106204863Y-116839718D01*
X106104973Y-116611993D01*
X105968966Y-116403817D01*
X105947357Y-116380344D01*
X105800544Y-116220862D01*
X105604309Y-116068126D01*
X105604307Y-116068125D01*
X105604306Y-116068124D01*
X105385611Y-115949772D01*
X105385602Y-115949769D01*
X105150416Y-115869029D01*
X104905135Y-115828100D01*
X104656465Y-115828100D01*
X104411183Y-115869029D01*
X104175997Y-115949769D01*
X104175988Y-115949772D01*
X103957293Y-116068124D01*
X103761057Y-116220861D01*
X103592633Y-116403817D01*
X103456626Y-116611993D01*
X103356736Y-116839718D01*
X103295692Y-117080775D01*
X103295690Y-117080787D01*
X103275157Y-117328594D01*
X95826443Y-117328594D01*
X95805909Y-117080787D01*
X95805907Y-117080775D01*
X95744863Y-116839718D01*
X95644973Y-116611993D01*
X95508966Y-116403817D01*
X95487357Y-116380344D01*
X95340544Y-116220862D01*
X95144309Y-116068126D01*
X95144307Y-116068125D01*
X95144306Y-116068124D01*
X94925611Y-115949772D01*
X94925602Y-115949769D01*
X94690415Y-115869028D01*
X94678285Y-115867004D01*
X94615401Y-115836550D01*
X94578964Y-115776934D01*
X94580543Y-115707082D01*
X94611017Y-115657017D01*
X96705306Y-113562727D01*
X96705311Y-113562724D01*
X96715514Y-113552520D01*
X96715516Y-113552520D01*
X96827320Y-113440716D01*
X96906377Y-113303784D01*
X96947300Y-113151057D01*
X96947300Y-112828594D01*
X103275157Y-112828594D01*
X103275157Y-112828605D01*
X103295690Y-113076412D01*
X103295692Y-113076424D01*
X103356736Y-113317481D01*
X103456626Y-113545206D01*
X103592633Y-113753382D01*
X103592636Y-113753385D01*
X103761056Y-113936338D01*
X103957291Y-114089074D01*
X104175990Y-114207428D01*
X104411186Y-114288171D01*
X104656465Y-114329100D01*
X104905135Y-114329100D01*
X105150414Y-114288171D01*
X105385610Y-114207428D01*
X105604309Y-114089074D01*
X105800544Y-113936338D01*
X105968964Y-113753385D01*
X106104973Y-113545207D01*
X106204863Y-113317481D01*
X106265908Y-113076421D01*
X106282004Y-112882171D01*
X106286443Y-112828605D01*
X106286443Y-112828594D01*
X109775157Y-112828594D01*
X109775157Y-112828605D01*
X109795690Y-113076412D01*
X109795692Y-113076424D01*
X109856736Y-113317481D01*
X109956626Y-113545206D01*
X110092633Y-113753382D01*
X110092636Y-113753385D01*
X110261056Y-113936338D01*
X110457291Y-114089074D01*
X110675990Y-114207428D01*
X110911186Y-114288171D01*
X111156465Y-114329100D01*
X111405135Y-114329100D01*
X111650414Y-114288171D01*
X111885610Y-114207428D01*
X112104309Y-114089074D01*
X112300544Y-113936338D01*
X112468964Y-113753385D01*
X112604973Y-113545207D01*
X112704863Y-113317481D01*
X112765908Y-113076421D01*
X112782004Y-112882171D01*
X112786443Y-112828605D01*
X112786443Y-112828594D01*
X112765909Y-112580787D01*
X112765907Y-112580775D01*
X112704863Y-112339718D01*
X112604973Y-112111993D01*
X112468966Y-111903817D01*
X112419953Y-111850575D01*
X112300544Y-111720862D01*
X112104309Y-111568126D01*
X112104307Y-111568125D01*
X112104306Y-111568124D01*
X111885611Y-111449772D01*
X111885602Y-111449769D01*
X111650416Y-111369029D01*
X111405135Y-111328100D01*
X111156465Y-111328100D01*
X110911183Y-111369029D01*
X110675997Y-111449769D01*
X110675988Y-111449772D01*
X110457293Y-111568124D01*
X110261057Y-111720861D01*
X110092633Y-111903817D01*
X109956626Y-112111993D01*
X109856736Y-112339718D01*
X109795692Y-112580775D01*
X109795690Y-112580787D01*
X109775157Y-112828594D01*
X106286443Y-112828594D01*
X106265909Y-112580787D01*
X106265907Y-112580775D01*
X106204863Y-112339718D01*
X106104973Y-112111993D01*
X105968966Y-111903817D01*
X105919953Y-111850575D01*
X105800544Y-111720862D01*
X105604309Y-111568126D01*
X105604307Y-111568125D01*
X105604306Y-111568124D01*
X105385611Y-111449772D01*
X105385602Y-111449769D01*
X105150416Y-111369029D01*
X104905135Y-111328100D01*
X104656465Y-111328100D01*
X104411183Y-111369029D01*
X104175997Y-111449769D01*
X104175988Y-111449772D01*
X103957293Y-111568124D01*
X103761057Y-111720861D01*
X103592633Y-111903817D01*
X103456626Y-112111993D01*
X103356736Y-112339718D01*
X103295692Y-112580775D01*
X103295690Y-112580787D01*
X103275157Y-112828594D01*
X96947300Y-112828594D01*
X96947300Y-110278754D01*
X96966985Y-110211715D01*
X97012283Y-110169699D01*
X97124309Y-110109074D01*
X97320544Y-109956338D01*
X97488964Y-109773385D01*
X97624973Y-109565207D01*
X97724863Y-109337481D01*
X97785908Y-109096421D01*
X97806443Y-108848600D01*
X97806443Y-108848594D01*
X101295157Y-108848594D01*
X101295157Y-108848605D01*
X101315690Y-109096412D01*
X101315692Y-109096424D01*
X101376736Y-109337481D01*
X101476626Y-109565206D01*
X101612633Y-109773382D01*
X101612636Y-109773385D01*
X101781056Y-109956338D01*
X101977291Y-110109074D01*
X102195990Y-110227428D01*
X102431186Y-110308171D01*
X102676465Y-110349100D01*
X102925135Y-110349100D01*
X103170414Y-110308171D01*
X103405610Y-110227428D01*
X103624309Y-110109074D01*
X103820544Y-109956338D01*
X103988964Y-109773385D01*
X104124973Y-109565207D01*
X104224863Y-109337481D01*
X104285908Y-109096421D01*
X104306443Y-108848600D01*
X104295406Y-108715408D01*
X104285909Y-108600787D01*
X104285907Y-108600775D01*
X104224863Y-108359718D01*
X104124973Y-108131993D01*
X103988966Y-107923817D01*
X103967357Y-107900344D01*
X103820544Y-107740862D01*
X103624309Y-107588126D01*
X103624307Y-107588125D01*
X103624306Y-107588124D01*
X103405611Y-107469772D01*
X103405602Y-107469769D01*
X103170416Y-107389029D01*
X102925135Y-107348100D01*
X102676465Y-107348100D01*
X102431183Y-107389029D01*
X102195997Y-107469769D01*
X102195988Y-107469772D01*
X101977293Y-107588124D01*
X101781057Y-107740861D01*
X101612633Y-107923817D01*
X101476626Y-108131993D01*
X101376736Y-108359718D01*
X101315692Y-108600775D01*
X101315690Y-108600787D01*
X101295157Y-108848594D01*
X97806443Y-108848594D01*
X97795406Y-108715408D01*
X97785909Y-108600787D01*
X97785907Y-108600775D01*
X97724863Y-108359718D01*
X97624973Y-108131993D01*
X97488966Y-107923817D01*
X97467357Y-107900344D01*
X97320544Y-107740862D01*
X97124309Y-107588126D01*
X97124307Y-107588125D01*
X97124306Y-107588124D01*
X96905611Y-107469772D01*
X96905602Y-107469769D01*
X96670416Y-107389029D01*
X96425135Y-107348100D01*
X96176465Y-107348100D01*
X95931183Y-107389029D01*
X95695997Y-107469769D01*
X95695988Y-107469772D01*
X95477293Y-107588124D01*
X95281057Y-107740861D01*
X95112633Y-107923817D01*
X94976626Y-108131993D01*
X94876736Y-108359718D01*
X94815692Y-108600775D01*
X94815690Y-108600787D01*
X94795157Y-108848594D01*
X94795157Y-108848605D01*
X94815690Y-109096412D01*
X94815692Y-109096424D01*
X94876736Y-109337481D01*
X94976626Y-109565206D01*
X95112633Y-109773382D01*
X95112636Y-109773385D01*
X95281056Y-109956338D01*
X95477291Y-110109074D01*
X95477294Y-110109076D01*
X95477296Y-110109077D01*
X95550323Y-110148597D01*
X95681317Y-110219487D01*
X95730908Y-110268706D01*
X95746300Y-110328542D01*
X95746300Y-111850575D01*
X95726615Y-111917614D01*
X95673811Y-111963369D01*
X95604653Y-111973313D01*
X95541097Y-111944288D01*
X95518492Y-111918398D01*
X95508965Y-111903816D01*
X95459953Y-111850575D01*
X95340544Y-111720862D01*
X95144309Y-111568126D01*
X95144307Y-111568125D01*
X95144306Y-111568124D01*
X94925611Y-111449772D01*
X94925602Y-111449769D01*
X94690416Y-111369029D01*
X94445135Y-111328100D01*
X94196465Y-111328100D01*
X93951183Y-111369029D01*
X93715997Y-111449769D01*
X93715988Y-111449772D01*
X93497293Y-111568124D01*
X93301057Y-111720861D01*
X93132633Y-111903817D01*
X92996626Y-112111993D01*
X92896736Y-112339718D01*
X92835692Y-112580775D01*
X92835690Y-112580787D01*
X92815157Y-112828594D01*
X92815157Y-112828605D01*
X92835690Y-113076412D01*
X92835692Y-113076424D01*
X92896736Y-113317481D01*
X92996626Y-113545206D01*
X93132633Y-113753382D01*
X93132636Y-113753385D01*
X93301056Y-113936338D01*
X93497291Y-114089074D01*
X93715990Y-114207428D01*
X93951186Y-114288171D01*
X93996559Y-114295742D01*
X94059445Y-114326191D01*
X94095885Y-114385806D01*
X94094311Y-114455658D01*
X94063832Y-114505732D01*
X92284881Y-116284682D01*
X92284879Y-116284684D01*
X92267261Y-116315200D01*
X92259814Y-116328100D01*
X92205823Y-116421615D01*
X92164899Y-116574343D01*
X92164899Y-116574345D01*
X92164899Y-116742446D01*
X92164900Y-116742459D01*
X92164900Y-137186530D01*
X92164899Y-137186548D01*
X92164899Y-137352254D01*
X92164898Y-137352254D01*
X78500500Y-137352254D01*
X78500500Y-117328594D01*
X86315157Y-117328594D01*
X86315157Y-117328605D01*
X86335690Y-117576412D01*
X86335692Y-117576424D01*
X86396736Y-117817481D01*
X86496626Y-118045206D01*
X86632633Y-118253382D01*
X86632636Y-118253385D01*
X86801056Y-118436338D01*
X86997291Y-118589074D01*
X87215990Y-118707428D01*
X87451186Y-118788171D01*
X87696465Y-118829100D01*
X87945135Y-118829100D01*
X88190414Y-118788171D01*
X88425610Y-118707428D01*
X88644309Y-118589074D01*
X88840544Y-118436338D01*
X89008964Y-118253385D01*
X89144973Y-118045207D01*
X89244863Y-117817481D01*
X89305908Y-117576421D01*
X89315061Y-117465965D01*
X89326443Y-117328605D01*
X89326443Y-117328594D01*
X89305909Y-117080787D01*
X89305907Y-117080775D01*
X89244863Y-116839718D01*
X89144973Y-116611993D01*
X89008966Y-116403817D01*
X88987357Y-116380344D01*
X88840544Y-116220862D01*
X88644309Y-116068126D01*
X88644307Y-116068125D01*
X88644306Y-116068124D01*
X88425611Y-115949772D01*
X88425602Y-115949769D01*
X88190416Y-115869029D01*
X87945135Y-115828100D01*
X87696465Y-115828100D01*
X87451183Y-115869029D01*
X87215997Y-115949769D01*
X87215988Y-115949772D01*
X86997293Y-116068124D01*
X86801057Y-116220861D01*
X86632633Y-116403817D01*
X86496626Y-116611993D01*
X86396736Y-116839718D01*
X86335692Y-117080775D01*
X86335690Y-117080787D01*
X86315157Y-117328594D01*
X78500500Y-117328594D01*
X78500500Y-112828594D01*
X86315157Y-112828594D01*
X86315157Y-112828605D01*
X86335690Y-113076412D01*
X86335692Y-113076424D01*
X86396736Y-113317481D01*
X86496626Y-113545206D01*
X86632633Y-113753382D01*
X86632636Y-113753385D01*
X86801056Y-113936338D01*
X86997291Y-114089074D01*
X87215990Y-114207428D01*
X87451186Y-114288171D01*
X87696465Y-114329100D01*
X87945135Y-114329100D01*
X88190414Y-114288171D01*
X88425610Y-114207428D01*
X88644309Y-114089074D01*
X88840544Y-113936338D01*
X89008964Y-113753385D01*
X89144973Y-113545207D01*
X89244863Y-113317481D01*
X89305908Y-113076421D01*
X89322004Y-112882171D01*
X89326443Y-112828605D01*
X89326443Y-112828594D01*
X89305909Y-112580787D01*
X89305907Y-112580775D01*
X89244863Y-112339718D01*
X89144973Y-112111993D01*
X89008966Y-111903817D01*
X88959953Y-111850575D01*
X88840544Y-111720862D01*
X88644309Y-111568126D01*
X88644307Y-111568125D01*
X88644306Y-111568124D01*
X88425611Y-111449772D01*
X88425602Y-111449769D01*
X88190416Y-111369029D01*
X87945135Y-111328100D01*
X87696465Y-111328100D01*
X87451183Y-111369029D01*
X87215997Y-111449769D01*
X87215988Y-111449772D01*
X86997293Y-111568124D01*
X86801057Y-111720861D01*
X86632633Y-111903817D01*
X86496626Y-112111993D01*
X86396736Y-112339718D01*
X86335692Y-112580775D01*
X86335690Y-112580787D01*
X86315157Y-112828594D01*
X78500500Y-112828594D01*
X78500500Y-105147198D01*
X83001732Y-105147198D01*
X83001732Y-105147201D01*
X83021564Y-105373886D01*
X83021566Y-105373897D01*
X83080458Y-105593688D01*
X83080461Y-105593697D01*
X83176631Y-105799932D01*
X83176632Y-105799934D01*
X83307154Y-105986341D01*
X83468058Y-106147245D01*
X83468061Y-106147247D01*
X83654466Y-106277768D01*
X83860704Y-106373939D01*
X84080508Y-106432835D01*
X84242430Y-106447001D01*
X84307198Y-106452668D01*
X84307200Y-106452668D01*
X84307202Y-106452668D01*
X84363873Y-106447709D01*
X84533892Y-106432835D01*
X84753696Y-106373939D01*
X84959934Y-106277768D01*
X85146339Y-106147247D01*
X85307247Y-105986339D01*
X85437768Y-105799934D01*
X85533939Y-105593696D01*
X85592835Y-105373892D01*
X85612668Y-105147200D01*
X85592835Y-104920508D01*
X85533939Y-104700704D01*
X85437768Y-104494466D01*
X85335628Y-104348594D01*
X94795157Y-104348594D01*
X94795157Y-104348605D01*
X94815690Y-104596412D01*
X94815692Y-104596424D01*
X94876736Y-104837481D01*
X94976626Y-105065206D01*
X95112633Y-105273382D01*
X95112636Y-105273385D01*
X95281056Y-105456338D01*
X95477291Y-105609074D01*
X95695990Y-105727428D01*
X95931186Y-105808171D01*
X96176465Y-105849100D01*
X96425135Y-105849100D01*
X96670414Y-105808171D01*
X96905610Y-105727428D01*
X97124309Y-105609074D01*
X97320544Y-105456338D01*
X97488964Y-105273385D01*
X97624973Y-105065207D01*
X97724863Y-104837481D01*
X97785908Y-104596421D01*
X97785909Y-104596412D01*
X97806443Y-104348605D01*
X97806443Y-104348594D01*
X101295157Y-104348594D01*
X101295157Y-104348605D01*
X101315690Y-104596412D01*
X101315692Y-104596424D01*
X101376736Y-104837481D01*
X101476626Y-105065206D01*
X101612633Y-105273382D01*
X101612636Y-105273385D01*
X101781056Y-105456338D01*
X101977291Y-105609074D01*
X102195990Y-105727428D01*
X102431186Y-105808171D01*
X102676465Y-105849100D01*
X102925135Y-105849100D01*
X103170414Y-105808171D01*
X103405610Y-105727428D01*
X103624309Y-105609074D01*
X103820544Y-105456338D01*
X103988964Y-105273385D01*
X104124973Y-105065207D01*
X104224863Y-104837481D01*
X104285908Y-104596421D01*
X104285909Y-104596412D01*
X104306443Y-104348605D01*
X104306443Y-104348594D01*
X104285909Y-104100787D01*
X104285907Y-104100775D01*
X104224863Y-103859718D01*
X104124973Y-103631993D01*
X103988966Y-103423817D01*
X103967040Y-103399999D01*
X103820544Y-103240862D01*
X103624309Y-103088126D01*
X103624307Y-103088125D01*
X103624306Y-103088124D01*
X103405611Y-102969772D01*
X103405602Y-102969769D01*
X103170416Y-102889029D01*
X102925135Y-102848100D01*
X102676465Y-102848100D01*
X102431183Y-102889029D01*
X102195997Y-102969769D01*
X102195988Y-102969772D01*
X101977293Y-103088124D01*
X101781057Y-103240861D01*
X101612633Y-103423817D01*
X101476626Y-103631993D01*
X101376736Y-103859718D01*
X101315692Y-104100775D01*
X101315690Y-104100787D01*
X101295157Y-104348594D01*
X97806443Y-104348594D01*
X97785909Y-104100787D01*
X97785907Y-104100775D01*
X97724863Y-103859718D01*
X97624973Y-103631993D01*
X97488966Y-103423817D01*
X97467040Y-103399999D01*
X97320544Y-103240862D01*
X97124309Y-103088126D01*
X97124307Y-103088125D01*
X97124306Y-103088124D01*
X96905611Y-102969772D01*
X96905602Y-102969769D01*
X96670416Y-102889029D01*
X96425135Y-102848100D01*
X96176465Y-102848100D01*
X95931183Y-102889029D01*
X95695997Y-102969769D01*
X95695988Y-102969772D01*
X95477293Y-103088124D01*
X95281057Y-103240861D01*
X95112633Y-103423817D01*
X94976626Y-103631993D01*
X94876736Y-103859718D01*
X94815692Y-104100775D01*
X94815690Y-104100787D01*
X94795157Y-104348594D01*
X85335628Y-104348594D01*
X85307247Y-104308061D01*
X85307245Y-104308058D01*
X85146341Y-104147154D01*
X84959934Y-104016632D01*
X84959932Y-104016631D01*
X84753697Y-103920461D01*
X84753688Y-103920458D01*
X84533897Y-103861566D01*
X84533893Y-103861565D01*
X84533892Y-103861565D01*
X84533891Y-103861564D01*
X84533886Y-103861564D01*
X84307202Y-103841732D01*
X84307198Y-103841732D01*
X84080513Y-103861564D01*
X84080502Y-103861566D01*
X83860711Y-103920458D01*
X83860702Y-103920461D01*
X83654467Y-104016631D01*
X83654465Y-104016632D01*
X83468058Y-104147154D01*
X83307154Y-104308058D01*
X83176632Y-104494465D01*
X83176631Y-104494467D01*
X83080461Y-104700702D01*
X83080458Y-104700711D01*
X83021566Y-104920502D01*
X83021564Y-104920513D01*
X83001732Y-105147198D01*
X78500500Y-105147198D01*
X78500500Y-97527198D01*
X83001732Y-97527198D01*
X83001732Y-97527201D01*
X83021564Y-97753886D01*
X83021566Y-97753897D01*
X83080458Y-97973688D01*
X83080461Y-97973697D01*
X83176631Y-98179932D01*
X83176632Y-98179934D01*
X83307154Y-98366341D01*
X83468058Y-98527245D01*
X83468061Y-98527247D01*
X83654466Y-98657768D01*
X83860704Y-98753939D01*
X84080508Y-98812835D01*
X84242430Y-98827001D01*
X84307198Y-98832668D01*
X84307200Y-98832668D01*
X84307202Y-98832668D01*
X84363873Y-98827709D01*
X84533892Y-98812835D01*
X84753696Y-98753939D01*
X84959934Y-98657768D01*
X85146339Y-98527247D01*
X85307247Y-98366339D01*
X85339694Y-98319999D01*
X118524341Y-98319999D01*
X118524341Y-98320000D01*
X118544936Y-98555403D01*
X118544938Y-98555413D01*
X118606094Y-98783655D01*
X118606096Y-98783659D01*
X118606097Y-98783663D01*
X118685801Y-98954588D01*
X118705965Y-98997830D01*
X118705967Y-98997834D01*
X118814281Y-99152521D01*
X118841504Y-99191400D01*
X118841506Y-99191402D01*
X119008597Y-99358493D01*
X119008603Y-99358498D01*
X119194158Y-99488425D01*
X119237783Y-99543002D01*
X119244977Y-99612500D01*
X119213454Y-99674855D01*
X119194158Y-99691575D01*
X119008597Y-99821505D01*
X118841505Y-99988597D01*
X118705965Y-100182169D01*
X118705964Y-100182171D01*
X118606098Y-100396335D01*
X118606094Y-100396344D01*
X118544938Y-100624586D01*
X118544936Y-100624596D01*
X118524341Y-100859999D01*
X118524341Y-100860000D01*
X118544936Y-101095403D01*
X118544938Y-101095413D01*
X118606094Y-101323655D01*
X118606096Y-101323659D01*
X118606097Y-101323663D01*
X118705965Y-101537830D01*
X118705967Y-101537834D01*
X118841501Y-101731395D01*
X118841506Y-101731402D01*
X119008597Y-101898493D01*
X119008603Y-101898498D01*
X119194158Y-102028425D01*
X119237783Y-102083002D01*
X119244977Y-102152500D01*
X119213454Y-102214855D01*
X119194158Y-102231575D01*
X119008597Y-102361505D01*
X118841505Y-102528597D01*
X118705965Y-102722169D01*
X118705964Y-102722171D01*
X118606098Y-102936335D01*
X118606094Y-102936344D01*
X118544938Y-103164586D01*
X118544936Y-103164596D01*
X118524341Y-103399999D01*
X118524341Y-103400000D01*
X118544936Y-103635403D01*
X118544938Y-103635413D01*
X118606094Y-103863655D01*
X118606096Y-103863659D01*
X118606097Y-103863663D01*
X118677428Y-104016632D01*
X118705965Y-104077830D01*
X118705967Y-104077834D01*
X118841501Y-104271395D01*
X118841506Y-104271402D01*
X119008597Y-104438493D01*
X119008603Y-104438498D01*
X119194158Y-104568425D01*
X119237783Y-104623002D01*
X119244977Y-104692500D01*
X119213454Y-104754855D01*
X119194158Y-104771575D01*
X119008597Y-104901505D01*
X118841505Y-105068597D01*
X118705965Y-105262169D01*
X118705964Y-105262171D01*
X118606098Y-105476335D01*
X118606094Y-105476344D01*
X118544938Y-105704586D01*
X118544936Y-105704596D01*
X118524341Y-105939999D01*
X118524341Y-105940000D01*
X118544936Y-106175403D01*
X118544938Y-106175413D01*
X118606094Y-106403655D01*
X118606096Y-106403659D01*
X118606097Y-106403663D01*
X118705965Y-106617830D01*
X118705967Y-106617834D01*
X118841501Y-106811395D01*
X118841506Y-106811402D01*
X119008597Y-106978493D01*
X119008603Y-106978498D01*
X119194158Y-107108425D01*
X119237783Y-107163002D01*
X119244977Y-107232500D01*
X119213454Y-107294855D01*
X119194158Y-107311575D01*
X119008597Y-107441505D01*
X118841505Y-107608597D01*
X118705965Y-107802169D01*
X118705964Y-107802171D01*
X118606098Y-108016335D01*
X118606094Y-108016344D01*
X118544938Y-108244586D01*
X118544936Y-108244596D01*
X118524341Y-108479999D01*
X118524341Y-108480000D01*
X118544936Y-108715403D01*
X118544938Y-108715413D01*
X118606094Y-108943655D01*
X118606096Y-108943659D01*
X118606097Y-108943663D01*
X118677331Y-109096424D01*
X118705965Y-109157830D01*
X118705967Y-109157834D01*
X118841501Y-109351395D01*
X118841506Y-109351402D01*
X119008597Y-109518493D01*
X119008603Y-109518498D01*
X119194158Y-109648425D01*
X119237783Y-109703002D01*
X119244977Y-109772500D01*
X119213454Y-109834855D01*
X119194158Y-109851575D01*
X119008597Y-109981505D01*
X118841505Y-110148597D01*
X118705965Y-110342169D01*
X118705964Y-110342171D01*
X118606098Y-110556335D01*
X118606094Y-110556344D01*
X118544938Y-110784586D01*
X118544936Y-110784596D01*
X118524341Y-111019999D01*
X118524341Y-111020000D01*
X118544936Y-111255403D01*
X118544938Y-111255413D01*
X118606094Y-111483655D01*
X118606096Y-111483659D01*
X118606097Y-111483663D01*
X118645482Y-111568124D01*
X118705965Y-111697830D01*
X118705967Y-111697834D01*
X118841501Y-111891395D01*
X118841506Y-111891402D01*
X119008597Y-112058493D01*
X119008603Y-112058498D01*
X119194158Y-112188425D01*
X119237783Y-112243002D01*
X119244977Y-112312500D01*
X119213454Y-112374855D01*
X119194158Y-112391575D01*
X119008597Y-112521505D01*
X118841505Y-112688597D01*
X118705965Y-112882169D01*
X118705964Y-112882171D01*
X118606098Y-113096335D01*
X118606094Y-113096344D01*
X118544938Y-113324586D01*
X118544936Y-113324596D01*
X118524341Y-113559999D01*
X118524341Y-113560000D01*
X118544936Y-113795403D01*
X118544938Y-113795413D01*
X118606094Y-114023655D01*
X118606096Y-114023659D01*
X118606097Y-114023663D01*
X118691788Y-114207427D01*
X118705965Y-114237830D01*
X118705967Y-114237834D01*
X118841501Y-114431395D01*
X118841506Y-114431402D01*
X119008597Y-114598493D01*
X119008603Y-114598498D01*
X119194158Y-114728425D01*
X119237783Y-114783002D01*
X119244977Y-114852500D01*
X119213454Y-114914855D01*
X119194158Y-114931575D01*
X119008597Y-115061505D01*
X118841505Y-115228597D01*
X118705965Y-115422169D01*
X118705964Y-115422171D01*
X118606098Y-115636335D01*
X118606094Y-115636344D01*
X118544938Y-115864586D01*
X118544936Y-115864596D01*
X118524341Y-116099999D01*
X118524341Y-116100000D01*
X118544936Y-116335403D01*
X118544938Y-116335413D01*
X118606094Y-116563655D01*
X118606096Y-116563659D01*
X118606097Y-116563663D01*
X118628634Y-116611993D01*
X118705965Y-116777830D01*
X118705967Y-116777834D01*
X118841501Y-116971395D01*
X118841506Y-116971402D01*
X119008597Y-117138493D01*
X119008603Y-117138498D01*
X119194158Y-117268425D01*
X119237783Y-117323002D01*
X119244977Y-117392500D01*
X119213454Y-117454855D01*
X119194158Y-117471575D01*
X119008597Y-117601505D01*
X118841505Y-117768597D01*
X118705965Y-117962169D01*
X118705964Y-117962171D01*
X118606098Y-118176335D01*
X118606094Y-118176344D01*
X118544938Y-118404586D01*
X118544936Y-118404596D01*
X118524341Y-118639999D01*
X118524341Y-118640000D01*
X118544936Y-118875403D01*
X118544938Y-118875413D01*
X118606094Y-119103655D01*
X118606096Y-119103659D01*
X118606097Y-119103663D01*
X118705965Y-119317830D01*
X118705967Y-119317834D01*
X118841501Y-119511395D01*
X118841506Y-119511402D01*
X119008597Y-119678493D01*
X119008603Y-119678498D01*
X119194158Y-119808425D01*
X119237783Y-119863002D01*
X119244977Y-119932500D01*
X119213454Y-119994855D01*
X119194158Y-120011575D01*
X119008597Y-120141505D01*
X118841505Y-120308597D01*
X118705965Y-120502169D01*
X118705964Y-120502171D01*
X118606098Y-120716335D01*
X118606094Y-120716344D01*
X118544938Y-120944586D01*
X118544936Y-120944596D01*
X118524341Y-121179999D01*
X118524341Y-121180000D01*
X118544936Y-121415403D01*
X118544938Y-121415413D01*
X118606094Y-121643655D01*
X118606096Y-121643659D01*
X118606097Y-121643663D01*
X118677824Y-121797481D01*
X118705965Y-121857830D01*
X118705967Y-121857834D01*
X118841501Y-122051395D01*
X118841506Y-122051402D01*
X119008597Y-122218493D01*
X119008603Y-122218498D01*
X119194158Y-122348425D01*
X119237783Y-122403002D01*
X119244977Y-122472500D01*
X119213454Y-122534855D01*
X119194158Y-122551575D01*
X119008597Y-122681505D01*
X118841505Y-122848597D01*
X118705965Y-123042169D01*
X118705964Y-123042171D01*
X118606098Y-123256335D01*
X118606094Y-123256344D01*
X118544938Y-123484586D01*
X118544936Y-123484596D01*
X118524341Y-123719999D01*
X118524341Y-123720000D01*
X118544936Y-123955403D01*
X118544938Y-123955413D01*
X118606094Y-124183655D01*
X118606096Y-124183659D01*
X118606097Y-124183663D01*
X118664123Y-124308100D01*
X118705965Y-124397830D01*
X118705967Y-124397834D01*
X118841501Y-124591395D01*
X118841506Y-124591402D01*
X119008597Y-124758493D01*
X119008603Y-124758498D01*
X119194158Y-124888425D01*
X119237783Y-124943002D01*
X119244977Y-125012500D01*
X119213454Y-125074855D01*
X119194158Y-125091575D01*
X119008597Y-125221505D01*
X118841505Y-125388597D01*
X118705965Y-125582169D01*
X118705964Y-125582171D01*
X118606098Y-125796335D01*
X118606094Y-125796344D01*
X118544938Y-126024586D01*
X118544936Y-126024596D01*
X118524341Y-126259999D01*
X118524341Y-126260000D01*
X118544936Y-126495403D01*
X118544938Y-126495413D01*
X118606094Y-126723655D01*
X118606096Y-126723659D01*
X118606097Y-126723663D01*
X118695943Y-126916338D01*
X118705965Y-126937830D01*
X118705967Y-126937834D01*
X118841501Y-127131395D01*
X118841506Y-127131402D01*
X119008597Y-127298493D01*
X119008603Y-127298498D01*
X119194594Y-127428730D01*
X119238219Y-127483307D01*
X119245413Y-127552805D01*
X119213890Y-127615160D01*
X119194595Y-127631880D01*
X119008922Y-127761890D01*
X119008920Y-127761891D01*
X118841891Y-127928920D01*
X118841886Y-127928926D01*
X118706400Y-128122420D01*
X118706399Y-128122422D01*
X118606570Y-128336507D01*
X118606567Y-128336513D01*
X118549364Y-128549999D01*
X118549364Y-128550000D01*
X119446988Y-128550000D01*
X119414075Y-128607007D01*
X119380000Y-128734174D01*
X119380000Y-128865826D01*
X119414075Y-128992993D01*
X119446988Y-129050000D01*
X118549364Y-129050000D01*
X118606567Y-129263486D01*
X118606570Y-129263492D01*
X118706399Y-129477578D01*
X118841894Y-129671082D01*
X119008917Y-129838105D01*
X119194595Y-129968119D01*
X119238219Y-130022696D01*
X119245412Y-130092195D01*
X119213890Y-130154549D01*
X119194595Y-130171269D01*
X119008594Y-130301508D01*
X118841505Y-130468597D01*
X118705965Y-130662169D01*
X118705964Y-130662171D01*
X118606098Y-130876335D01*
X118606094Y-130876344D01*
X118544938Y-131104586D01*
X118544936Y-131104596D01*
X118524341Y-131339999D01*
X118524341Y-131340000D01*
X118544936Y-131575403D01*
X118544938Y-131575413D01*
X118606094Y-131803655D01*
X118606096Y-131803659D01*
X118606097Y-131803663D01*
X118705847Y-132017578D01*
X118705965Y-132017830D01*
X118705967Y-132017834D01*
X118814281Y-132172521D01*
X118841505Y-132211401D01*
X119008599Y-132378495D01*
X119105384Y-132446265D01*
X119202165Y-132514032D01*
X119202167Y-132514033D01*
X119202170Y-132514035D01*
X119416337Y-132613903D01*
X119644592Y-132675063D01*
X119832918Y-132691539D01*
X119879999Y-132695659D01*
X119880000Y-132695659D01*
X119880001Y-132695659D01*
X119919234Y-132692226D01*
X120115408Y-132675063D01*
X120343663Y-132613903D01*
X120557830Y-132514035D01*
X120751401Y-132378495D01*
X120918495Y-132211401D01*
X121054035Y-132017830D01*
X121153903Y-131803663D01*
X121215063Y-131575408D01*
X121235659Y-131340000D01*
X121215063Y-131104592D01*
X121153903Y-130876337D01*
X121054035Y-130662171D01*
X120918495Y-130468599D01*
X120918494Y-130468597D01*
X120751402Y-130301506D01*
X120751401Y-130301505D01*
X120583844Y-130184180D01*
X120565405Y-130171269D01*
X120521781Y-130116692D01*
X120514588Y-130047193D01*
X120546110Y-129984839D01*
X120565405Y-129968119D01*
X120751082Y-129838105D01*
X120918105Y-129671082D01*
X121053600Y-129477578D01*
X121153429Y-129263492D01*
X121153432Y-129263486D01*
X121210636Y-129050000D01*
X120313012Y-129050000D01*
X120345925Y-128992993D01*
X120380000Y-128865826D01*
X120380000Y-128734174D01*
X120345925Y-128607007D01*
X120313012Y-128550000D01*
X121210636Y-128550000D01*
X121210635Y-128549999D01*
X121153432Y-128336513D01*
X121153429Y-128336507D01*
X121053600Y-128122422D01*
X121053599Y-128122420D01*
X120918113Y-127928926D01*
X120918108Y-127928920D01*
X120751078Y-127761890D01*
X120565405Y-127631879D01*
X120521780Y-127577302D01*
X120514588Y-127507804D01*
X120546110Y-127445449D01*
X120565406Y-127428730D01*
X120703815Y-127331815D01*
X120751401Y-127298495D01*
X120918495Y-127131401D01*
X121054035Y-126937830D01*
X121153903Y-126723663D01*
X121215063Y-126495408D01*
X121235659Y-126260000D01*
X121215063Y-126024592D01*
X121153903Y-125796337D01*
X121054035Y-125582171D01*
X121039057Y-125560779D01*
X120918494Y-125388597D01*
X120751402Y-125221506D01*
X120751396Y-125221501D01*
X120565842Y-125091575D01*
X120522217Y-125036998D01*
X120515023Y-124967500D01*
X120546546Y-124905145D01*
X120565842Y-124888425D01*
X120588026Y-124872891D01*
X120751401Y-124758495D01*
X120918495Y-124591401D01*
X121054035Y-124397830D01*
X121153903Y-124183663D01*
X121215063Y-123955408D01*
X121235659Y-123720000D01*
X121215063Y-123484592D01*
X121153903Y-123256337D01*
X121054035Y-123042171D01*
X120918495Y-122848599D01*
X120918494Y-122848597D01*
X120751402Y-122681506D01*
X120751396Y-122681501D01*
X120565842Y-122551575D01*
X120522217Y-122496998D01*
X120515023Y-122427500D01*
X120546546Y-122365145D01*
X120565842Y-122348425D01*
X120588026Y-122332891D01*
X120751401Y-122218495D01*
X120918495Y-122051401D01*
X121054035Y-121857830D01*
X121153903Y-121643663D01*
X121215063Y-121415408D01*
X121235659Y-121180000D01*
X121215063Y-120944592D01*
X121153903Y-120716337D01*
X121054035Y-120502171D01*
X120918495Y-120308599D01*
X120918494Y-120308597D01*
X120751402Y-120141506D01*
X120751396Y-120141501D01*
X120565842Y-120011575D01*
X120522217Y-119956998D01*
X120515023Y-119887500D01*
X120546546Y-119825145D01*
X120565842Y-119808425D01*
X120588026Y-119792891D01*
X120751401Y-119678495D01*
X120918495Y-119511401D01*
X121054035Y-119317830D01*
X121153903Y-119103663D01*
X121215063Y-118875408D01*
X121235659Y-118640000D01*
X121215063Y-118404592D01*
X121153903Y-118176337D01*
X121054035Y-117962171D01*
X120952723Y-117817481D01*
X120918494Y-117768597D01*
X120751402Y-117601506D01*
X120751396Y-117601501D01*
X120565842Y-117471575D01*
X120522217Y-117416998D01*
X120515023Y-117347500D01*
X120546546Y-117285145D01*
X120565842Y-117268425D01*
X120588026Y-117252891D01*
X120751401Y-117138495D01*
X120918495Y-116971401D01*
X121054035Y-116777830D01*
X121153903Y-116563663D01*
X121215063Y-116335408D01*
X121235659Y-116100000D01*
X121215063Y-115864592D01*
X121153903Y-115636337D01*
X121054035Y-115422171D01*
X120918495Y-115228599D01*
X120918494Y-115228597D01*
X120751402Y-115061506D01*
X120751396Y-115061501D01*
X120565842Y-114931575D01*
X120522217Y-114876998D01*
X120515023Y-114807500D01*
X120546546Y-114745145D01*
X120565842Y-114728425D01*
X120588026Y-114712891D01*
X120751401Y-114598495D01*
X120918495Y-114431401D01*
X121054035Y-114237830D01*
X121153903Y-114023663D01*
X121215063Y-113795408D01*
X121235659Y-113560000D01*
X121215063Y-113324592D01*
X121153903Y-113096337D01*
X121054035Y-112882171D01*
X121016525Y-112828600D01*
X120918494Y-112688597D01*
X120751402Y-112521506D01*
X120751396Y-112521501D01*
X120565842Y-112391575D01*
X120522217Y-112336998D01*
X120515023Y-112267500D01*
X120546546Y-112205145D01*
X120565842Y-112188425D01*
X120674998Y-112111993D01*
X120751401Y-112058495D01*
X120918495Y-111891401D01*
X121054035Y-111697830D01*
X121153903Y-111483663D01*
X121215063Y-111255408D01*
X121235659Y-111020000D01*
X121215063Y-110784592D01*
X121153903Y-110556337D01*
X121054035Y-110342171D01*
X121030228Y-110308170D01*
X120918494Y-110148597D01*
X120751402Y-109981506D01*
X120751396Y-109981501D01*
X120565842Y-109851575D01*
X120522217Y-109796998D01*
X120515023Y-109727500D01*
X120546546Y-109665145D01*
X120565842Y-109648425D01*
X120684689Y-109565207D01*
X120751401Y-109518495D01*
X120918495Y-109351401D01*
X121054035Y-109157830D01*
X121153903Y-108943663D01*
X121215063Y-108715408D01*
X121235659Y-108480000D01*
X121215063Y-108244592D01*
X121153903Y-108016337D01*
X121054035Y-107802171D01*
X121011107Y-107740862D01*
X120918494Y-107608597D01*
X120751402Y-107441506D01*
X120751396Y-107441501D01*
X120565842Y-107311575D01*
X120522217Y-107256998D01*
X120515023Y-107187500D01*
X120546546Y-107125145D01*
X120565842Y-107108425D01*
X120588026Y-107092891D01*
X120751401Y-106978495D01*
X120918495Y-106811401D01*
X121054035Y-106617830D01*
X121153903Y-106403663D01*
X121215063Y-106175408D01*
X121235659Y-105940000D01*
X121215063Y-105704592D01*
X121153903Y-105476337D01*
X121054035Y-105262171D01*
X120973533Y-105147201D01*
X120918494Y-105068597D01*
X120751402Y-104901506D01*
X120751396Y-104901501D01*
X120565842Y-104771575D01*
X120522217Y-104716998D01*
X120515023Y-104647500D01*
X120546546Y-104585145D01*
X120565842Y-104568425D01*
X120588026Y-104552891D01*
X120751401Y-104438495D01*
X120918495Y-104271401D01*
X121054035Y-104077830D01*
X121153903Y-103863663D01*
X121215063Y-103635408D01*
X121235659Y-103400000D01*
X121215063Y-103164592D01*
X121153903Y-102936337D01*
X121054035Y-102722171D01*
X120918495Y-102528599D01*
X120918494Y-102528597D01*
X120751402Y-102361506D01*
X120751396Y-102361501D01*
X120565842Y-102231575D01*
X120522217Y-102176998D01*
X120515023Y-102107500D01*
X120546546Y-102045145D01*
X120565842Y-102028425D01*
X120588026Y-102012891D01*
X120751401Y-101898495D01*
X120918495Y-101731401D01*
X121054035Y-101537830D01*
X121153903Y-101323663D01*
X121215063Y-101095408D01*
X121235659Y-100860000D01*
X121215063Y-100624592D01*
X121153903Y-100396337D01*
X121054035Y-100182171D01*
X120918495Y-99988599D01*
X120918494Y-99988597D01*
X120751402Y-99821506D01*
X120751396Y-99821501D01*
X120565842Y-99691575D01*
X120522217Y-99636998D01*
X120515023Y-99567500D01*
X120546546Y-99505145D01*
X120565842Y-99488425D01*
X120674224Y-99412535D01*
X120751401Y-99358495D01*
X120918495Y-99191401D01*
X121048425Y-99005842D01*
X121103002Y-98962217D01*
X121172500Y-98955023D01*
X121234855Y-98986546D01*
X121251575Y-99005842D01*
X121381500Y-99191395D01*
X121381505Y-99191401D01*
X121548599Y-99358495D01*
X121625766Y-99412528D01*
X121742165Y-99494032D01*
X121742167Y-99494033D01*
X121742170Y-99494035D01*
X121956337Y-99593903D01*
X121956343Y-99593904D01*
X121956344Y-99593905D01*
X122011285Y-99608626D01*
X122184592Y-99655063D01*
X122363297Y-99670698D01*
X122419999Y-99675659D01*
X122420000Y-99675659D01*
X122420001Y-99675659D01*
X122476680Y-99670700D01*
X122655408Y-99655063D01*
X122883663Y-99593903D01*
X123097830Y-99494035D01*
X123291401Y-99358495D01*
X123458495Y-99191401D01*
X123588425Y-99005842D01*
X123643002Y-98962217D01*
X123712500Y-98955023D01*
X123774855Y-98986546D01*
X123791575Y-99005842D01*
X123921500Y-99191395D01*
X123921505Y-99191401D01*
X124088599Y-99358495D01*
X124165766Y-99412528D01*
X124282165Y-99494032D01*
X124282167Y-99494033D01*
X124282170Y-99494035D01*
X124496337Y-99593903D01*
X124496343Y-99593904D01*
X124496344Y-99593905D01*
X124551285Y-99608626D01*
X124724592Y-99655063D01*
X124903297Y-99670698D01*
X124959999Y-99675659D01*
X124960000Y-99675659D01*
X124960001Y-99675659D01*
X125016680Y-99670700D01*
X125195408Y-99655063D01*
X125423663Y-99593903D01*
X125637830Y-99494035D01*
X125831401Y-99358495D01*
X125998495Y-99191401D01*
X126128730Y-99005405D01*
X126183307Y-98961781D01*
X126252805Y-98954587D01*
X126315160Y-98986110D01*
X126331879Y-99005405D01*
X126461890Y-99191078D01*
X126628917Y-99358105D01*
X126822421Y-99493600D01*
X127036507Y-99593429D01*
X127036516Y-99593433D01*
X127250000Y-99650634D01*
X127250000Y-98753012D01*
X127307007Y-98785925D01*
X127434174Y-98820000D01*
X127565826Y-98820000D01*
X127692993Y-98785925D01*
X127750000Y-98753012D01*
X127750000Y-99650633D01*
X127963483Y-99593433D01*
X127963492Y-99593429D01*
X128177578Y-99493600D01*
X128371082Y-99358105D01*
X128538105Y-99191082D01*
X128668119Y-99005405D01*
X128722696Y-98961781D01*
X128792195Y-98954588D01*
X128854549Y-98986110D01*
X128871269Y-99005405D01*
X129001505Y-99191401D01*
X129168599Y-99358495D01*
X129245766Y-99412528D01*
X129362165Y-99494032D01*
X129362167Y-99494033D01*
X129362170Y-99494035D01*
X129576337Y-99593903D01*
X129576343Y-99593904D01*
X129576344Y-99593905D01*
X129631285Y-99608626D01*
X129804592Y-99655063D01*
X129983297Y-99670698D01*
X130039999Y-99675659D01*
X130040000Y-99675659D01*
X130040001Y-99675659D01*
X130096680Y-99670700D01*
X130275408Y-99655063D01*
X130503663Y-99593903D01*
X130717830Y-99494035D01*
X130911401Y-99358495D01*
X131078495Y-99191401D01*
X131208425Y-99005842D01*
X131263002Y-98962217D01*
X131332500Y-98955023D01*
X131394855Y-98986546D01*
X131411575Y-99005842D01*
X131541500Y-99191395D01*
X131541505Y-99191401D01*
X131708599Y-99358495D01*
X131785766Y-99412528D01*
X131902165Y-99494032D01*
X131902167Y-99494033D01*
X131902170Y-99494035D01*
X132116337Y-99593903D01*
X132116343Y-99593904D01*
X132116344Y-99593905D01*
X132171285Y-99608626D01*
X132344592Y-99655063D01*
X132523297Y-99670698D01*
X132579999Y-99675659D01*
X132580000Y-99675659D01*
X132580001Y-99675659D01*
X132636680Y-99670700D01*
X132815408Y-99655063D01*
X133043663Y-99593903D01*
X133257830Y-99494035D01*
X133451401Y-99358495D01*
X133618495Y-99191401D01*
X133748425Y-99005842D01*
X133803002Y-98962217D01*
X133872500Y-98955023D01*
X133934855Y-98986546D01*
X133951575Y-99005842D01*
X134081501Y-99191396D01*
X134081506Y-99191402D01*
X134248597Y-99358493D01*
X134248603Y-99358498D01*
X134434158Y-99488425D01*
X134477783Y-99543002D01*
X134484977Y-99612500D01*
X134453454Y-99674855D01*
X134434158Y-99691575D01*
X134248597Y-99821505D01*
X134081505Y-99988597D01*
X133945965Y-100182169D01*
X133945964Y-100182171D01*
X133846098Y-100396335D01*
X133846094Y-100396344D01*
X133784938Y-100624586D01*
X133784936Y-100624596D01*
X133764341Y-100859999D01*
X133764341Y-100860000D01*
X133784936Y-101095403D01*
X133784938Y-101095413D01*
X133846094Y-101323655D01*
X133846096Y-101323659D01*
X133846097Y-101323663D01*
X133945965Y-101537830D01*
X133945967Y-101537834D01*
X134081501Y-101731395D01*
X134081506Y-101731402D01*
X134248597Y-101898493D01*
X134248603Y-101898498D01*
X134434158Y-102028425D01*
X134477783Y-102083002D01*
X134484977Y-102152500D01*
X134453454Y-102214855D01*
X134434158Y-102231575D01*
X134248597Y-102361505D01*
X134081505Y-102528597D01*
X133945965Y-102722169D01*
X133945964Y-102722171D01*
X133846098Y-102936335D01*
X133846094Y-102936344D01*
X133784938Y-103164586D01*
X133784936Y-103164596D01*
X133764341Y-103399999D01*
X133764341Y-103400000D01*
X133784936Y-103635403D01*
X133784938Y-103635413D01*
X133846094Y-103863655D01*
X133846096Y-103863659D01*
X133846097Y-103863663D01*
X133917428Y-104016632D01*
X133945965Y-104077830D01*
X133945967Y-104077834D01*
X134081501Y-104271395D01*
X134081506Y-104271402D01*
X134248597Y-104438493D01*
X134248603Y-104438498D01*
X134434158Y-104568425D01*
X134477783Y-104623002D01*
X134484977Y-104692500D01*
X134453454Y-104754855D01*
X134434158Y-104771575D01*
X134248597Y-104901505D01*
X134081505Y-105068597D01*
X133945965Y-105262169D01*
X133945964Y-105262171D01*
X133846098Y-105476335D01*
X133846094Y-105476344D01*
X133784938Y-105704586D01*
X133784936Y-105704596D01*
X133764341Y-105939999D01*
X133764341Y-105940000D01*
X133784936Y-106175403D01*
X133784938Y-106175413D01*
X133846094Y-106403655D01*
X133846096Y-106403659D01*
X133846097Y-106403663D01*
X133945965Y-106617830D01*
X133945967Y-106617834D01*
X134081501Y-106811395D01*
X134081506Y-106811402D01*
X134248597Y-106978493D01*
X134248603Y-106978498D01*
X134434158Y-107108425D01*
X134477783Y-107163002D01*
X134484977Y-107232500D01*
X134453454Y-107294855D01*
X134434158Y-107311575D01*
X134248597Y-107441505D01*
X134081505Y-107608597D01*
X133945965Y-107802169D01*
X133945964Y-107802171D01*
X133846098Y-108016335D01*
X133846094Y-108016344D01*
X133784938Y-108244586D01*
X133784936Y-108244596D01*
X133764341Y-108479999D01*
X133764341Y-108480000D01*
X133784936Y-108715403D01*
X133784938Y-108715413D01*
X133846094Y-108943655D01*
X133846096Y-108943659D01*
X133846097Y-108943663D01*
X133917331Y-109096424D01*
X133945965Y-109157830D01*
X133945967Y-109157834D01*
X134081501Y-109351395D01*
X134081506Y-109351402D01*
X134248597Y-109518493D01*
X134248603Y-109518498D01*
X134434158Y-109648425D01*
X134477783Y-109703002D01*
X134484977Y-109772500D01*
X134453454Y-109834855D01*
X134434158Y-109851575D01*
X134248597Y-109981505D01*
X134081505Y-110148597D01*
X133945965Y-110342169D01*
X133945964Y-110342171D01*
X133846098Y-110556335D01*
X133846094Y-110556344D01*
X133784938Y-110784586D01*
X133784936Y-110784596D01*
X133764341Y-111019999D01*
X133764341Y-111020000D01*
X133784936Y-111255403D01*
X133784938Y-111255413D01*
X133846094Y-111483655D01*
X133846096Y-111483659D01*
X133846097Y-111483663D01*
X133885482Y-111568124D01*
X133945965Y-111697830D01*
X133945967Y-111697834D01*
X134081501Y-111891395D01*
X134081506Y-111891402D01*
X134248597Y-112058493D01*
X134248603Y-112058498D01*
X134434158Y-112188425D01*
X134477783Y-112243002D01*
X134484977Y-112312500D01*
X134453454Y-112374855D01*
X134434158Y-112391575D01*
X134248597Y-112521505D01*
X134081505Y-112688597D01*
X133945965Y-112882169D01*
X133945964Y-112882171D01*
X133846098Y-113096335D01*
X133846094Y-113096344D01*
X133784938Y-113324586D01*
X133784936Y-113324596D01*
X133764341Y-113559999D01*
X133764341Y-113560000D01*
X133784936Y-113795403D01*
X133784938Y-113795413D01*
X133846094Y-114023655D01*
X133846096Y-114023659D01*
X133846097Y-114023663D01*
X133931788Y-114207427D01*
X133945965Y-114237830D01*
X133945967Y-114237834D01*
X134081501Y-114431395D01*
X134081506Y-114431402D01*
X134248597Y-114598493D01*
X134248603Y-114598498D01*
X134434158Y-114728425D01*
X134477783Y-114783002D01*
X134484977Y-114852500D01*
X134453454Y-114914855D01*
X134434158Y-114931575D01*
X134248597Y-115061505D01*
X134081505Y-115228597D01*
X133945965Y-115422169D01*
X133945964Y-115422171D01*
X133846098Y-115636335D01*
X133846094Y-115636344D01*
X133784938Y-115864586D01*
X133784936Y-115864596D01*
X133764341Y-116099999D01*
X133764341Y-116100000D01*
X133784936Y-116335403D01*
X133784938Y-116335413D01*
X133846094Y-116563655D01*
X133846096Y-116563659D01*
X133846097Y-116563663D01*
X133868634Y-116611993D01*
X133945965Y-116777830D01*
X133945967Y-116777834D01*
X134081501Y-116971395D01*
X134081506Y-116971402D01*
X134248597Y-117138493D01*
X134248603Y-117138498D01*
X134434158Y-117268425D01*
X134477783Y-117323002D01*
X134484977Y-117392500D01*
X134453454Y-117454855D01*
X134434158Y-117471575D01*
X134248597Y-117601505D01*
X134081505Y-117768597D01*
X133945965Y-117962169D01*
X133945964Y-117962171D01*
X133846098Y-118176335D01*
X133846094Y-118176344D01*
X133784938Y-118404586D01*
X133784936Y-118404596D01*
X133764341Y-118639999D01*
X133764341Y-118640000D01*
X133784936Y-118875403D01*
X133784938Y-118875413D01*
X133846094Y-119103655D01*
X133846096Y-119103659D01*
X133846097Y-119103663D01*
X133945965Y-119317830D01*
X133945967Y-119317834D01*
X134081501Y-119511395D01*
X134081506Y-119511402D01*
X134248597Y-119678493D01*
X134248603Y-119678498D01*
X134434158Y-119808425D01*
X134477783Y-119863002D01*
X134484977Y-119932500D01*
X134453454Y-119994855D01*
X134434158Y-120011575D01*
X134248597Y-120141505D01*
X134081505Y-120308597D01*
X133945965Y-120502169D01*
X133945964Y-120502171D01*
X133846098Y-120716335D01*
X133846094Y-120716344D01*
X133784938Y-120944586D01*
X133784936Y-120944596D01*
X133764341Y-121179999D01*
X133764341Y-121180000D01*
X133784936Y-121415403D01*
X133784938Y-121415413D01*
X133846094Y-121643655D01*
X133846096Y-121643659D01*
X133846097Y-121643663D01*
X133917824Y-121797481D01*
X133945965Y-121857830D01*
X133945967Y-121857834D01*
X134081501Y-122051395D01*
X134081506Y-122051402D01*
X134248597Y-122218493D01*
X134248603Y-122218498D01*
X134434158Y-122348425D01*
X134477783Y-122403002D01*
X134484977Y-122472500D01*
X134453454Y-122534855D01*
X134434158Y-122551575D01*
X134248597Y-122681505D01*
X134081505Y-122848597D01*
X133945965Y-123042169D01*
X133945964Y-123042171D01*
X133846098Y-123256335D01*
X133846094Y-123256344D01*
X133784938Y-123484586D01*
X133784936Y-123484596D01*
X133764341Y-123719999D01*
X133764341Y-123720000D01*
X133784936Y-123955403D01*
X133784938Y-123955413D01*
X133846094Y-124183655D01*
X133846096Y-124183659D01*
X133846097Y-124183663D01*
X133904123Y-124308100D01*
X133945965Y-124397830D01*
X133945967Y-124397834D01*
X134081501Y-124591395D01*
X134081506Y-124591402D01*
X134248597Y-124758493D01*
X134248603Y-124758498D01*
X134434158Y-124888425D01*
X134477783Y-124943002D01*
X134484977Y-125012500D01*
X134453454Y-125074855D01*
X134434158Y-125091575D01*
X134248597Y-125221505D01*
X134081505Y-125388597D01*
X133945965Y-125582169D01*
X133945964Y-125582171D01*
X133846098Y-125796335D01*
X133846094Y-125796344D01*
X133784938Y-126024586D01*
X133784936Y-126024596D01*
X133764341Y-126259999D01*
X133764341Y-126260000D01*
X133784936Y-126495403D01*
X133784938Y-126495413D01*
X133846094Y-126723655D01*
X133846096Y-126723659D01*
X133846097Y-126723663D01*
X133935943Y-126916338D01*
X133945965Y-126937830D01*
X133945967Y-126937834D01*
X134081501Y-127131395D01*
X134081506Y-127131402D01*
X134248597Y-127298493D01*
X134248603Y-127298498D01*
X134434158Y-127428425D01*
X134477783Y-127483002D01*
X134484977Y-127552500D01*
X134453454Y-127614855D01*
X134434158Y-127631575D01*
X134248597Y-127761505D01*
X134081505Y-127928597D01*
X133945965Y-128122169D01*
X133945964Y-128122171D01*
X133846098Y-128336335D01*
X133846094Y-128336344D01*
X133784938Y-128564586D01*
X133784936Y-128564596D01*
X133764341Y-128799999D01*
X133764341Y-128800000D01*
X133784936Y-129035403D01*
X133784938Y-129035413D01*
X133846094Y-129263655D01*
X133846096Y-129263659D01*
X133846097Y-129263663D01*
X133945847Y-129477578D01*
X133945965Y-129477830D01*
X133945967Y-129477834D01*
X134081501Y-129671395D01*
X134081506Y-129671402D01*
X134248597Y-129838493D01*
X134248603Y-129838498D01*
X134434594Y-129968730D01*
X134478219Y-130023307D01*
X134485413Y-130092805D01*
X134453890Y-130155160D01*
X134434595Y-130171880D01*
X134248922Y-130301890D01*
X134248920Y-130301891D01*
X134081891Y-130468920D01*
X134081886Y-130468926D01*
X133946400Y-130662420D01*
X133946399Y-130662422D01*
X133846570Y-130876507D01*
X133846567Y-130876513D01*
X133789364Y-131089999D01*
X133789364Y-131090000D01*
X134686988Y-131090000D01*
X134654075Y-131147007D01*
X134620000Y-131274174D01*
X134620000Y-131405826D01*
X134654075Y-131532993D01*
X134686988Y-131590000D01*
X133789364Y-131590000D01*
X133846567Y-131803486D01*
X133846570Y-131803492D01*
X133946399Y-132017578D01*
X134081894Y-132211082D01*
X134248917Y-132378105D01*
X134442421Y-132513600D01*
X134656507Y-132613429D01*
X134656516Y-132613433D01*
X134870000Y-132670634D01*
X134870000Y-131773012D01*
X134927007Y-131805925D01*
X135054174Y-131840000D01*
X135185826Y-131840000D01*
X135312993Y-131805925D01*
X135370000Y-131773012D01*
X135370000Y-132670633D01*
X135583483Y-132613433D01*
X135583492Y-132613429D01*
X135797578Y-132513600D01*
X135991082Y-132378105D01*
X136158105Y-132211082D01*
X136293600Y-132017578D01*
X136393429Y-131803492D01*
X136393432Y-131803486D01*
X136450636Y-131590000D01*
X135553012Y-131590000D01*
X135585925Y-131532993D01*
X135620000Y-131405826D01*
X135620000Y-131274174D01*
X135585925Y-131147007D01*
X135553012Y-131090000D01*
X136450636Y-131090000D01*
X136450635Y-131089999D01*
X136393432Y-130876513D01*
X136393429Y-130876507D01*
X136293600Y-130662422D01*
X136293599Y-130662420D01*
X136158113Y-130468926D01*
X136158108Y-130468920D01*
X135991078Y-130301890D01*
X135805405Y-130171879D01*
X135761780Y-130117302D01*
X135754588Y-130047804D01*
X135786110Y-129985449D01*
X135805406Y-129968730D01*
X135806279Y-129968119D01*
X135991401Y-129838495D01*
X136158495Y-129671401D01*
X136294035Y-129477830D01*
X136393903Y-129263663D01*
X136455063Y-129035408D01*
X136475659Y-128800000D01*
X136455063Y-128564592D01*
X136393903Y-128336337D01*
X136294035Y-128122171D01*
X136158495Y-127928599D01*
X136158494Y-127928597D01*
X135991402Y-127761506D01*
X135991396Y-127761501D01*
X135805842Y-127631575D01*
X135762217Y-127576998D01*
X135755023Y-127507500D01*
X135786546Y-127445145D01*
X135805842Y-127428425D01*
X135943818Y-127331813D01*
X135991401Y-127298495D01*
X136158495Y-127131401D01*
X136294035Y-126937830D01*
X136393903Y-126723663D01*
X136455063Y-126495408D01*
X136475659Y-126260000D01*
X136455063Y-126024592D01*
X136397187Y-125808594D01*
X150693557Y-125808594D01*
X150693557Y-125808605D01*
X150714090Y-126056412D01*
X150714092Y-126056424D01*
X150775136Y-126297481D01*
X150875026Y-126525206D01*
X151011033Y-126733382D01*
X151011036Y-126733385D01*
X151179456Y-126916338D01*
X151375691Y-127069074D01*
X151594390Y-127187428D01*
X151829586Y-127268171D01*
X152074865Y-127309100D01*
X152323535Y-127309100D01*
X152568814Y-127268171D01*
X152804010Y-127187428D01*
X153022709Y-127069074D01*
X153218944Y-126916338D01*
X153387364Y-126733385D01*
X153523373Y-126525207D01*
X153623263Y-126297481D01*
X153684308Y-126056421D01*
X153686945Y-126024596D01*
X153704843Y-125808605D01*
X153704843Y-125808594D01*
X157193557Y-125808594D01*
X157193557Y-125808605D01*
X157214090Y-126056412D01*
X157214092Y-126056424D01*
X157275136Y-126297481D01*
X157375026Y-126525206D01*
X157511033Y-126733382D01*
X157511036Y-126733385D01*
X157679456Y-126916338D01*
X157875691Y-127069074D01*
X158094390Y-127187428D01*
X158329586Y-127268171D01*
X158574865Y-127309100D01*
X158823535Y-127309100D01*
X159068814Y-127268171D01*
X159304010Y-127187428D01*
X159522709Y-127069074D01*
X159718944Y-126916338D01*
X159887364Y-126733385D01*
X160023373Y-126525207D01*
X160123263Y-126297481D01*
X160184308Y-126056421D01*
X160186945Y-126024596D01*
X160204843Y-125808605D01*
X160204843Y-125808594D01*
X160184309Y-125560787D01*
X160184307Y-125560775D01*
X160123263Y-125319718D01*
X160023373Y-125091993D01*
X159887366Y-124883817D01*
X159865757Y-124860344D01*
X159718944Y-124700862D01*
X159522709Y-124548126D01*
X159522707Y-124548125D01*
X159522706Y-124548124D01*
X159304011Y-124429772D01*
X159304002Y-124429769D01*
X159068816Y-124349029D01*
X158823535Y-124308100D01*
X158574865Y-124308100D01*
X158329583Y-124349029D01*
X158094397Y-124429769D01*
X158094388Y-124429772D01*
X157875693Y-124548124D01*
X157679457Y-124700861D01*
X157511033Y-124883817D01*
X157375026Y-125091993D01*
X157275136Y-125319718D01*
X157214092Y-125560775D01*
X157214090Y-125560787D01*
X157193557Y-125808594D01*
X153704843Y-125808594D01*
X153684309Y-125560787D01*
X153684307Y-125560775D01*
X153623263Y-125319718D01*
X153523373Y-125091993D01*
X153387366Y-124883817D01*
X153365757Y-124860344D01*
X153218944Y-124700862D01*
X153022709Y-124548126D01*
X153022707Y-124548125D01*
X153022706Y-124548124D01*
X152804011Y-124429772D01*
X152804002Y-124429769D01*
X152568816Y-124349029D01*
X152323535Y-124308100D01*
X152074865Y-124308100D01*
X151829583Y-124349029D01*
X151594397Y-124429769D01*
X151594388Y-124429772D01*
X151375693Y-124548124D01*
X151179457Y-124700861D01*
X151011033Y-124883817D01*
X150875026Y-125091993D01*
X150775136Y-125319718D01*
X150714092Y-125560775D01*
X150714090Y-125560787D01*
X150693557Y-125808594D01*
X136397187Y-125808594D01*
X136393903Y-125796337D01*
X136294035Y-125582171D01*
X136279057Y-125560779D01*
X136158494Y-125388597D01*
X135991402Y-125221506D01*
X135991396Y-125221501D01*
X135805842Y-125091575D01*
X135762217Y-125036998D01*
X135755023Y-124967500D01*
X135786546Y-124905145D01*
X135805842Y-124888425D01*
X135828026Y-124872891D01*
X135991401Y-124758495D01*
X136158495Y-124591401D01*
X136294035Y-124397830D01*
X136393903Y-124183663D01*
X136455063Y-123955408D01*
X136475659Y-123720000D01*
X136455063Y-123484592D01*
X136393903Y-123256337D01*
X136294035Y-123042171D01*
X136158495Y-122848599D01*
X136158494Y-122848597D01*
X135991402Y-122681506D01*
X135991396Y-122681501D01*
X135805842Y-122551575D01*
X135762217Y-122496998D01*
X135755023Y-122427500D01*
X135786546Y-122365145D01*
X135805842Y-122348425D01*
X135828026Y-122332891D01*
X135991401Y-122218495D01*
X136158495Y-122051401D01*
X136294035Y-121857830D01*
X136393903Y-121643663D01*
X136455063Y-121415408D01*
X136464408Y-121308594D01*
X150693557Y-121308594D01*
X150693557Y-121308605D01*
X150714090Y-121556412D01*
X150714092Y-121556424D01*
X150775136Y-121797481D01*
X150875026Y-122025206D01*
X151011033Y-122233382D01*
X151011036Y-122233385D01*
X151179456Y-122416338D01*
X151375691Y-122569074D01*
X151594390Y-122687428D01*
X151829586Y-122768171D01*
X152074865Y-122809100D01*
X152323535Y-122809100D01*
X152568814Y-122768171D01*
X152804010Y-122687428D01*
X153022709Y-122569074D01*
X153218944Y-122416338D01*
X153387364Y-122233385D01*
X153523373Y-122025207D01*
X153623263Y-121797481D01*
X153684308Y-121556421D01*
X153684309Y-121556412D01*
X153704843Y-121308605D01*
X153704843Y-121308594D01*
X157193557Y-121308594D01*
X157193557Y-121308605D01*
X157214090Y-121556412D01*
X157214092Y-121556424D01*
X157275136Y-121797481D01*
X157375026Y-122025206D01*
X157511033Y-122233382D01*
X157511036Y-122233385D01*
X157679456Y-122416338D01*
X157875691Y-122569074D01*
X158094390Y-122687428D01*
X158329586Y-122768171D01*
X158574865Y-122809100D01*
X158823535Y-122809100D01*
X159068814Y-122768171D01*
X159304010Y-122687428D01*
X159522709Y-122569074D01*
X159718944Y-122416338D01*
X159887364Y-122233385D01*
X160023373Y-122025207D01*
X160123263Y-121797481D01*
X160184308Y-121556421D01*
X160184309Y-121556412D01*
X160204843Y-121308605D01*
X160204843Y-121308594D01*
X160184309Y-121060787D01*
X160184307Y-121060775D01*
X160123263Y-120819718D01*
X160023373Y-120591993D01*
X159887366Y-120383817D01*
X159865757Y-120360344D01*
X159718944Y-120200862D01*
X159522709Y-120048126D01*
X159522707Y-120048125D01*
X159522706Y-120048124D01*
X159304011Y-119929772D01*
X159304002Y-119929769D01*
X159068816Y-119849029D01*
X158823535Y-119808100D01*
X158574865Y-119808100D01*
X158329583Y-119849029D01*
X158094397Y-119929769D01*
X158094388Y-119929772D01*
X157875693Y-120048124D01*
X157679457Y-120200861D01*
X157511033Y-120383817D01*
X157375026Y-120591993D01*
X157275136Y-120819718D01*
X157214092Y-121060775D01*
X157214090Y-121060787D01*
X157193557Y-121308594D01*
X153704843Y-121308594D01*
X153684309Y-121060787D01*
X153684307Y-121060775D01*
X153623263Y-120819718D01*
X153523373Y-120591993D01*
X153387366Y-120383817D01*
X153365757Y-120360344D01*
X153218944Y-120200862D01*
X153022709Y-120048126D01*
X153022707Y-120048125D01*
X153022706Y-120048124D01*
X152804011Y-119929772D01*
X152804002Y-119929769D01*
X152568816Y-119849029D01*
X152323535Y-119808100D01*
X152074865Y-119808100D01*
X151829583Y-119849029D01*
X151594397Y-119929769D01*
X151594388Y-119929772D01*
X151375693Y-120048124D01*
X151179457Y-120200861D01*
X151011033Y-120383817D01*
X150875026Y-120591993D01*
X150775136Y-120819718D01*
X150714092Y-121060775D01*
X150714090Y-121060787D01*
X150693557Y-121308594D01*
X136464408Y-121308594D01*
X136475659Y-121180000D01*
X136455063Y-120944592D01*
X136393903Y-120716337D01*
X136294035Y-120502171D01*
X136158495Y-120308599D01*
X136158494Y-120308597D01*
X135991402Y-120141506D01*
X135991396Y-120141501D01*
X135805842Y-120011575D01*
X135762217Y-119956998D01*
X135755023Y-119887500D01*
X135786546Y-119825145D01*
X135805842Y-119808425D01*
X135828026Y-119792891D01*
X135991401Y-119678495D01*
X136158495Y-119511401D01*
X136294035Y-119317830D01*
X136393903Y-119103663D01*
X136455063Y-118875408D01*
X136475659Y-118640000D01*
X136455063Y-118404592D01*
X136393903Y-118176337D01*
X136294035Y-117962171D01*
X136192723Y-117817481D01*
X136158494Y-117768597D01*
X135991402Y-117601506D01*
X135991396Y-117601501D01*
X135805842Y-117471575D01*
X135762217Y-117416998D01*
X135755023Y-117347500D01*
X135764581Y-117328594D01*
X142213557Y-117328594D01*
X142213557Y-117328605D01*
X142234090Y-117576412D01*
X142234092Y-117576424D01*
X142295136Y-117817481D01*
X142395026Y-118045206D01*
X142531033Y-118253382D01*
X142531036Y-118253385D01*
X142699456Y-118436338D01*
X142895691Y-118589074D01*
X143114390Y-118707428D01*
X143349586Y-118788171D01*
X143594865Y-118829100D01*
X143843535Y-118829100D01*
X144088814Y-118788171D01*
X144324010Y-118707428D01*
X144542709Y-118589074D01*
X144738944Y-118436338D01*
X144907364Y-118253385D01*
X145043373Y-118045207D01*
X145143263Y-117817481D01*
X145204308Y-117576421D01*
X145213461Y-117465965D01*
X145224843Y-117328605D01*
X145224843Y-117328594D01*
X148713557Y-117328594D01*
X148713557Y-117328605D01*
X148734090Y-117576412D01*
X148734092Y-117576424D01*
X148795136Y-117817481D01*
X148895026Y-118045206D01*
X149031033Y-118253382D01*
X149031036Y-118253385D01*
X149199456Y-118436338D01*
X149395691Y-118589074D01*
X149614390Y-118707428D01*
X149849586Y-118788171D01*
X150094865Y-118829100D01*
X150343535Y-118829100D01*
X150588814Y-118788171D01*
X150824010Y-118707428D01*
X151042709Y-118589074D01*
X151238944Y-118436338D01*
X151407364Y-118253385D01*
X151543373Y-118045207D01*
X151643263Y-117817481D01*
X151704308Y-117576421D01*
X151713461Y-117465965D01*
X151724843Y-117328605D01*
X151724843Y-117328594D01*
X159173557Y-117328594D01*
X159173557Y-117328605D01*
X159194090Y-117576412D01*
X159194092Y-117576424D01*
X159255136Y-117817481D01*
X159355026Y-118045206D01*
X159491033Y-118253382D01*
X159491036Y-118253385D01*
X159659456Y-118436338D01*
X159855691Y-118589074D01*
X160074390Y-118707428D01*
X160309586Y-118788171D01*
X160554865Y-118829100D01*
X160803535Y-118829100D01*
X161048814Y-118788171D01*
X161284010Y-118707428D01*
X161502709Y-118589074D01*
X161698944Y-118436338D01*
X161867364Y-118253385D01*
X162003373Y-118045207D01*
X162103263Y-117817481D01*
X162164308Y-117576421D01*
X162173461Y-117465965D01*
X162184843Y-117328605D01*
X162184843Y-117328594D01*
X165673557Y-117328594D01*
X165673557Y-117328605D01*
X165694090Y-117576412D01*
X165694092Y-117576424D01*
X165755136Y-117817481D01*
X165855026Y-118045206D01*
X165991033Y-118253382D01*
X165991036Y-118253385D01*
X166159456Y-118436338D01*
X166355691Y-118589074D01*
X166574390Y-118707428D01*
X166809586Y-118788171D01*
X167054865Y-118829100D01*
X167303535Y-118829100D01*
X167548814Y-118788171D01*
X167784010Y-118707428D01*
X168002709Y-118589074D01*
X168198944Y-118436338D01*
X168367364Y-118253385D01*
X168503373Y-118045207D01*
X168603263Y-117817481D01*
X168664308Y-117576421D01*
X168673461Y-117465965D01*
X168684843Y-117328605D01*
X168684843Y-117328594D01*
X168664309Y-117080787D01*
X168664307Y-117080775D01*
X168603263Y-116839718D01*
X168503373Y-116611993D01*
X168367366Y-116403817D01*
X168345757Y-116380344D01*
X168198944Y-116220862D01*
X168002709Y-116068126D01*
X168002707Y-116068125D01*
X168002706Y-116068124D01*
X167784011Y-115949772D01*
X167784002Y-115949769D01*
X167548816Y-115869029D01*
X167303535Y-115828100D01*
X167054865Y-115828100D01*
X166809583Y-115869029D01*
X166574397Y-115949769D01*
X166574388Y-115949772D01*
X166355693Y-116068124D01*
X166159457Y-116220861D01*
X165991033Y-116403817D01*
X165855026Y-116611993D01*
X165755136Y-116839718D01*
X165694092Y-117080775D01*
X165694090Y-117080787D01*
X165673557Y-117328594D01*
X162184843Y-117328594D01*
X162164309Y-117080787D01*
X162164307Y-117080775D01*
X162103263Y-116839718D01*
X162003373Y-116611993D01*
X161867366Y-116403817D01*
X161845757Y-116380344D01*
X161698944Y-116220862D01*
X161502709Y-116068126D01*
X161502707Y-116068125D01*
X161502706Y-116068124D01*
X161284011Y-115949772D01*
X161284002Y-115949769D01*
X161048816Y-115869029D01*
X160803535Y-115828100D01*
X160554865Y-115828100D01*
X160309583Y-115869029D01*
X160074397Y-115949769D01*
X160074388Y-115949772D01*
X159855693Y-116068124D01*
X159659457Y-116220861D01*
X159491033Y-116403817D01*
X159355026Y-116611993D01*
X159255136Y-116839718D01*
X159194092Y-117080775D01*
X159194090Y-117080787D01*
X159173557Y-117328594D01*
X151724843Y-117328594D01*
X151704309Y-117080787D01*
X151704307Y-117080775D01*
X151643263Y-116839718D01*
X151543373Y-116611993D01*
X151407366Y-116403817D01*
X151385757Y-116380344D01*
X151238944Y-116220862D01*
X151042709Y-116068126D01*
X151042707Y-116068125D01*
X151042706Y-116068124D01*
X150824011Y-115949772D01*
X150824002Y-115949769D01*
X150588816Y-115869029D01*
X150343535Y-115828100D01*
X150094865Y-115828100D01*
X149849583Y-115869029D01*
X149614397Y-115949769D01*
X149614388Y-115949772D01*
X149395693Y-116068124D01*
X149199457Y-116220861D01*
X149031033Y-116403817D01*
X148895026Y-116611993D01*
X148795136Y-116839718D01*
X148734092Y-117080775D01*
X148734090Y-117080787D01*
X148713557Y-117328594D01*
X145224843Y-117328594D01*
X145204309Y-117080787D01*
X145204307Y-117080775D01*
X145143263Y-116839718D01*
X145043373Y-116611993D01*
X144907366Y-116403817D01*
X144885757Y-116380344D01*
X144738944Y-116220862D01*
X144542709Y-116068126D01*
X144542707Y-116068125D01*
X144542706Y-116068124D01*
X144324011Y-115949772D01*
X144324002Y-115949769D01*
X144088816Y-115869029D01*
X143843535Y-115828100D01*
X143594865Y-115828100D01*
X143349583Y-115869029D01*
X143114397Y-115949769D01*
X143114388Y-115949772D01*
X142895693Y-116068124D01*
X142699457Y-116220861D01*
X142531033Y-116403817D01*
X142395026Y-116611993D01*
X142295136Y-116839718D01*
X142234092Y-117080775D01*
X142234090Y-117080787D01*
X142213557Y-117328594D01*
X135764581Y-117328594D01*
X135786546Y-117285145D01*
X135805842Y-117268425D01*
X135828026Y-117252891D01*
X135991401Y-117138495D01*
X136158495Y-116971401D01*
X136294035Y-116777830D01*
X136393903Y-116563663D01*
X136455063Y-116335408D01*
X136475659Y-116100000D01*
X136455063Y-115864592D01*
X136393903Y-115636337D01*
X136294035Y-115422171D01*
X136158495Y-115228599D01*
X136158494Y-115228597D01*
X135991402Y-115061506D01*
X135991396Y-115061501D01*
X135805842Y-114931575D01*
X135762217Y-114876998D01*
X135755023Y-114807500D01*
X135786546Y-114745145D01*
X135805842Y-114728425D01*
X135828026Y-114712891D01*
X135991401Y-114598495D01*
X136158495Y-114431401D01*
X136294035Y-114237830D01*
X136393903Y-114023663D01*
X136455063Y-113795408D01*
X136475659Y-113560000D01*
X136455063Y-113324592D01*
X136393903Y-113096337D01*
X136294035Y-112882171D01*
X136256525Y-112828600D01*
X136256521Y-112828594D01*
X142213557Y-112828594D01*
X142213557Y-112828605D01*
X142234090Y-113076412D01*
X142234092Y-113076424D01*
X142295136Y-113317481D01*
X142395026Y-113545206D01*
X142531033Y-113753382D01*
X142531036Y-113753385D01*
X142699456Y-113936338D01*
X142895691Y-114089074D01*
X143114390Y-114207428D01*
X143349586Y-114288171D01*
X143594865Y-114329100D01*
X143843535Y-114329100D01*
X144088814Y-114288171D01*
X144324010Y-114207428D01*
X144542709Y-114089074D01*
X144738944Y-113936338D01*
X144907364Y-113753385D01*
X145043373Y-113545207D01*
X145143263Y-113317481D01*
X145204308Y-113076421D01*
X145220404Y-112882171D01*
X145224843Y-112828605D01*
X145224843Y-112828594D01*
X148713557Y-112828594D01*
X148713557Y-112828605D01*
X148734090Y-113076412D01*
X148734092Y-113076424D01*
X148795136Y-113317481D01*
X148895026Y-113545206D01*
X149031033Y-113753382D01*
X149031036Y-113753385D01*
X149199456Y-113936338D01*
X149395691Y-114089074D01*
X149614390Y-114207428D01*
X149849586Y-114288171D01*
X150094865Y-114329100D01*
X150343535Y-114329100D01*
X150588814Y-114288171D01*
X150824010Y-114207428D01*
X151042709Y-114089074D01*
X151238944Y-113936338D01*
X151407364Y-113753385D01*
X151543373Y-113545207D01*
X151643263Y-113317481D01*
X151704308Y-113076421D01*
X151720404Y-112882171D01*
X151724843Y-112828605D01*
X151724843Y-112828594D01*
X159173557Y-112828594D01*
X159173557Y-112828605D01*
X159194090Y-113076412D01*
X159194092Y-113076424D01*
X159255136Y-113317481D01*
X159355026Y-113545206D01*
X159491033Y-113753382D01*
X159491036Y-113753385D01*
X159659456Y-113936338D01*
X159855691Y-114089074D01*
X160074390Y-114207428D01*
X160309586Y-114288171D01*
X160554865Y-114329100D01*
X160803535Y-114329100D01*
X161048814Y-114288171D01*
X161284010Y-114207428D01*
X161502709Y-114089074D01*
X161698944Y-113936338D01*
X161867364Y-113753385D01*
X162003373Y-113545207D01*
X162103263Y-113317481D01*
X162164308Y-113076421D01*
X162180404Y-112882171D01*
X162184843Y-112828605D01*
X162184843Y-112828594D01*
X165673557Y-112828594D01*
X165673557Y-112828605D01*
X165694090Y-113076412D01*
X165694092Y-113076424D01*
X165755136Y-113317481D01*
X165855026Y-113545206D01*
X165991033Y-113753382D01*
X165991036Y-113753385D01*
X166159456Y-113936338D01*
X166355691Y-114089074D01*
X166574390Y-114207428D01*
X166809586Y-114288171D01*
X167054865Y-114329100D01*
X167303535Y-114329100D01*
X167548814Y-114288171D01*
X167784010Y-114207428D01*
X168002709Y-114089074D01*
X168198944Y-113936338D01*
X168367364Y-113753385D01*
X168503373Y-113545207D01*
X168603263Y-113317481D01*
X168664308Y-113076421D01*
X168680404Y-112882171D01*
X168684843Y-112828605D01*
X168684843Y-112828594D01*
X168664309Y-112580787D01*
X168664307Y-112580775D01*
X168603263Y-112339718D01*
X168503373Y-112111993D01*
X168367366Y-111903817D01*
X168318353Y-111850575D01*
X168198944Y-111720862D01*
X168002709Y-111568126D01*
X168002707Y-111568125D01*
X168002706Y-111568124D01*
X167784011Y-111449772D01*
X167784002Y-111449769D01*
X167548816Y-111369029D01*
X167303535Y-111328100D01*
X167054865Y-111328100D01*
X166809583Y-111369029D01*
X166574397Y-111449769D01*
X166574388Y-111449772D01*
X166355693Y-111568124D01*
X166159457Y-111720861D01*
X165991033Y-111903817D01*
X165855026Y-112111993D01*
X165755136Y-112339718D01*
X165694092Y-112580775D01*
X165694090Y-112580787D01*
X165673557Y-112828594D01*
X162184843Y-112828594D01*
X162164309Y-112580787D01*
X162164307Y-112580775D01*
X162103263Y-112339718D01*
X162003373Y-112111993D01*
X161867366Y-111903817D01*
X161818353Y-111850575D01*
X161698944Y-111720862D01*
X161502709Y-111568126D01*
X161502707Y-111568125D01*
X161502706Y-111568124D01*
X161284011Y-111449772D01*
X161284002Y-111449769D01*
X161048816Y-111369029D01*
X160803535Y-111328100D01*
X160554865Y-111328100D01*
X160309583Y-111369029D01*
X160074397Y-111449769D01*
X160074388Y-111449772D01*
X159855693Y-111568124D01*
X159659457Y-111720861D01*
X159491033Y-111903817D01*
X159355026Y-112111993D01*
X159255136Y-112339718D01*
X159194092Y-112580775D01*
X159194090Y-112580787D01*
X159173557Y-112828594D01*
X151724843Y-112828594D01*
X151704309Y-112580787D01*
X151704307Y-112580775D01*
X151643263Y-112339718D01*
X151543373Y-112111993D01*
X151407366Y-111903817D01*
X151358353Y-111850575D01*
X151238944Y-111720862D01*
X151042709Y-111568126D01*
X151042707Y-111568125D01*
X151042706Y-111568124D01*
X150824011Y-111449772D01*
X150824002Y-111449769D01*
X150588816Y-111369029D01*
X150343535Y-111328100D01*
X150094865Y-111328100D01*
X149849583Y-111369029D01*
X149614397Y-111449769D01*
X149614388Y-111449772D01*
X149395693Y-111568124D01*
X149199457Y-111720861D01*
X149031033Y-111903817D01*
X148895026Y-112111993D01*
X148795136Y-112339718D01*
X148734092Y-112580775D01*
X148734090Y-112580787D01*
X148713557Y-112828594D01*
X145224843Y-112828594D01*
X145204309Y-112580787D01*
X145204307Y-112580775D01*
X145143263Y-112339718D01*
X145043373Y-112111993D01*
X144907366Y-111903817D01*
X144858353Y-111850575D01*
X144738944Y-111720862D01*
X144542709Y-111568126D01*
X144542707Y-111568125D01*
X144542706Y-111568124D01*
X144324011Y-111449772D01*
X144324002Y-111449769D01*
X144088816Y-111369029D01*
X143843535Y-111328100D01*
X143594865Y-111328100D01*
X143349583Y-111369029D01*
X143114397Y-111449769D01*
X143114388Y-111449772D01*
X142895693Y-111568124D01*
X142699457Y-111720861D01*
X142531033Y-111903817D01*
X142395026Y-112111993D01*
X142295136Y-112339718D01*
X142234092Y-112580775D01*
X142234090Y-112580787D01*
X142213557Y-112828594D01*
X136256521Y-112828594D01*
X136158494Y-112688597D01*
X135991402Y-112521506D01*
X135991396Y-112521501D01*
X135805842Y-112391575D01*
X135762217Y-112336998D01*
X135755023Y-112267500D01*
X135786546Y-112205145D01*
X135805842Y-112188425D01*
X135914998Y-112111993D01*
X135991401Y-112058495D01*
X136158495Y-111891401D01*
X136294035Y-111697830D01*
X136393903Y-111483663D01*
X136455063Y-111255408D01*
X136475659Y-111020000D01*
X136455063Y-110784592D01*
X136393903Y-110556337D01*
X136294035Y-110342171D01*
X136270228Y-110308170D01*
X136158494Y-110148597D01*
X135991402Y-109981506D01*
X135991396Y-109981501D01*
X135805842Y-109851575D01*
X135762217Y-109796998D01*
X135755023Y-109727500D01*
X135786546Y-109665145D01*
X135805842Y-109648425D01*
X135924689Y-109565207D01*
X135991401Y-109518495D01*
X136158495Y-109351401D01*
X136294035Y-109157830D01*
X136393903Y-108943663D01*
X136419376Y-108848594D01*
X150693557Y-108848594D01*
X150693557Y-108848605D01*
X150714090Y-109096412D01*
X150714092Y-109096424D01*
X150775136Y-109337481D01*
X150875026Y-109565206D01*
X151011033Y-109773382D01*
X151011036Y-109773385D01*
X151179456Y-109956338D01*
X151375691Y-110109074D01*
X151594390Y-110227428D01*
X151829586Y-110308171D01*
X152074865Y-110349100D01*
X152323535Y-110349100D01*
X152568814Y-110308171D01*
X152804010Y-110227428D01*
X153022709Y-110109074D01*
X153218944Y-109956338D01*
X153387364Y-109773385D01*
X153523373Y-109565207D01*
X153623263Y-109337481D01*
X153684308Y-109096421D01*
X153704843Y-108848600D01*
X153704843Y-108848594D01*
X157193557Y-108848594D01*
X157193557Y-108848605D01*
X157214090Y-109096412D01*
X157214092Y-109096424D01*
X157275136Y-109337481D01*
X157375026Y-109565206D01*
X157511033Y-109773382D01*
X157511036Y-109773385D01*
X157679456Y-109956338D01*
X157875691Y-110109074D01*
X158094390Y-110227428D01*
X158329586Y-110308171D01*
X158574865Y-110349100D01*
X158823535Y-110349100D01*
X159068814Y-110308171D01*
X159304010Y-110227428D01*
X159522709Y-110109074D01*
X159718944Y-109956338D01*
X159887364Y-109773385D01*
X160023373Y-109565207D01*
X160123263Y-109337481D01*
X160184308Y-109096421D01*
X160204843Y-108848600D01*
X160193806Y-108715408D01*
X160184309Y-108600787D01*
X160184307Y-108600775D01*
X160123263Y-108359718D01*
X160023373Y-108131993D01*
X159887366Y-107923817D01*
X159865757Y-107900344D01*
X159718944Y-107740862D01*
X159522709Y-107588126D01*
X159522707Y-107588125D01*
X159522706Y-107588124D01*
X159304011Y-107469772D01*
X159304002Y-107469769D01*
X159068816Y-107389029D01*
X158823535Y-107348100D01*
X158574865Y-107348100D01*
X158329583Y-107389029D01*
X158094397Y-107469769D01*
X158094388Y-107469772D01*
X157875693Y-107588124D01*
X157679457Y-107740861D01*
X157511033Y-107923817D01*
X157375026Y-108131993D01*
X157275136Y-108359718D01*
X157214092Y-108600775D01*
X157214090Y-108600787D01*
X157193557Y-108848594D01*
X153704843Y-108848594D01*
X153693806Y-108715408D01*
X153684309Y-108600787D01*
X153684307Y-108600775D01*
X153623263Y-108359718D01*
X153523373Y-108131993D01*
X153387366Y-107923817D01*
X153365757Y-107900344D01*
X153218944Y-107740862D01*
X153022709Y-107588126D01*
X153022707Y-107588125D01*
X153022706Y-107588124D01*
X152804011Y-107469772D01*
X152804002Y-107469769D01*
X152568816Y-107389029D01*
X152323535Y-107348100D01*
X152074865Y-107348100D01*
X151829583Y-107389029D01*
X151594397Y-107469769D01*
X151594388Y-107469772D01*
X151375693Y-107588124D01*
X151179457Y-107740861D01*
X151011033Y-107923817D01*
X150875026Y-108131993D01*
X150775136Y-108359718D01*
X150714092Y-108600775D01*
X150714090Y-108600787D01*
X150693557Y-108848594D01*
X136419376Y-108848594D01*
X136455063Y-108715408D01*
X136475659Y-108480000D01*
X136455063Y-108244592D01*
X136393903Y-108016337D01*
X136294035Y-107802171D01*
X136251107Y-107740862D01*
X136158494Y-107608597D01*
X135991402Y-107441506D01*
X135991396Y-107441501D01*
X135805842Y-107311575D01*
X135762217Y-107256998D01*
X135755023Y-107187500D01*
X135786546Y-107125145D01*
X135805842Y-107108425D01*
X135828026Y-107092891D01*
X135991401Y-106978495D01*
X136158495Y-106811401D01*
X136294035Y-106617830D01*
X136393903Y-106403663D01*
X136455063Y-106175408D01*
X136475659Y-105940000D01*
X136455063Y-105704592D01*
X136393903Y-105476337D01*
X136294035Y-105262171D01*
X136213533Y-105147201D01*
X136158494Y-105068597D01*
X135991402Y-104901506D01*
X135991396Y-104901501D01*
X135805842Y-104771575D01*
X135762217Y-104716998D01*
X135755023Y-104647500D01*
X135786546Y-104585145D01*
X135805842Y-104568425D01*
X135828026Y-104552891D01*
X135991401Y-104438495D01*
X136081302Y-104348594D01*
X150693557Y-104348594D01*
X150693557Y-104348605D01*
X150714090Y-104596412D01*
X150714092Y-104596424D01*
X150775136Y-104837481D01*
X150875026Y-105065206D01*
X151011033Y-105273382D01*
X151011036Y-105273385D01*
X151179456Y-105456338D01*
X151375691Y-105609074D01*
X151594390Y-105727428D01*
X151829586Y-105808171D01*
X152074865Y-105849100D01*
X152323535Y-105849100D01*
X152568814Y-105808171D01*
X152804010Y-105727428D01*
X153022709Y-105609074D01*
X153218944Y-105456338D01*
X153387364Y-105273385D01*
X153523373Y-105065207D01*
X153623263Y-104837481D01*
X153684308Y-104596421D01*
X153684309Y-104596412D01*
X153704843Y-104348605D01*
X153704843Y-104348594D01*
X157193557Y-104348594D01*
X157193557Y-104348605D01*
X157214090Y-104596412D01*
X157214092Y-104596424D01*
X157275136Y-104837481D01*
X157375026Y-105065206D01*
X157511033Y-105273382D01*
X157511036Y-105273385D01*
X157679456Y-105456338D01*
X157875691Y-105609074D01*
X158094390Y-105727428D01*
X158329586Y-105808171D01*
X158574865Y-105849100D01*
X158823535Y-105849100D01*
X159068814Y-105808171D01*
X159304010Y-105727428D01*
X159522709Y-105609074D01*
X159718944Y-105456338D01*
X159887364Y-105273385D01*
X160023373Y-105065207D01*
X160123263Y-104837481D01*
X160184308Y-104596421D01*
X160184309Y-104596412D01*
X160204843Y-104348605D01*
X160204843Y-104348594D01*
X160184309Y-104100787D01*
X160184307Y-104100775D01*
X160123263Y-103859718D01*
X160023373Y-103631993D01*
X159887366Y-103423817D01*
X159865440Y-103399999D01*
X159718944Y-103240862D01*
X159522709Y-103088126D01*
X159522707Y-103088125D01*
X159522706Y-103088124D01*
X159304011Y-102969772D01*
X159304002Y-102969769D01*
X159068816Y-102889029D01*
X158823535Y-102848100D01*
X158574865Y-102848100D01*
X158329583Y-102889029D01*
X158094397Y-102969769D01*
X158094388Y-102969772D01*
X157875693Y-103088124D01*
X157679457Y-103240861D01*
X157511033Y-103423817D01*
X157375026Y-103631993D01*
X157275136Y-103859718D01*
X157214092Y-104100775D01*
X157214090Y-104100787D01*
X157193557Y-104348594D01*
X153704843Y-104348594D01*
X153684309Y-104100787D01*
X153684307Y-104100775D01*
X153623263Y-103859718D01*
X153523373Y-103631993D01*
X153387366Y-103423817D01*
X153365440Y-103399999D01*
X153218944Y-103240862D01*
X153022709Y-103088126D01*
X153022707Y-103088125D01*
X153022706Y-103088124D01*
X152804011Y-102969772D01*
X152804002Y-102969769D01*
X152568816Y-102889029D01*
X152323535Y-102848100D01*
X152074865Y-102848100D01*
X151829583Y-102889029D01*
X151594397Y-102969769D01*
X151594388Y-102969772D01*
X151375693Y-103088124D01*
X151179457Y-103240861D01*
X151011033Y-103423817D01*
X150875026Y-103631993D01*
X150775136Y-103859718D01*
X150714092Y-104100775D01*
X150714090Y-104100787D01*
X150693557Y-104348594D01*
X136081302Y-104348594D01*
X136158495Y-104271401D01*
X136294035Y-104077830D01*
X136393903Y-103863663D01*
X136455063Y-103635408D01*
X136475659Y-103400000D01*
X136455063Y-103164592D01*
X136393903Y-102936337D01*
X136294035Y-102722171D01*
X136158495Y-102528599D01*
X136158494Y-102528597D01*
X135991402Y-102361506D01*
X135991396Y-102361501D01*
X135805842Y-102231575D01*
X135762217Y-102176998D01*
X135755023Y-102107500D01*
X135786546Y-102045145D01*
X135805842Y-102028425D01*
X135828026Y-102012891D01*
X135991401Y-101898495D01*
X136158495Y-101731401D01*
X136294035Y-101537830D01*
X136393903Y-101323663D01*
X136455063Y-101095408D01*
X136475659Y-100860000D01*
X136455063Y-100624592D01*
X136393903Y-100396337D01*
X136294035Y-100182171D01*
X136158495Y-99988599D01*
X136158494Y-99988597D01*
X135991402Y-99821506D01*
X135991396Y-99821501D01*
X135805842Y-99691575D01*
X135762217Y-99636998D01*
X135755023Y-99567500D01*
X135786546Y-99505145D01*
X135805842Y-99488425D01*
X135914224Y-99412535D01*
X135991401Y-99358495D01*
X136158495Y-99191401D01*
X136294035Y-98997830D01*
X136393903Y-98783663D01*
X136455063Y-98555408D01*
X136475659Y-98320000D01*
X136455063Y-98084592D01*
X136408626Y-97911285D01*
X136393905Y-97856344D01*
X136393904Y-97856343D01*
X136393903Y-97856337D01*
X136294035Y-97642171D01*
X136288871Y-97634795D01*
X136158494Y-97448597D01*
X135991402Y-97281506D01*
X135991395Y-97281501D01*
X135797834Y-97145967D01*
X135797830Y-97145965D01*
X135792085Y-97143286D01*
X135583663Y-97046097D01*
X135583659Y-97046096D01*
X135583655Y-97046094D01*
X135355413Y-96984938D01*
X135355403Y-96984936D01*
X135120001Y-96964341D01*
X135119999Y-96964341D01*
X134884596Y-96984936D01*
X134884586Y-96984938D01*
X134656344Y-97046094D01*
X134656335Y-97046098D01*
X134442171Y-97145964D01*
X134442169Y-97145965D01*
X134248597Y-97281505D01*
X134081505Y-97448597D01*
X133951575Y-97634158D01*
X133896998Y-97677783D01*
X133827500Y-97684977D01*
X133765145Y-97653454D01*
X133748425Y-97634158D01*
X133618494Y-97448597D01*
X133451402Y-97281506D01*
X133451395Y-97281501D01*
X133257834Y-97145967D01*
X133257830Y-97145965D01*
X133252085Y-97143286D01*
X133043663Y-97046097D01*
X133043659Y-97046096D01*
X133043655Y-97046094D01*
X132815413Y-96984938D01*
X132815403Y-96984936D01*
X132580001Y-96964341D01*
X132579999Y-96964341D01*
X132344596Y-96984936D01*
X132344586Y-96984938D01*
X132116344Y-97046094D01*
X132116335Y-97046098D01*
X131902171Y-97145964D01*
X131902169Y-97145965D01*
X131708597Y-97281505D01*
X131541505Y-97448597D01*
X131411575Y-97634158D01*
X131356998Y-97677783D01*
X131287500Y-97684977D01*
X131225145Y-97653454D01*
X131208425Y-97634158D01*
X131078494Y-97448597D01*
X130911402Y-97281506D01*
X130911395Y-97281501D01*
X130717831Y-97145965D01*
X130717826Y-97145962D01*
X130712091Y-97143288D01*
X130659653Y-97097113D01*
X130640500Y-97030908D01*
X130640500Y-95325297D01*
X130660185Y-95258258D01*
X130676819Y-95237616D01*
X132677817Y-93236619D01*
X132739140Y-93203134D01*
X132765498Y-93200300D01*
X136737703Y-93200300D01*
X136804742Y-93219985D01*
X136825383Y-93236618D01*
X139132684Y-95543920D01*
X139132686Y-95543921D01*
X139132690Y-95543924D01*
X139269609Y-95622973D01*
X139269616Y-95622977D01*
X139422343Y-95663901D01*
X139422345Y-95663901D01*
X139588054Y-95663901D01*
X139588070Y-95663900D01*
X161807103Y-95663900D01*
X161874142Y-95683585D01*
X161894784Y-95700219D01*
X162994581Y-96800016D01*
X163028066Y-96861339D01*
X163030900Y-96887697D01*
X163030900Y-97031108D01*
X163011215Y-97098147D01*
X162959314Y-97143486D01*
X162953573Y-97146163D01*
X162953569Y-97146165D01*
X162759997Y-97281705D01*
X162592905Y-97448797D01*
X162462975Y-97634358D01*
X162408398Y-97677983D01*
X162338900Y-97685177D01*
X162276545Y-97653654D01*
X162259825Y-97634358D01*
X162129894Y-97448797D01*
X161962802Y-97281706D01*
X161962795Y-97281701D01*
X161962509Y-97281501D01*
X161885918Y-97227871D01*
X161769234Y-97146167D01*
X161769230Y-97146165D01*
X161763056Y-97143286D01*
X161555063Y-97046297D01*
X161555059Y-97046296D01*
X161555055Y-97046294D01*
X161326813Y-96985138D01*
X161326803Y-96985136D01*
X161091401Y-96964541D01*
X161091399Y-96964541D01*
X160855996Y-96985136D01*
X160855986Y-96985138D01*
X160627744Y-97046294D01*
X160627735Y-97046298D01*
X160413571Y-97146164D01*
X160413569Y-97146165D01*
X160219997Y-97281705D01*
X160052905Y-97448797D01*
X159922975Y-97634358D01*
X159868398Y-97677983D01*
X159798900Y-97685177D01*
X159736545Y-97653654D01*
X159719825Y-97634358D01*
X159589894Y-97448797D01*
X159422802Y-97281706D01*
X159422795Y-97281701D01*
X159422509Y-97281501D01*
X159345918Y-97227871D01*
X159229234Y-97146167D01*
X159229230Y-97146165D01*
X159223056Y-97143286D01*
X159015063Y-97046297D01*
X159015059Y-97046296D01*
X159015055Y-97046294D01*
X158786813Y-96985138D01*
X158786803Y-96985136D01*
X158551401Y-96964541D01*
X158551399Y-96964541D01*
X158315996Y-96985136D01*
X158315986Y-96985138D01*
X158087744Y-97046294D01*
X158087735Y-97046298D01*
X157873571Y-97146164D01*
X157873569Y-97146165D01*
X157679997Y-97281705D01*
X157512905Y-97448797D01*
X157382975Y-97634358D01*
X157328398Y-97677983D01*
X157258900Y-97685177D01*
X157196545Y-97653654D01*
X157179825Y-97634358D01*
X157049894Y-97448797D01*
X156882802Y-97281706D01*
X156882795Y-97281701D01*
X156882509Y-97281501D01*
X156805918Y-97227871D01*
X156689234Y-97146167D01*
X156689230Y-97146165D01*
X156683056Y-97143286D01*
X156475063Y-97046297D01*
X156475059Y-97046296D01*
X156475055Y-97046294D01*
X156246813Y-96985138D01*
X156246803Y-96985136D01*
X156011401Y-96964541D01*
X156011399Y-96964541D01*
X155775996Y-96985136D01*
X155775986Y-96985138D01*
X155547744Y-97046294D01*
X155547735Y-97046298D01*
X155333571Y-97146164D01*
X155333569Y-97146165D01*
X155139997Y-97281705D01*
X154972905Y-97448797D01*
X154842975Y-97634358D01*
X154788398Y-97677983D01*
X154718900Y-97685177D01*
X154656545Y-97653654D01*
X154639825Y-97634358D01*
X154509894Y-97448797D01*
X154342802Y-97281706D01*
X154342795Y-97281701D01*
X154342509Y-97281501D01*
X154265918Y-97227871D01*
X154149234Y-97146167D01*
X154149230Y-97146165D01*
X154143056Y-97143286D01*
X153935063Y-97046297D01*
X153935059Y-97046296D01*
X153935055Y-97046294D01*
X153706813Y-96985138D01*
X153706803Y-96985136D01*
X153471401Y-96964541D01*
X153471399Y-96964541D01*
X153235996Y-96985136D01*
X153235986Y-96985138D01*
X153007744Y-97046294D01*
X153007735Y-97046298D01*
X152793571Y-97146164D01*
X152793569Y-97146165D01*
X152599997Y-97281705D01*
X152432905Y-97448797D01*
X152302975Y-97634358D01*
X152248398Y-97677983D01*
X152178900Y-97685177D01*
X152116545Y-97653654D01*
X152099825Y-97634358D01*
X151969894Y-97448797D01*
X151802802Y-97281706D01*
X151802795Y-97281701D01*
X151802509Y-97281501D01*
X151725918Y-97227871D01*
X151609234Y-97146167D01*
X151609230Y-97146165D01*
X151603056Y-97143286D01*
X151395063Y-97046297D01*
X151395059Y-97046296D01*
X151395055Y-97046294D01*
X151166813Y-96985138D01*
X151166803Y-96985136D01*
X150931401Y-96964541D01*
X150931399Y-96964541D01*
X150695996Y-96985136D01*
X150695986Y-96985138D01*
X150467744Y-97046294D01*
X150467735Y-97046298D01*
X150253571Y-97146164D01*
X150253569Y-97146165D01*
X150059997Y-97281705D01*
X149892905Y-97448797D01*
X149762975Y-97634358D01*
X149708398Y-97677983D01*
X149638900Y-97685177D01*
X149576545Y-97653654D01*
X149559825Y-97634358D01*
X149429894Y-97448797D01*
X149262802Y-97281706D01*
X149262795Y-97281701D01*
X149262509Y-97281501D01*
X149185918Y-97227871D01*
X149069234Y-97146167D01*
X149069230Y-97146165D01*
X149063056Y-97143286D01*
X148855063Y-97046297D01*
X148855059Y-97046296D01*
X148855055Y-97046294D01*
X148626813Y-96985138D01*
X148626803Y-96985136D01*
X148391401Y-96964541D01*
X148391399Y-96964541D01*
X148155996Y-96985136D01*
X148155986Y-96985138D01*
X147927744Y-97046294D01*
X147927735Y-97046298D01*
X147713571Y-97146164D01*
X147713569Y-97146165D01*
X147519997Y-97281705D01*
X147352905Y-97448797D01*
X147222975Y-97634358D01*
X147168398Y-97677983D01*
X147098900Y-97685177D01*
X147036545Y-97653654D01*
X147019825Y-97634358D01*
X146889894Y-97448797D01*
X146722802Y-97281706D01*
X146722795Y-97281701D01*
X146722509Y-97281501D01*
X146645918Y-97227871D01*
X146529234Y-97146167D01*
X146529230Y-97146165D01*
X146523056Y-97143286D01*
X146315063Y-97046297D01*
X146315059Y-97046296D01*
X146315055Y-97046294D01*
X146086813Y-96985138D01*
X146086803Y-96985136D01*
X145851401Y-96964541D01*
X145851399Y-96964541D01*
X145615996Y-96985136D01*
X145615986Y-96985138D01*
X145387744Y-97046294D01*
X145387735Y-97046298D01*
X145173571Y-97146164D01*
X145173569Y-97146165D01*
X144979997Y-97281705D01*
X144812905Y-97448797D01*
X144682975Y-97634358D01*
X144628398Y-97677983D01*
X144558900Y-97685177D01*
X144496545Y-97653654D01*
X144479825Y-97634358D01*
X144349894Y-97448797D01*
X144182802Y-97281706D01*
X144182795Y-97281701D01*
X144182509Y-97281501D01*
X144105918Y-97227871D01*
X143989234Y-97146167D01*
X143989230Y-97146165D01*
X143983056Y-97143286D01*
X143775063Y-97046297D01*
X143775059Y-97046296D01*
X143775055Y-97046294D01*
X143546813Y-96985138D01*
X143546803Y-96985136D01*
X143311401Y-96964541D01*
X143311399Y-96964541D01*
X143075996Y-96985136D01*
X143075986Y-96985138D01*
X142847744Y-97046294D01*
X142847735Y-97046298D01*
X142633571Y-97146164D01*
X142633569Y-97146165D01*
X142439997Y-97281705D01*
X142272905Y-97448797D01*
X142142975Y-97634358D01*
X142088398Y-97677983D01*
X142018900Y-97685177D01*
X141956545Y-97653654D01*
X141939825Y-97634358D01*
X141809894Y-97448797D01*
X141642802Y-97281706D01*
X141642795Y-97281701D01*
X141642509Y-97281501D01*
X141565918Y-97227871D01*
X141449234Y-97146167D01*
X141449230Y-97146165D01*
X141443056Y-97143286D01*
X141235063Y-97046297D01*
X141235059Y-97046296D01*
X141235055Y-97046294D01*
X141006813Y-96985138D01*
X141006803Y-96985136D01*
X140771401Y-96964541D01*
X140771399Y-96964541D01*
X140535996Y-96985136D01*
X140535986Y-96985138D01*
X140307744Y-97046294D01*
X140307735Y-97046298D01*
X140093571Y-97146164D01*
X140093569Y-97146165D01*
X139899997Y-97281705D01*
X139732905Y-97448797D01*
X139597365Y-97642369D01*
X139597364Y-97642371D01*
X139497498Y-97856535D01*
X139497494Y-97856544D01*
X139436338Y-98084786D01*
X139436336Y-98084796D01*
X139415741Y-98320199D01*
X139415741Y-98320200D01*
X139436336Y-98555603D01*
X139436338Y-98555613D01*
X139497494Y-98783855D01*
X139497496Y-98783859D01*
X139497497Y-98783863D01*
X139577404Y-98955223D01*
X139597365Y-98998030D01*
X139597367Y-98998034D01*
X139705681Y-99152721D01*
X139732905Y-99191601D01*
X139899999Y-99358695D01*
X139996784Y-99426465D01*
X140093565Y-99494232D01*
X140093567Y-99494233D01*
X140093570Y-99494235D01*
X140307737Y-99594103D01*
X140535992Y-99655263D01*
X140712434Y-99670700D01*
X140771399Y-99675859D01*
X140771400Y-99675859D01*
X140771401Y-99675859D01*
X140830366Y-99670700D01*
X141006808Y-99655263D01*
X141235063Y-99594103D01*
X141449230Y-99494235D01*
X141642801Y-99358695D01*
X141809895Y-99191601D01*
X141939825Y-99006042D01*
X141994402Y-98962417D01*
X142063900Y-98955223D01*
X142126255Y-98986746D01*
X142142975Y-99006042D01*
X142272900Y-99191595D01*
X142272905Y-99191601D01*
X142439999Y-99358695D01*
X142536784Y-99426465D01*
X142633565Y-99494232D01*
X142633567Y-99494233D01*
X142633570Y-99494235D01*
X142847737Y-99594103D01*
X143075992Y-99655263D01*
X143252434Y-99670700D01*
X143311399Y-99675859D01*
X143311400Y-99675859D01*
X143311401Y-99675859D01*
X143370366Y-99670700D01*
X143546808Y-99655263D01*
X143775063Y-99594103D01*
X143989230Y-99494235D01*
X144182801Y-99358695D01*
X144349895Y-99191601D01*
X144479825Y-99006042D01*
X144534402Y-98962417D01*
X144603900Y-98955223D01*
X144666255Y-98986746D01*
X144682975Y-99006042D01*
X144812900Y-99191595D01*
X144812905Y-99191601D01*
X144979999Y-99358695D01*
X145076784Y-99426465D01*
X145173565Y-99494232D01*
X145173567Y-99494233D01*
X145173570Y-99494235D01*
X145387737Y-99594103D01*
X145615992Y-99655263D01*
X145792434Y-99670700D01*
X145851399Y-99675859D01*
X145851400Y-99675859D01*
X145851401Y-99675859D01*
X145910366Y-99670700D01*
X146086808Y-99655263D01*
X146315063Y-99594103D01*
X146529230Y-99494235D01*
X146722801Y-99358695D01*
X146889895Y-99191601D01*
X147019825Y-99006042D01*
X147074402Y-98962417D01*
X147143900Y-98955223D01*
X147206255Y-98986746D01*
X147222975Y-99006042D01*
X147352900Y-99191595D01*
X147352905Y-99191601D01*
X147519999Y-99358695D01*
X147616784Y-99426465D01*
X147713565Y-99494232D01*
X147713567Y-99494233D01*
X147713570Y-99494235D01*
X147927737Y-99594103D01*
X148155992Y-99655263D01*
X148332434Y-99670700D01*
X148391399Y-99675859D01*
X148391400Y-99675859D01*
X148391401Y-99675859D01*
X148450366Y-99670700D01*
X148626808Y-99655263D01*
X148855063Y-99594103D01*
X149069230Y-99494235D01*
X149262801Y-99358695D01*
X149429895Y-99191601D01*
X149559825Y-99006042D01*
X149614402Y-98962417D01*
X149683900Y-98955223D01*
X149746255Y-98986746D01*
X149762975Y-99006042D01*
X149892900Y-99191595D01*
X149892905Y-99191601D01*
X150059999Y-99358695D01*
X150156784Y-99426465D01*
X150253565Y-99494232D01*
X150253567Y-99494233D01*
X150253570Y-99494235D01*
X150467737Y-99594103D01*
X150695992Y-99655263D01*
X150872434Y-99670700D01*
X150931399Y-99675859D01*
X150931400Y-99675859D01*
X150931401Y-99675859D01*
X150990366Y-99670700D01*
X151166808Y-99655263D01*
X151395063Y-99594103D01*
X151609230Y-99494235D01*
X151802801Y-99358695D01*
X151969895Y-99191601D01*
X152099825Y-99006042D01*
X152154402Y-98962417D01*
X152223900Y-98955223D01*
X152286255Y-98986746D01*
X152302975Y-99006042D01*
X152432900Y-99191595D01*
X152432905Y-99191601D01*
X152599999Y-99358695D01*
X152696784Y-99426465D01*
X152793565Y-99494232D01*
X152793567Y-99494233D01*
X152793570Y-99494235D01*
X153007737Y-99594103D01*
X153235992Y-99655263D01*
X153412434Y-99670700D01*
X153471399Y-99675859D01*
X153471400Y-99675859D01*
X153471401Y-99675859D01*
X153530366Y-99670700D01*
X153706808Y-99655263D01*
X153935063Y-99594103D01*
X154149230Y-99494235D01*
X154342801Y-99358695D01*
X154509895Y-99191601D01*
X154639825Y-99006042D01*
X154694402Y-98962417D01*
X154763900Y-98955223D01*
X154826255Y-98986746D01*
X154842975Y-99006042D01*
X154972900Y-99191595D01*
X154972905Y-99191601D01*
X155139999Y-99358695D01*
X155236784Y-99426465D01*
X155333565Y-99494232D01*
X155333567Y-99494233D01*
X155333570Y-99494235D01*
X155547737Y-99594103D01*
X155775992Y-99655263D01*
X155952434Y-99670700D01*
X156011399Y-99675859D01*
X156011400Y-99675859D01*
X156011401Y-99675859D01*
X156070366Y-99670700D01*
X156246808Y-99655263D01*
X156475063Y-99594103D01*
X156689230Y-99494235D01*
X156882801Y-99358695D01*
X157049895Y-99191601D01*
X157179825Y-99006042D01*
X157234402Y-98962417D01*
X157303900Y-98955223D01*
X157366255Y-98986746D01*
X157382975Y-99006042D01*
X157512900Y-99191595D01*
X157512905Y-99191601D01*
X157679999Y-99358695D01*
X157776784Y-99426465D01*
X157873565Y-99494232D01*
X157873567Y-99494233D01*
X157873570Y-99494235D01*
X158087737Y-99594103D01*
X158315992Y-99655263D01*
X158492434Y-99670700D01*
X158551399Y-99675859D01*
X158551400Y-99675859D01*
X158551401Y-99675859D01*
X158610366Y-99670700D01*
X158786808Y-99655263D01*
X159015063Y-99594103D01*
X159229230Y-99494235D01*
X159422801Y-99358695D01*
X159589895Y-99191601D01*
X159719825Y-99006042D01*
X159774402Y-98962417D01*
X159843900Y-98955223D01*
X159906255Y-98986746D01*
X159922975Y-99006042D01*
X160052900Y-99191595D01*
X160052905Y-99191601D01*
X160219999Y-99358695D01*
X160316784Y-99426465D01*
X160413565Y-99494232D01*
X160413567Y-99494233D01*
X160413570Y-99494235D01*
X160627737Y-99594103D01*
X160855992Y-99655263D01*
X161032434Y-99670700D01*
X161091399Y-99675859D01*
X161091400Y-99675859D01*
X161091401Y-99675859D01*
X161150366Y-99670700D01*
X161326808Y-99655263D01*
X161555063Y-99594103D01*
X161769230Y-99494235D01*
X161962801Y-99358695D01*
X162129895Y-99191601D01*
X162259825Y-99006042D01*
X162314402Y-98962417D01*
X162383900Y-98955223D01*
X162446255Y-98986746D01*
X162462975Y-99006042D01*
X162592900Y-99191595D01*
X162592905Y-99191601D01*
X162759999Y-99358695D01*
X162856784Y-99426465D01*
X162953565Y-99494232D01*
X162953567Y-99494233D01*
X162953570Y-99494235D01*
X163167737Y-99594103D01*
X163395992Y-99655263D01*
X163572434Y-99670700D01*
X163631399Y-99675859D01*
X163631400Y-99675859D01*
X163631401Y-99675859D01*
X163690366Y-99670700D01*
X163866808Y-99655263D01*
X164095063Y-99594103D01*
X164309230Y-99494235D01*
X164502801Y-99358695D01*
X164669895Y-99191601D01*
X164800130Y-99005605D01*
X164854707Y-98961981D01*
X164924205Y-98954787D01*
X164986560Y-98986310D01*
X165003279Y-99005605D01*
X165133290Y-99191278D01*
X165300317Y-99358305D01*
X165493821Y-99493800D01*
X165707907Y-99593629D01*
X165707916Y-99593633D01*
X165921400Y-99650834D01*
X165921400Y-98753212D01*
X165978407Y-98786125D01*
X166105574Y-98820200D01*
X166237226Y-98820200D01*
X166364393Y-98786125D01*
X166421400Y-98753212D01*
X166421400Y-99650833D01*
X166634883Y-99593633D01*
X166634892Y-99593629D01*
X166848978Y-99493800D01*
X167042478Y-99358308D01*
X167164533Y-99236253D01*
X167225856Y-99202768D01*
X167295548Y-99207752D01*
X167351482Y-99249623D01*
X167368397Y-99280601D01*
X167417602Y-99412528D01*
X167417606Y-99412535D01*
X167503852Y-99527744D01*
X167503855Y-99527747D01*
X167619064Y-99613993D01*
X167619071Y-99613997D01*
X167753917Y-99664291D01*
X167753916Y-99664291D01*
X167760844Y-99665035D01*
X167813527Y-99670700D01*
X169609272Y-99670699D01*
X169668883Y-99664291D01*
X169803731Y-99613996D01*
X169918946Y-99527746D01*
X170005196Y-99412531D01*
X170055491Y-99277683D01*
X170061900Y-99218073D01*
X170061899Y-97422328D01*
X170055491Y-97362717D01*
X170054402Y-97359798D01*
X170005197Y-97227871D01*
X170005193Y-97227864D01*
X169918947Y-97112655D01*
X169918944Y-97112652D01*
X169803735Y-97026406D01*
X169803728Y-97026402D01*
X169668882Y-96976108D01*
X169668883Y-96976108D01*
X169609283Y-96969701D01*
X169609281Y-96969700D01*
X169609273Y-96969700D01*
X169609264Y-96969700D01*
X167813529Y-96969700D01*
X167813523Y-96969701D01*
X167753916Y-96976108D01*
X167619071Y-97026402D01*
X167619064Y-97026406D01*
X167503855Y-97112652D01*
X167503852Y-97112655D01*
X167417606Y-97227864D01*
X167417602Y-97227871D01*
X167368397Y-97359798D01*
X167326526Y-97415732D01*
X167261061Y-97440149D01*
X167192788Y-97425297D01*
X167164534Y-97404146D01*
X167042482Y-97282094D01*
X166848978Y-97146599D01*
X166634892Y-97046770D01*
X166634886Y-97046767D01*
X166421400Y-96989564D01*
X166421400Y-97887188D01*
X166364393Y-97854275D01*
X166237226Y-97820200D01*
X166105574Y-97820200D01*
X165978407Y-97854275D01*
X165921400Y-97887188D01*
X165921400Y-96989564D01*
X165921399Y-96989564D01*
X165707913Y-97046767D01*
X165707907Y-97046770D01*
X165493822Y-97146599D01*
X165493820Y-97146600D01*
X165300326Y-97282086D01*
X165300320Y-97282091D01*
X165133291Y-97449120D01*
X165133290Y-97449122D01*
X165003280Y-97634795D01*
X164948703Y-97678419D01*
X164879204Y-97685612D01*
X164816850Y-97654090D01*
X164800130Y-97634794D01*
X164669894Y-97448797D01*
X164502802Y-97281706D01*
X164502795Y-97281701D01*
X164502509Y-97281501D01*
X164425918Y-97227871D01*
X164309231Y-97146165D01*
X164309226Y-97146162D01*
X164303491Y-97143488D01*
X164251053Y-97097313D01*
X164231900Y-97031108D01*
X164231900Y-96508545D01*
X164231900Y-96508543D01*
X164190977Y-96355816D01*
X164190977Y-96355815D01*
X164159018Y-96300461D01*
X164111920Y-96218884D01*
X164000116Y-96107080D01*
X164000115Y-96107079D01*
X163995785Y-96102749D01*
X163995774Y-96102739D01*
X162594790Y-94701755D01*
X162594788Y-94701752D01*
X162475917Y-94582881D01*
X162475916Y-94582880D01*
X162389104Y-94532760D01*
X162389104Y-94532759D01*
X162389100Y-94532758D01*
X162338985Y-94503823D01*
X162186257Y-94462899D01*
X162028143Y-94462899D01*
X162020547Y-94462899D01*
X162020531Y-94462900D01*
X139801498Y-94462900D01*
X139734459Y-94443215D01*
X139713817Y-94426581D01*
X137525390Y-92238155D01*
X137525388Y-92238152D01*
X137406517Y-92119281D01*
X137406512Y-92119277D01*
X137319397Y-92068982D01*
X137269585Y-92040223D01*
X137116857Y-91999299D01*
X136958743Y-91999299D01*
X136951147Y-91999299D01*
X136951131Y-91999300D01*
X132552070Y-91999300D01*
X132552054Y-91999299D01*
X132544458Y-91999299D01*
X132386343Y-91999299D01*
X132309979Y-92019761D01*
X132233614Y-92040223D01*
X132233609Y-92040226D01*
X132096690Y-92119275D01*
X132096682Y-92119281D01*
X129559481Y-94656482D01*
X129559479Y-94656485D01*
X129509361Y-94743294D01*
X129509359Y-94743296D01*
X129480425Y-94793409D01*
X129480424Y-94793410D01*
X129480423Y-94793415D01*
X129439499Y-94946143D01*
X129439499Y-94946145D01*
X129439499Y-95114246D01*
X129439500Y-95114259D01*
X129439500Y-97030908D01*
X129419815Y-97097947D01*
X129367914Y-97143286D01*
X129362173Y-97145963D01*
X129362169Y-97145965D01*
X129168597Y-97281505D01*
X129001508Y-97448594D01*
X128871269Y-97634595D01*
X128816692Y-97678219D01*
X128747193Y-97685412D01*
X128684839Y-97653890D01*
X128668119Y-97634594D01*
X128538113Y-97448926D01*
X128538108Y-97448920D01*
X128371082Y-97281894D01*
X128177578Y-97146399D01*
X127963492Y-97046570D01*
X127963486Y-97046567D01*
X127750000Y-96989364D01*
X127750000Y-97886988D01*
X127692993Y-97854075D01*
X127565826Y-97820000D01*
X127434174Y-97820000D01*
X127307007Y-97854075D01*
X127250000Y-97886988D01*
X127250000Y-96989364D01*
X127249999Y-96989364D01*
X127036513Y-97046567D01*
X127036507Y-97046570D01*
X126822422Y-97146399D01*
X126822420Y-97146400D01*
X126628926Y-97281886D01*
X126628920Y-97281891D01*
X126461891Y-97448920D01*
X126461890Y-97448922D01*
X126331880Y-97634595D01*
X126277303Y-97678219D01*
X126207804Y-97685412D01*
X126145450Y-97653890D01*
X126128730Y-97634594D01*
X125998494Y-97448597D01*
X125831402Y-97281506D01*
X125831395Y-97281501D01*
X125637834Y-97145967D01*
X125637830Y-97145965D01*
X125632085Y-97143286D01*
X125423663Y-97046097D01*
X125423659Y-97046096D01*
X125423655Y-97046094D01*
X125195413Y-96984938D01*
X125195403Y-96984936D01*
X124960001Y-96964341D01*
X124959999Y-96964341D01*
X124724596Y-96984936D01*
X124724586Y-96984938D01*
X124496344Y-97046094D01*
X124496335Y-97046098D01*
X124282171Y-97145964D01*
X124282169Y-97145965D01*
X124088597Y-97281505D01*
X123921505Y-97448597D01*
X123791575Y-97634158D01*
X123736998Y-97677783D01*
X123667500Y-97684977D01*
X123605145Y-97653454D01*
X123588425Y-97634158D01*
X123458494Y-97448597D01*
X123291402Y-97281506D01*
X123291395Y-97281501D01*
X123097834Y-97145967D01*
X123097830Y-97145965D01*
X123092085Y-97143286D01*
X122883663Y-97046097D01*
X122883659Y-97046096D01*
X122883655Y-97046094D01*
X122655413Y-96984938D01*
X122655403Y-96984936D01*
X122420001Y-96964341D01*
X122419999Y-96964341D01*
X122184596Y-96984936D01*
X122184586Y-96984938D01*
X121956344Y-97046094D01*
X121956335Y-97046098D01*
X121742171Y-97145964D01*
X121742169Y-97145965D01*
X121548597Y-97281505D01*
X121381505Y-97448597D01*
X121251575Y-97634158D01*
X121196998Y-97677783D01*
X121127500Y-97684977D01*
X121065145Y-97653454D01*
X121048425Y-97634158D01*
X120918494Y-97448597D01*
X120751402Y-97281506D01*
X120751395Y-97281501D01*
X120557834Y-97145967D01*
X120557830Y-97145965D01*
X120552085Y-97143286D01*
X120343663Y-97046097D01*
X120343659Y-97046096D01*
X120343655Y-97046094D01*
X120115413Y-96984938D01*
X120115403Y-96984936D01*
X119880001Y-96964341D01*
X119879999Y-96964341D01*
X119644596Y-96984936D01*
X119644586Y-96984938D01*
X119416344Y-97046094D01*
X119416335Y-97046098D01*
X119202171Y-97145964D01*
X119202169Y-97145965D01*
X119008597Y-97281505D01*
X118841505Y-97448597D01*
X118705965Y-97642169D01*
X118705964Y-97642171D01*
X118606098Y-97856335D01*
X118606094Y-97856344D01*
X118544938Y-98084586D01*
X118544936Y-98084596D01*
X118524341Y-98319999D01*
X85339694Y-98319999D01*
X85437768Y-98179934D01*
X85533939Y-97973696D01*
X85592835Y-97753892D01*
X85612668Y-97527200D01*
X85592835Y-97300508D01*
X85533939Y-97080704D01*
X85437768Y-96874466D01*
X85307247Y-96688061D01*
X85307245Y-96688058D01*
X85146341Y-96527154D01*
X84959934Y-96396632D01*
X84959932Y-96396631D01*
X84753697Y-96300461D01*
X84753688Y-96300458D01*
X84533897Y-96241566D01*
X84533893Y-96241565D01*
X84533892Y-96241565D01*
X84533891Y-96241564D01*
X84533886Y-96241564D01*
X84307202Y-96221732D01*
X84307198Y-96221732D01*
X84080513Y-96241564D01*
X84080502Y-96241566D01*
X83860711Y-96300458D01*
X83860702Y-96300461D01*
X83654467Y-96396631D01*
X83654465Y-96396632D01*
X83468058Y-96527154D01*
X83307154Y-96688058D01*
X83176632Y-96874465D01*
X83176631Y-96874467D01*
X83080461Y-97080702D01*
X83080458Y-97080711D01*
X83021566Y-97300502D01*
X83021564Y-97300513D01*
X83001732Y-97527198D01*
X78500500Y-97527198D01*
X78500500Y-90533335D01*
X126149500Y-90533335D01*
X126149500Y-92329070D01*
X126149501Y-92329076D01*
X126155908Y-92388683D01*
X126206202Y-92523528D01*
X126206206Y-92523535D01*
X126292452Y-92638744D01*
X126292455Y-92638747D01*
X126407664Y-92724993D01*
X126407671Y-92724997D01*
X126542517Y-92775291D01*
X126542516Y-92775291D01*
X126549444Y-92776035D01*
X126602127Y-92781700D01*
X128397872Y-92781699D01*
X128457483Y-92775291D01*
X128592331Y-92724996D01*
X128707546Y-92638746D01*
X128793796Y-92523531D01*
X128844091Y-92388683D01*
X128850500Y-92329073D01*
X128850499Y-90533328D01*
X128844091Y-90473717D01*
X128793796Y-90338869D01*
X128793795Y-90338868D01*
X128793793Y-90338864D01*
X128707547Y-90223655D01*
X128707544Y-90223652D01*
X128592335Y-90137406D01*
X128592328Y-90137402D01*
X128457482Y-90087108D01*
X128457483Y-90087108D01*
X128397883Y-90080701D01*
X128397881Y-90080700D01*
X128397873Y-90080700D01*
X128397864Y-90080700D01*
X126602129Y-90080700D01*
X126602123Y-90080701D01*
X126542516Y-90087108D01*
X126407671Y-90137402D01*
X126407664Y-90137406D01*
X126292455Y-90223652D01*
X126292452Y-90223655D01*
X126206206Y-90338864D01*
X126206202Y-90338871D01*
X126155908Y-90473717D01*
X126149501Y-90533316D01*
X126149501Y-90533323D01*
X126149500Y-90533335D01*
X78500500Y-90533335D01*
X78500500Y-74910054D01*
X81573098Y-74910054D01*
X81614023Y-75062785D01*
X81642958Y-75112900D01*
X81642959Y-75112904D01*
X81642960Y-75112904D01*
X81693079Y-75199714D01*
X81693081Y-75199717D01*
X81811949Y-75318585D01*
X81811955Y-75318590D01*
X84006033Y-77512669D01*
X84039518Y-77573992D01*
X84038127Y-77632443D01*
X84003738Y-77760786D01*
X84003736Y-77760796D01*
X83983141Y-77996199D01*
X83983141Y-77996200D01*
X84003736Y-78231603D01*
X84003738Y-78231613D01*
X84064894Y-78459855D01*
X84064896Y-78459859D01*
X84064897Y-78459863D01*
X84164765Y-78674030D01*
X84164767Y-78674034D01*
X84300301Y-78867595D01*
X84300306Y-78867602D01*
X84467397Y-79034693D01*
X84467403Y-79034698D01*
X84652958Y-79164625D01*
X84696583Y-79219202D01*
X84703777Y-79288700D01*
X84672254Y-79351055D01*
X84652958Y-79367775D01*
X84467397Y-79497705D01*
X84300305Y-79664797D01*
X84164765Y-79858369D01*
X84164764Y-79858371D01*
X84064898Y-80072535D01*
X84064894Y-80072544D01*
X84003738Y-80300786D01*
X84003736Y-80300796D01*
X83983141Y-80536199D01*
X83983141Y-80536200D01*
X84003736Y-80771603D01*
X84003738Y-80771613D01*
X84064894Y-80999855D01*
X84064896Y-80999859D01*
X84064897Y-80999863D01*
X84164765Y-81214030D01*
X84164767Y-81214034D01*
X84300301Y-81407595D01*
X84300306Y-81407602D01*
X84467397Y-81574693D01*
X84467403Y-81574698D01*
X84652958Y-81704625D01*
X84696583Y-81759202D01*
X84703777Y-81828700D01*
X84672254Y-81891055D01*
X84652958Y-81907775D01*
X84467397Y-82037705D01*
X84300305Y-82204797D01*
X84164765Y-82398369D01*
X84164764Y-82398371D01*
X84064898Y-82612535D01*
X84064894Y-82612544D01*
X84003738Y-82840786D01*
X84003736Y-82840796D01*
X83983141Y-83076199D01*
X83983141Y-83076200D01*
X84003736Y-83311603D01*
X84003738Y-83311613D01*
X84064894Y-83539855D01*
X84064896Y-83539859D01*
X84064897Y-83539863D01*
X84164765Y-83754030D01*
X84164767Y-83754034D01*
X84273081Y-83908721D01*
X84300305Y-83947601D01*
X84467399Y-84114695D01*
X84564184Y-84182465D01*
X84660965Y-84250232D01*
X84660967Y-84250233D01*
X84660970Y-84250235D01*
X84875137Y-84350103D01*
X85103392Y-84411263D01*
X85291718Y-84427739D01*
X85338799Y-84431859D01*
X85338800Y-84431859D01*
X85338801Y-84431859D01*
X85378034Y-84428426D01*
X85574208Y-84411263D01*
X85802463Y-84350103D01*
X86016630Y-84250235D01*
X86210201Y-84114695D01*
X86377295Y-83947601D01*
X86512835Y-83754030D01*
X86612703Y-83539863D01*
X86673863Y-83311608D01*
X86694459Y-83076200D01*
X86673863Y-82840792D01*
X86612703Y-82612537D01*
X86512835Y-82398371D01*
X86377295Y-82204799D01*
X86377294Y-82204797D01*
X86210202Y-82037706D01*
X86210196Y-82037701D01*
X86024642Y-81907775D01*
X85981017Y-81853198D01*
X85973823Y-81783700D01*
X86005346Y-81721345D01*
X86024642Y-81704625D01*
X86046826Y-81689091D01*
X86210201Y-81574695D01*
X86377295Y-81407601D01*
X86512835Y-81214030D01*
X86612703Y-80999863D01*
X86673863Y-80771608D01*
X86694459Y-80536200D01*
X86673863Y-80300792D01*
X86612703Y-80072537D01*
X86564379Y-79968909D01*
X86553888Y-79899833D01*
X86576086Y-79844114D01*
X87071809Y-79154720D01*
X87084796Y-79139438D01*
X87099120Y-79125116D01*
X87120561Y-79087976D01*
X87127269Y-79077593D01*
X87152295Y-79042791D01*
X87159456Y-79023857D01*
X87168053Y-79005719D01*
X87178175Y-78988187D01*
X87178177Y-78988184D01*
X87189274Y-78946768D01*
X87193066Y-78934999D01*
X87208233Y-78894902D01*
X87210250Y-78874751D01*
X87213856Y-78855025D01*
X87219100Y-78835457D01*
X87219100Y-78792587D01*
X87219717Y-78780230D01*
X87223989Y-78737574D01*
X87220723Y-78717586D01*
X87219100Y-78697590D01*
X87219100Y-72214808D01*
X87220723Y-72194811D01*
X87220803Y-72194315D01*
X87223989Y-72174826D01*
X87219717Y-72132167D01*
X87219100Y-72119811D01*
X87219100Y-72076944D01*
X87219100Y-72076943D01*
X87213858Y-72057382D01*
X87210250Y-72037643D01*
X87208233Y-72017498D01*
X87193064Y-71977394D01*
X87189276Y-71965641D01*
X87178177Y-71924216D01*
X87176310Y-71920983D01*
X87168051Y-71906676D01*
X87159459Y-71888549D01*
X87152295Y-71869609D01*
X87127268Y-71834804D01*
X87120557Y-71824413D01*
X87099122Y-71787287D01*
X87099118Y-71787282D01*
X87084801Y-71772965D01*
X87071807Y-71757676D01*
X86576088Y-71068286D01*
X86552932Y-71002365D01*
X86564381Y-70943489D01*
X86576170Y-70918207D01*
X86602754Y-70861199D01*
X126169364Y-70861199D01*
X126169364Y-70861200D01*
X127066988Y-70861200D01*
X127034075Y-70918207D01*
X127000000Y-71045374D01*
X127000000Y-71177026D01*
X127034075Y-71304193D01*
X127066988Y-71361200D01*
X126169364Y-71361200D01*
X126226567Y-71574686D01*
X126226570Y-71574692D01*
X126326399Y-71788778D01*
X126461894Y-71982282D01*
X126628917Y-72149305D01*
X126822421Y-72284800D01*
X127036507Y-72384629D01*
X127036516Y-72384633D01*
X127250000Y-72441834D01*
X127250000Y-71544212D01*
X127307007Y-71577125D01*
X127434174Y-71611200D01*
X127565826Y-71611200D01*
X127692993Y-71577125D01*
X127750000Y-71544212D01*
X127750000Y-72441833D01*
X127963483Y-72384633D01*
X127963492Y-72384629D01*
X128177578Y-72284800D01*
X128371082Y-72149305D01*
X128538105Y-71982282D01*
X128673600Y-71788778D01*
X128773429Y-71574692D01*
X128773432Y-71574686D01*
X128830636Y-71361200D01*
X127933012Y-71361200D01*
X127965925Y-71304193D01*
X128000000Y-71177026D01*
X128000000Y-71045374D01*
X127965925Y-70918207D01*
X127933012Y-70861200D01*
X128830636Y-70861200D01*
X128830635Y-70861199D01*
X128773432Y-70647713D01*
X128773429Y-70647707D01*
X128673600Y-70433622D01*
X128673599Y-70433620D01*
X128538113Y-70240126D01*
X128538108Y-70240120D01*
X128371082Y-70073094D01*
X128177578Y-69937599D01*
X127963492Y-69837770D01*
X127963486Y-69837767D01*
X127750000Y-69780564D01*
X127750000Y-70678188D01*
X127692993Y-70645275D01*
X127565826Y-70611200D01*
X127434174Y-70611200D01*
X127307007Y-70645275D01*
X127250000Y-70678188D01*
X127250000Y-69780564D01*
X127249999Y-69780564D01*
X127036513Y-69837767D01*
X127036507Y-69837770D01*
X126822422Y-69937599D01*
X126822420Y-69937600D01*
X126628926Y-70073086D01*
X126628920Y-70073091D01*
X126461891Y-70240120D01*
X126461886Y-70240126D01*
X126326400Y-70433620D01*
X126326399Y-70433622D01*
X126226570Y-70647707D01*
X126226567Y-70647713D01*
X126169364Y-70861199D01*
X86602754Y-70861199D01*
X86612703Y-70839863D01*
X86673863Y-70611608D01*
X86694459Y-70376200D01*
X86673863Y-70140792D01*
X86612703Y-69912537D01*
X86512835Y-69698371D01*
X86449816Y-69608369D01*
X86377294Y-69504797D01*
X86210202Y-69337706D01*
X86210196Y-69337701D01*
X86024642Y-69207775D01*
X85981017Y-69153198D01*
X85973823Y-69083700D01*
X86005346Y-69021345D01*
X86024642Y-69004625D01*
X86153175Y-68914625D01*
X86210201Y-68874695D01*
X86377295Y-68707601D01*
X86512835Y-68514030D01*
X86612703Y-68299863D01*
X86673863Y-68071608D01*
X86694459Y-67836200D01*
X86673863Y-67600792D01*
X86612703Y-67372537D01*
X86512835Y-67158371D01*
X86449816Y-67068369D01*
X86377294Y-66964797D01*
X86210202Y-66797706D01*
X86210196Y-66797701D01*
X86024642Y-66667775D01*
X85981017Y-66613198D01*
X85973823Y-66543700D01*
X86005346Y-66481345D01*
X86024642Y-66464625D01*
X86088753Y-66419734D01*
X86210201Y-66334695D01*
X86377295Y-66167601D01*
X86512835Y-65974030D01*
X86612703Y-65759863D01*
X86673863Y-65531608D01*
X86694459Y-65296200D01*
X86686585Y-65206199D01*
X167783141Y-65206199D01*
X167783141Y-65206200D01*
X167803736Y-65441603D01*
X167803738Y-65441613D01*
X167864894Y-65669855D01*
X167864896Y-65669859D01*
X167864897Y-65669863D01*
X167945326Y-65842343D01*
X167964765Y-65884030D01*
X167964767Y-65884034D01*
X168100301Y-66077595D01*
X168100306Y-66077602D01*
X168267397Y-66244693D01*
X168267403Y-66244698D01*
X168452958Y-66374625D01*
X168496583Y-66429202D01*
X168503777Y-66498700D01*
X168472254Y-66561055D01*
X168452958Y-66577775D01*
X168267397Y-66707705D01*
X168100305Y-66874797D01*
X167964765Y-67068369D01*
X167964764Y-67068371D01*
X167864898Y-67282535D01*
X167864894Y-67282544D01*
X167803738Y-67510786D01*
X167803736Y-67510796D01*
X167783141Y-67746199D01*
X167783141Y-67746200D01*
X167803736Y-67981603D01*
X167803738Y-67981613D01*
X167864894Y-68209855D01*
X167864896Y-68209859D01*
X167864897Y-68209863D01*
X167964765Y-68424030D01*
X167964767Y-68424034D01*
X168100301Y-68617595D01*
X168100306Y-68617602D01*
X168267397Y-68784693D01*
X168267403Y-68784698D01*
X168452958Y-68914625D01*
X168496583Y-68969202D01*
X168503777Y-69038700D01*
X168472254Y-69101055D01*
X168452958Y-69117775D01*
X168267397Y-69247705D01*
X168100305Y-69414797D01*
X167964765Y-69608369D01*
X167964764Y-69608371D01*
X167864898Y-69822535D01*
X167864894Y-69822544D01*
X167803738Y-70050786D01*
X167803736Y-70050796D01*
X167783141Y-70286199D01*
X167783141Y-70286200D01*
X167803736Y-70521603D01*
X167803738Y-70521613D01*
X167864894Y-70749855D01*
X167864896Y-70749859D01*
X167864897Y-70749863D01*
X167943397Y-70918207D01*
X167964765Y-70964030D01*
X167964767Y-70964034D01*
X168037766Y-71068286D01*
X168100305Y-71157601D01*
X168267399Y-71324695D01*
X168342611Y-71377359D01*
X168460965Y-71460232D01*
X168460967Y-71460233D01*
X168460970Y-71460235D01*
X168675137Y-71560103D01*
X168903392Y-71621263D01*
X169091718Y-71637739D01*
X169138799Y-71641859D01*
X169138800Y-71641859D01*
X169138801Y-71641859D01*
X169178034Y-71638426D01*
X169374208Y-71621263D01*
X169602463Y-71560103D01*
X169816630Y-71460235D01*
X170010201Y-71324695D01*
X170177295Y-71157601D01*
X170312835Y-70964030D01*
X170412703Y-70749863D01*
X170473863Y-70521608D01*
X170494459Y-70286200D01*
X170473863Y-70050792D01*
X170412703Y-69822537D01*
X170312835Y-69608371D01*
X170240314Y-69504799D01*
X170177294Y-69414797D01*
X170010202Y-69247706D01*
X170010196Y-69247701D01*
X169824642Y-69117775D01*
X169781017Y-69063198D01*
X169773823Y-68993700D01*
X169805346Y-68931345D01*
X169824642Y-68914625D01*
X169846826Y-68899091D01*
X170010201Y-68784695D01*
X170177295Y-68617601D01*
X170312835Y-68424030D01*
X170412703Y-68209863D01*
X170473863Y-67981608D01*
X170494459Y-67746200D01*
X170473863Y-67510792D01*
X170412703Y-67282537D01*
X170312835Y-67068371D01*
X170240314Y-66964799D01*
X170177294Y-66874797D01*
X170010202Y-66707706D01*
X170010196Y-66707701D01*
X169824642Y-66577775D01*
X169781017Y-66523198D01*
X169773823Y-66453700D01*
X169805346Y-66391345D01*
X169824642Y-66374625D01*
X169846826Y-66359091D01*
X170010201Y-66244695D01*
X170177295Y-66077601D01*
X170312835Y-65884030D01*
X170412703Y-65669863D01*
X170473863Y-65441608D01*
X170494459Y-65206200D01*
X170473863Y-64970792D01*
X170412703Y-64742537D01*
X170312835Y-64528371D01*
X170240313Y-64424799D01*
X170177296Y-64334800D01*
X170177295Y-64334799D01*
X170055367Y-64212871D01*
X170021884Y-64151551D01*
X170026868Y-64081859D01*
X170068739Y-64025925D01*
X170099715Y-64009010D01*
X170231131Y-63959996D01*
X170346346Y-63873746D01*
X170432596Y-63758531D01*
X170482891Y-63623683D01*
X170489300Y-63564073D01*
X170489299Y-61768328D01*
X170482891Y-61708717D01*
X170432596Y-61573869D01*
X170432595Y-61573868D01*
X170432593Y-61573864D01*
X170346347Y-61458655D01*
X170346344Y-61458652D01*
X170231135Y-61372406D01*
X170231128Y-61372402D01*
X170096282Y-61322108D01*
X170096283Y-61322108D01*
X170036683Y-61315701D01*
X170036681Y-61315700D01*
X170036673Y-61315700D01*
X170036664Y-61315700D01*
X168240929Y-61315700D01*
X168240923Y-61315701D01*
X168181316Y-61322108D01*
X168046471Y-61372402D01*
X168046464Y-61372406D01*
X167931255Y-61458652D01*
X167931252Y-61458655D01*
X167845006Y-61573864D01*
X167845002Y-61573871D01*
X167794708Y-61708717D01*
X167788301Y-61768316D01*
X167788301Y-61768323D01*
X167788300Y-61768335D01*
X167788300Y-63564070D01*
X167788301Y-63564076D01*
X167794708Y-63623683D01*
X167845002Y-63758528D01*
X167845006Y-63758535D01*
X167931252Y-63873744D01*
X167931255Y-63873747D01*
X168046464Y-63959993D01*
X168046471Y-63959997D01*
X168177881Y-64009010D01*
X168233815Y-64050881D01*
X168258232Y-64116345D01*
X168243380Y-64184618D01*
X168222230Y-64212873D01*
X168100303Y-64334800D01*
X167964765Y-64528369D01*
X167964764Y-64528371D01*
X167864898Y-64742535D01*
X167864894Y-64742544D01*
X167803738Y-64970786D01*
X167803736Y-64970796D01*
X167783141Y-65206199D01*
X86686585Y-65206199D01*
X86673863Y-65060792D01*
X86612703Y-64832537D01*
X86512835Y-64618371D01*
X86449816Y-64528369D01*
X86377294Y-64424797D01*
X86210202Y-64257706D01*
X86210196Y-64257701D01*
X86024642Y-64127775D01*
X85981017Y-64073198D01*
X85973823Y-64003700D01*
X86005346Y-63941345D01*
X86024642Y-63924625D01*
X86097303Y-63873747D01*
X86210201Y-63794695D01*
X86377295Y-63627601D01*
X86512835Y-63434030D01*
X86612703Y-63219863D01*
X86673863Y-62991608D01*
X86694459Y-62756200D01*
X86673863Y-62520792D01*
X86612703Y-62292537D01*
X86512835Y-62078371D01*
X86377295Y-61884799D01*
X86377294Y-61884797D01*
X86210202Y-61717706D01*
X86210196Y-61717701D01*
X86024642Y-61587775D01*
X85981017Y-61533198D01*
X85973823Y-61463700D01*
X86005346Y-61401345D01*
X86024642Y-61384625D01*
X86123077Y-61315700D01*
X86210201Y-61254695D01*
X86377295Y-61087601D01*
X86512835Y-60894030D01*
X86612703Y-60679863D01*
X86673863Y-60451608D01*
X86694459Y-60216200D01*
X86673863Y-59980792D01*
X86612703Y-59752537D01*
X86512835Y-59538371D01*
X86377295Y-59344799D01*
X86377294Y-59344797D01*
X86210202Y-59177706D01*
X86210196Y-59177701D01*
X86024642Y-59047775D01*
X85981017Y-58993198D01*
X85973823Y-58923700D01*
X86005346Y-58861345D01*
X86024642Y-58844625D01*
X86046826Y-58829091D01*
X86210201Y-58714695D01*
X86377295Y-58547601D01*
X86512835Y-58354030D01*
X86612703Y-58139863D01*
X86673863Y-57911608D01*
X86694459Y-57676200D01*
X86673863Y-57440792D01*
X86612703Y-57212537D01*
X86512835Y-56998371D01*
X86377295Y-56804799D01*
X86377294Y-56804797D01*
X86210202Y-56637706D01*
X86210196Y-56637701D01*
X86024642Y-56507775D01*
X85981017Y-56453198D01*
X85973823Y-56383700D01*
X86005346Y-56321345D01*
X86024642Y-56304625D01*
X86046826Y-56289091D01*
X86210201Y-56174695D01*
X86377295Y-56007601D01*
X86512835Y-55814030D01*
X86612703Y-55599863D01*
X86673863Y-55371608D01*
X86694459Y-55136200D01*
X86673863Y-54900792D01*
X86612703Y-54672537D01*
X86512835Y-54458371D01*
X86377295Y-54264799D01*
X86377294Y-54264797D01*
X86210202Y-54097706D01*
X86210201Y-54097705D01*
X86024205Y-53967469D01*
X85980581Y-53912892D01*
X85973388Y-53843393D01*
X86004910Y-53781039D01*
X86024205Y-53764319D01*
X86100173Y-53711125D01*
X85468209Y-53079162D01*
X85531793Y-53062125D01*
X85645807Y-52996299D01*
X85738899Y-52903207D01*
X85804725Y-52789193D01*
X85821762Y-52725610D01*
X86453725Y-53357573D01*
X86453726Y-53357573D01*
X86512398Y-53273782D01*
X86512400Y-53273778D01*
X86612229Y-53059692D01*
X86612233Y-53059683D01*
X86673367Y-52831526D01*
X86673369Y-52831515D01*
X86693957Y-52596201D01*
X86693957Y-52596198D01*
X86673369Y-52360884D01*
X86673367Y-52360873D01*
X86612233Y-52132716D01*
X86612229Y-52132707D01*
X86512400Y-51918623D01*
X86512399Y-51918621D01*
X86453725Y-51834826D01*
X86453725Y-51834825D01*
X85821762Y-52466789D01*
X85804725Y-52403207D01*
X85738899Y-52289193D01*
X85645807Y-52196101D01*
X85531793Y-52130275D01*
X85468210Y-52113237D01*
X86138429Y-51443018D01*
X86199752Y-51409533D01*
X86226109Y-51406699D01*
X86236672Y-51406699D01*
X86296283Y-51400291D01*
X86431131Y-51349996D01*
X86546346Y-51263746D01*
X86632596Y-51148531D01*
X86682891Y-51013683D01*
X86689300Y-50954073D01*
X86689299Y-49158328D01*
X86682891Y-49098717D01*
X86632596Y-48963869D01*
X86632595Y-48963868D01*
X86632593Y-48963864D01*
X86546347Y-48848655D01*
X86546344Y-48848652D01*
X86431135Y-48762406D01*
X86431128Y-48762402D01*
X86296282Y-48712108D01*
X86296283Y-48712108D01*
X86236683Y-48705701D01*
X86236681Y-48705700D01*
X86236673Y-48705700D01*
X86236664Y-48705700D01*
X84440929Y-48705700D01*
X84440923Y-48705701D01*
X84381316Y-48712108D01*
X84246471Y-48762402D01*
X84246464Y-48762406D01*
X84131255Y-48848652D01*
X84131252Y-48848655D01*
X84045006Y-48963864D01*
X84045002Y-48963871D01*
X83994708Y-49098717D01*
X83988301Y-49158316D01*
X83988301Y-49158323D01*
X83988300Y-49158335D01*
X83988300Y-50954070D01*
X83988301Y-50954076D01*
X83994708Y-51013683D01*
X84045002Y-51148528D01*
X84045006Y-51148535D01*
X84131252Y-51263744D01*
X84131255Y-51263747D01*
X84246464Y-51349993D01*
X84246471Y-51349997D01*
X84291418Y-51366761D01*
X84381317Y-51400291D01*
X84440927Y-51406700D01*
X84451484Y-51406699D01*
X84518522Y-51426379D01*
X84539171Y-51443018D01*
X85209390Y-52113237D01*
X85145807Y-52130275D01*
X85031793Y-52196101D01*
X84938701Y-52289193D01*
X84872875Y-52403207D01*
X84855837Y-52466790D01*
X84223872Y-51834825D01*
X84165201Y-51918619D01*
X84065370Y-52132707D01*
X84065366Y-52132716D01*
X84004232Y-52360873D01*
X84004230Y-52360884D01*
X83983643Y-52596198D01*
X83983643Y-52596201D01*
X84004230Y-52831515D01*
X84004232Y-52831526D01*
X84065366Y-53059683D01*
X84065370Y-53059692D01*
X84165200Y-53273779D01*
X84165202Y-53273783D01*
X84223872Y-53357573D01*
X84223873Y-53357573D01*
X84855837Y-52725609D01*
X84872875Y-52789193D01*
X84938701Y-52903207D01*
X85031793Y-52996299D01*
X85145807Y-53062125D01*
X85209390Y-53079162D01*
X84577425Y-53711125D01*
X84653394Y-53764319D01*
X84697019Y-53818896D01*
X84704213Y-53888394D01*
X84672690Y-53950749D01*
X84653395Y-53967469D01*
X84467394Y-54097708D01*
X84300305Y-54264797D01*
X84164765Y-54458369D01*
X84164764Y-54458371D01*
X84064898Y-54672535D01*
X84064894Y-54672544D01*
X84003738Y-54900786D01*
X84003736Y-54900796D01*
X83983141Y-55136199D01*
X83983141Y-55136200D01*
X84003736Y-55371603D01*
X84003738Y-55371613D01*
X84064894Y-55599855D01*
X84064896Y-55599859D01*
X84064897Y-55599863D01*
X84164765Y-55814030D01*
X84164767Y-55814034D01*
X84300301Y-56007595D01*
X84300306Y-56007602D01*
X84467397Y-56174693D01*
X84467403Y-56174698D01*
X84652958Y-56304625D01*
X84696583Y-56359202D01*
X84703777Y-56428700D01*
X84672254Y-56491055D01*
X84652958Y-56507775D01*
X84467397Y-56637705D01*
X84300305Y-56804797D01*
X84164765Y-56998369D01*
X84164764Y-56998371D01*
X84064898Y-57212535D01*
X84064894Y-57212544D01*
X84003738Y-57440786D01*
X84003736Y-57440796D01*
X83983141Y-57676199D01*
X83983141Y-57676200D01*
X84003736Y-57911603D01*
X84003738Y-57911613D01*
X84064894Y-58139855D01*
X84064896Y-58139859D01*
X84064897Y-58139863D01*
X84164765Y-58354030D01*
X84164767Y-58354034D01*
X84300301Y-58547595D01*
X84300306Y-58547602D01*
X84467397Y-58714693D01*
X84467403Y-58714698D01*
X84652958Y-58844625D01*
X84696583Y-58899202D01*
X84703777Y-58968700D01*
X84672254Y-59031055D01*
X84652958Y-59047775D01*
X84467397Y-59177705D01*
X84300305Y-59344797D01*
X84164765Y-59538369D01*
X84164764Y-59538371D01*
X84064898Y-59752535D01*
X84064894Y-59752544D01*
X84003738Y-59980786D01*
X84003736Y-59980796D01*
X83983141Y-60216199D01*
X83983141Y-60216200D01*
X84003736Y-60451603D01*
X84003738Y-60451613D01*
X84064894Y-60679855D01*
X84064896Y-60679859D01*
X84064897Y-60679863D01*
X84164765Y-60894030D01*
X84164767Y-60894034D01*
X84300301Y-61087595D01*
X84300306Y-61087602D01*
X84467397Y-61254693D01*
X84467403Y-61254698D01*
X84652958Y-61384625D01*
X84696583Y-61439202D01*
X84703777Y-61508700D01*
X84672254Y-61571055D01*
X84652958Y-61587775D01*
X84467397Y-61717705D01*
X84300305Y-61884797D01*
X84164765Y-62078369D01*
X84164764Y-62078371D01*
X84064898Y-62292535D01*
X84064894Y-62292544D01*
X84003738Y-62520786D01*
X84003736Y-62520796D01*
X83983141Y-62756199D01*
X83983141Y-62756200D01*
X84003736Y-62991603D01*
X84003738Y-62991613D01*
X84038127Y-63119955D01*
X84036464Y-63189805D01*
X84006033Y-63239729D01*
X81804886Y-65440878D01*
X81693081Y-65552682D01*
X81693080Y-65552684D01*
X81650006Y-65627292D01*
X81642961Y-65639494D01*
X81642959Y-65639496D01*
X81614025Y-65689609D01*
X81614024Y-65689610D01*
X81614023Y-65689615D01*
X81573099Y-65842343D01*
X81573099Y-65842345D01*
X81573099Y-66010446D01*
X81573100Y-66010459D01*
X81573100Y-74744330D01*
X81573099Y-74744348D01*
X81573099Y-74910054D01*
X81573098Y-74910054D01*
X78500500Y-74910054D01*
X78500500Y-47876424D01*
X78520185Y-47809385D01*
X78572989Y-47763630D01*
X78642147Y-47753686D01*
X78705703Y-47782711D01*
X78742431Y-47838106D01*
X78794781Y-47999221D01*
X78887715Y-48181613D01*
X79008028Y-48347213D01*
X79152786Y-48491971D01*
X79307749Y-48604556D01*
X79318390Y-48612287D01*
X79434607Y-48671503D01*
X79500776Y-48705218D01*
X79500778Y-48705218D01*
X79500781Y-48705220D01*
X79605137Y-48739127D01*
X79695465Y-48768477D01*
X79796557Y-48784488D01*
X79897648Y-48800500D01*
X79897649Y-48800500D01*
X80102351Y-48800500D01*
X80102352Y-48800500D01*
X80304534Y-48768477D01*
X80499219Y-48705220D01*
X80681610Y-48612287D01*
X80774590Y-48544732D01*
X80847213Y-48491971D01*
X80847215Y-48491968D01*
X80847219Y-48491966D01*
X80991966Y-48347219D01*
X80991968Y-48347215D01*
X80991971Y-48347213D01*
X81044732Y-48274590D01*
X81112287Y-48181610D01*
X81205220Y-47999219D01*
X81268477Y-47804534D01*
X81300500Y-47602352D01*
X81300500Y-47397648D01*
X81268477Y-47195465D01*
X81205218Y-47000776D01*
X81171503Y-46934607D01*
X81112287Y-46818390D01*
X81104556Y-46807749D01*
X80991971Y-46652786D01*
X80847213Y-46508028D01*
X80681613Y-46387715D01*
X80681612Y-46387714D01*
X80681610Y-46387713D01*
X80624653Y-46358691D01*
X80499223Y-46294781D01*
X80338106Y-46242431D01*
X80280431Y-46202993D01*
X80253233Y-46138634D01*
X80265148Y-46069788D01*
X80312392Y-46018312D01*
X80376425Y-46000500D01*
X174623575Y-46000500D01*
X174690614Y-46020185D01*
G37*
G04 #@! TD.AperFunction*
M02*
